M48
; DRILL file {KiCad (5.1.5-0-10_14)} date Sunday, June 14, 2020 at 11:08:30 PM
; FORMAT={-:-/ absolute / inch / decimal}
; #@! TF.CreationDate,2020-06-14T23:08:30-07:00
; #@! TF.GenerationSoftware,Kicad,Pcbnew,(5.1.5-0-10_14)
FMAT,2
INCH
T1C0.0100
T2C0.0300
T3C0.0394
%
G90
G05
T1
X6.345Y-3.1085
X6.395Y-2.626
X6.445Y-3.086
X6.495Y-2.651
X6.58Y-3.346
X6.6125Y-3.346
X6.6275Y-2.856
X6.645Y-3.346
X6.695Y-2.856
X6.695Y-3.066
X6.7025Y-2.626
X6.7325Y-2.701
X6.7625Y-2.651
X6.795Y-2.676
X6.795Y-3.2385
X6.825Y-3.2635
X6.855Y-3.2135
X6.895Y-2.876
X6.945Y-3.0435
X6.995Y-2.701
X7.047Y-3.026
X7.2325Y-2.876
X7.255Y-3.026
X7.2775Y-2.856
X7.3Y-2.836
X7.3225Y-3.066
X7.34Y-2.2985
X7.35Y-1.9685
X7.35Y-2.021
X7.355Y-2.951
X7.355Y-2.981
X7.3825Y-3.006
X7.3825Y-3.296
X7.3875Y-2.2985
X7.4075Y-3.3206
X7.4325Y-3.346
X7.445Y-2.201
X7.525Y-3.891
X7.535Y-2.501
X7.605Y-2.331
X7.67Y-3.026
X7.67Y-3.1085
X7.6925Y-2.876
X7.6925Y-3.086
X7.705Y-3.7235
X7.705Y-3.9935
X7.715Y-2.856
X7.715Y-3.046
X7.7375Y-3.106
X7.76Y-2.836
X7.7825Y-3.086
X7.805Y-3.496
X7.8075Y-3.046
X7.835Y-3.026
X7.895Y-2.626
X7.895Y-3.026
X7.895Y-4.1185
X7.905Y-3.4435
X7.9425Y-3.4435
X7.9625Y-3.346
X7.975Y-3.411
X7.995Y-2.651
X7.995Y-3.046
X7.995Y-4.1435
X8.085Y-2.531
X8.095Y-1.881
X8.095Y-2.876
X8.095Y-3.2635
X8.105Y-3.841
X8.195Y-2.856
X8.195Y-3.066
X8.23Y-2.271
X8.2475Y-2.876
X8.2925Y-2.3335
X8.295Y-1.8535
X8.295Y-2.676
X8.295Y-3.2385
X8.295Y-3.9235
X8.295Y-3.971
X8.295Y-4.131
X8.3475Y-2.0035
X8.3475Y-2.1035
X8.395Y-3.086
X8.395Y-1.881
X8.395Y-2.836
X8.495Y-2.701
X8.495Y-3.106
X8.495Y-4.156
X8.54Y-4.156
X8.565Y-4.131
X8.595Y-1.826
X8.595Y-4.181
X8.6775Y-3.3835
X8.7025Y-3.366
X8.7175Y-2.8835
X8.7275Y-3.351
X8.7325Y-2.2235
X8.795Y-3.171
T2
X7.895Y-3.1609
X7.895Y-4.2791
X7.995Y-3.1609
X7.995Y-4.2791
X8.095Y-3.1609
X8.095Y-4.2791
X8.195Y-3.1609
X8.195Y-4.2791
X8.295Y-3.1609
X8.295Y-4.2791
X8.395Y-3.1609
X8.395Y-4.2791
X8.495Y-3.1609
X8.495Y-4.2791
X8.595Y-3.1609
X8.595Y-4.2791
X7.895Y-1.6609
X7.895Y-2.7791
X7.995Y-1.6609
X7.995Y-2.7791
X8.095Y-1.6609
X8.095Y-2.7791
X8.195Y-1.6609
X8.195Y-2.7791
X8.295Y-1.6609
X8.295Y-2.7791
X8.395Y-1.6609
X8.395Y-2.7791
X8.495Y-1.6609
X8.495Y-2.7791
X8.595Y-1.6609
X8.595Y-2.7791
X6.395Y-3.1611
X6.395Y-4.2792
X6.495Y-3.1611
X6.495Y-4.2792
X6.595Y-3.1611
X6.595Y-4.2792
X6.695Y-3.1611
X6.695Y-4.2792
X6.795Y-3.1611
X6.795Y-4.2792
X6.895Y-3.1611
X6.895Y-4.2792
X6.995Y-3.1611
X6.995Y-4.2792
X7.095Y-3.1611
X7.095Y-4.2792
X6.395Y-1.6609
X6.395Y-2.7791
X6.495Y-1.6609
X6.495Y-2.7791
X6.595Y-1.6609
X6.595Y-2.7791
X6.695Y-1.6609
X6.695Y-2.7791
X6.795Y-1.6609
X6.795Y-2.7791
X6.895Y-1.6609
X6.895Y-2.7791
X6.995Y-1.6609
X6.995Y-2.7791
X7.095Y-1.6609
X7.095Y-2.7791
T3
X6.4Y-3.375
X6.4Y-3.475
X6.4Y-3.575
X6.4Y-3.675
X6.4Y-3.775
X6.4Y-3.875
X6.4Y-3.975
X6.4Y-4.075
T0
M30
