G04 #@! TF.GenerationSoftware,KiCad,Pcbnew,(5.1.5-0-10_14)*
G04 #@! TF.CreationDate,2020-06-14T22:58:27-07:00*
G04 #@! TF.ProjectId,matrix,6d617472-6978-42e6-9b69-6361645f7063,rev?*
G04 #@! TF.SameCoordinates,Original*
G04 #@! TF.FileFunction,Soldermask,Top*
G04 #@! TF.FilePolarity,Negative*
%FSLAX46Y46*%
G04 Gerber Fmt 4.6, Leading zero omitted, Abs format (unit mm)*
G04 Created by KiCad (PCBNEW (5.1.5-0-10_14)) date 2020-06-14 22:58:27*
%MOMM*%
%LPD*%
G04 APERTURE LIST*
%ADD10C,0.100000*%
G04 APERTURE END LIST*
D10*
G36*
X180450086Y-107909435D02*
G01*
X180598003Y-107970704D01*
X180687163Y-108030279D01*
X180726645Y-108056660D01*
X180731134Y-108059660D01*
X180844340Y-108172866D01*
X180933296Y-108305997D01*
X180994565Y-108453914D01*
X181025800Y-108610946D01*
X181025800Y-108771054D01*
X180994565Y-108928086D01*
X180933296Y-109076003D01*
X180873721Y-109165163D01*
X180846348Y-109206130D01*
X180844340Y-109209134D01*
X180731134Y-109322340D01*
X180598003Y-109411296D01*
X180450086Y-109472565D01*
X180293054Y-109503800D01*
X180132946Y-109503800D01*
X179975914Y-109472565D01*
X179827997Y-109411296D01*
X179694866Y-109322340D01*
X179581660Y-109209134D01*
X179579653Y-109206130D01*
X179552279Y-109165163D01*
X179492704Y-109076003D01*
X179431435Y-108928086D01*
X179400200Y-108771054D01*
X179400200Y-108610946D01*
X179431435Y-108453914D01*
X179492704Y-108305997D01*
X179581660Y-108172866D01*
X179694866Y-108059660D01*
X179699356Y-108056660D01*
X179738837Y-108030279D01*
X179827997Y-107970704D01*
X179975914Y-107909435D01*
X180132946Y-107878200D01*
X180293054Y-107878200D01*
X180450086Y-107909435D01*
G37*
G36*
X177910086Y-107909435D02*
G01*
X178058003Y-107970704D01*
X178147163Y-108030279D01*
X178186645Y-108056660D01*
X178191134Y-108059660D01*
X178304340Y-108172866D01*
X178393296Y-108305997D01*
X178454565Y-108453914D01*
X178485800Y-108610946D01*
X178485800Y-108771054D01*
X178454565Y-108928086D01*
X178393296Y-109076003D01*
X178333721Y-109165163D01*
X178306348Y-109206130D01*
X178304340Y-109209134D01*
X178191134Y-109322340D01*
X178058003Y-109411296D01*
X177910086Y-109472565D01*
X177753054Y-109503800D01*
X177592946Y-109503800D01*
X177435914Y-109472565D01*
X177287997Y-109411296D01*
X177154866Y-109322340D01*
X177041660Y-109209134D01*
X177039653Y-109206130D01*
X177012279Y-109165163D01*
X176952704Y-109076003D01*
X176891435Y-108928086D01*
X176860200Y-108771054D01*
X176860200Y-108610946D01*
X176891435Y-108453914D01*
X176952704Y-108305997D01*
X177041660Y-108172866D01*
X177154866Y-108059660D01*
X177159356Y-108056660D01*
X177198837Y-108030279D01*
X177287997Y-107970704D01*
X177435914Y-107909435D01*
X177592946Y-107878200D01*
X177753054Y-107878200D01*
X177910086Y-107909435D01*
G37*
G36*
X175370086Y-107909435D02*
G01*
X175518003Y-107970704D01*
X175607163Y-108030279D01*
X175646645Y-108056660D01*
X175651134Y-108059660D01*
X175764340Y-108172866D01*
X175853296Y-108305997D01*
X175914565Y-108453914D01*
X175945800Y-108610946D01*
X175945800Y-108771054D01*
X175914565Y-108928086D01*
X175853296Y-109076003D01*
X175793721Y-109165163D01*
X175766348Y-109206130D01*
X175764340Y-109209134D01*
X175651134Y-109322340D01*
X175518003Y-109411296D01*
X175370086Y-109472565D01*
X175213054Y-109503800D01*
X175052946Y-109503800D01*
X174895914Y-109472565D01*
X174747997Y-109411296D01*
X174614866Y-109322340D01*
X174501660Y-109209134D01*
X174499653Y-109206130D01*
X174472279Y-109165163D01*
X174412704Y-109076003D01*
X174351435Y-108928086D01*
X174320200Y-108771054D01*
X174320200Y-108610946D01*
X174351435Y-108453914D01*
X174412704Y-108305997D01*
X174501660Y-108172866D01*
X174614866Y-108059660D01*
X174619356Y-108056660D01*
X174658837Y-108030279D01*
X174747997Y-107970704D01*
X174895914Y-107909435D01*
X175052946Y-107878200D01*
X175213054Y-107878200D01*
X175370086Y-107909435D01*
G37*
G36*
X172830086Y-107909435D02*
G01*
X172978003Y-107970704D01*
X173067163Y-108030279D01*
X173106645Y-108056660D01*
X173111134Y-108059660D01*
X173224340Y-108172866D01*
X173313296Y-108305997D01*
X173374565Y-108453914D01*
X173405800Y-108610946D01*
X173405800Y-108771054D01*
X173374565Y-108928086D01*
X173313296Y-109076003D01*
X173253721Y-109165163D01*
X173226348Y-109206130D01*
X173224340Y-109209134D01*
X173111134Y-109322340D01*
X172978003Y-109411296D01*
X172830086Y-109472565D01*
X172673054Y-109503800D01*
X172512946Y-109503800D01*
X172355914Y-109472565D01*
X172207997Y-109411296D01*
X172074866Y-109322340D01*
X171961660Y-109209134D01*
X171959653Y-109206130D01*
X171932279Y-109165163D01*
X171872704Y-109076003D01*
X171811435Y-108928086D01*
X171780200Y-108771054D01*
X171780200Y-108610946D01*
X171811435Y-108453914D01*
X171872704Y-108305997D01*
X171961660Y-108172866D01*
X172074866Y-108059660D01*
X172079356Y-108056660D01*
X172118837Y-108030279D01*
X172207997Y-107970704D01*
X172355914Y-107909435D01*
X172512946Y-107878200D01*
X172673054Y-107878200D01*
X172830086Y-107909435D01*
G37*
G36*
X170290086Y-107909435D02*
G01*
X170438003Y-107970704D01*
X170527163Y-108030279D01*
X170566645Y-108056660D01*
X170571134Y-108059660D01*
X170684340Y-108172866D01*
X170773296Y-108305997D01*
X170834565Y-108453914D01*
X170865800Y-108610946D01*
X170865800Y-108771054D01*
X170834565Y-108928086D01*
X170773296Y-109076003D01*
X170713721Y-109165163D01*
X170686348Y-109206130D01*
X170684340Y-109209134D01*
X170571134Y-109322340D01*
X170438003Y-109411296D01*
X170290086Y-109472565D01*
X170133054Y-109503800D01*
X169972946Y-109503800D01*
X169815914Y-109472565D01*
X169667997Y-109411296D01*
X169534866Y-109322340D01*
X169421660Y-109209134D01*
X169419653Y-109206130D01*
X169392279Y-109165163D01*
X169332704Y-109076003D01*
X169271435Y-108928086D01*
X169240200Y-108771054D01*
X169240200Y-108610946D01*
X169271435Y-108453914D01*
X169332704Y-108305997D01*
X169421660Y-108172866D01*
X169534866Y-108059660D01*
X169539356Y-108056660D01*
X169578837Y-108030279D01*
X169667997Y-107970704D01*
X169815914Y-107909435D01*
X169972946Y-107878200D01*
X170133054Y-107878200D01*
X170290086Y-107909435D01*
G37*
G36*
X167750086Y-107909435D02*
G01*
X167898003Y-107970704D01*
X167987163Y-108030279D01*
X168026645Y-108056660D01*
X168031134Y-108059660D01*
X168144340Y-108172866D01*
X168233296Y-108305997D01*
X168294565Y-108453914D01*
X168325800Y-108610946D01*
X168325800Y-108771054D01*
X168294565Y-108928086D01*
X168233296Y-109076003D01*
X168173721Y-109165163D01*
X168146348Y-109206130D01*
X168144340Y-109209134D01*
X168031134Y-109322340D01*
X167898003Y-109411296D01*
X167750086Y-109472565D01*
X167593054Y-109503800D01*
X167432946Y-109503800D01*
X167275914Y-109472565D01*
X167127997Y-109411296D01*
X166994866Y-109322340D01*
X166881660Y-109209134D01*
X166879653Y-109206130D01*
X166852279Y-109165163D01*
X166792704Y-109076003D01*
X166731435Y-108928086D01*
X166700200Y-108771054D01*
X166700200Y-108610946D01*
X166731435Y-108453914D01*
X166792704Y-108305997D01*
X166881660Y-108172866D01*
X166994866Y-108059660D01*
X166999356Y-108056660D01*
X167038837Y-108030279D01*
X167127997Y-107970704D01*
X167275914Y-107909435D01*
X167432946Y-107878200D01*
X167593054Y-107878200D01*
X167750086Y-107909435D01*
G37*
G36*
X165210086Y-107909435D02*
G01*
X165358003Y-107970704D01*
X165447163Y-108030279D01*
X165486645Y-108056660D01*
X165491134Y-108059660D01*
X165604340Y-108172866D01*
X165693296Y-108305997D01*
X165754565Y-108453914D01*
X165785800Y-108610946D01*
X165785800Y-108771054D01*
X165754565Y-108928086D01*
X165693296Y-109076003D01*
X165633721Y-109165163D01*
X165606348Y-109206130D01*
X165604340Y-109209134D01*
X165491134Y-109322340D01*
X165358003Y-109411296D01*
X165210086Y-109472565D01*
X165053054Y-109503800D01*
X164892946Y-109503800D01*
X164735914Y-109472565D01*
X164587997Y-109411296D01*
X164454866Y-109322340D01*
X164341660Y-109209134D01*
X164339653Y-109206130D01*
X164312279Y-109165163D01*
X164252704Y-109076003D01*
X164191435Y-108928086D01*
X164160200Y-108771054D01*
X164160200Y-108610946D01*
X164191435Y-108453914D01*
X164252704Y-108305997D01*
X164341660Y-108172866D01*
X164454866Y-108059660D01*
X164459356Y-108056660D01*
X164498837Y-108030279D01*
X164587997Y-107970704D01*
X164735914Y-107909435D01*
X164892946Y-107878200D01*
X165053054Y-107878200D01*
X165210086Y-107909435D01*
G37*
G36*
X162670086Y-107909435D02*
G01*
X162818003Y-107970704D01*
X162907163Y-108030279D01*
X162946645Y-108056660D01*
X162951134Y-108059660D01*
X163064340Y-108172866D01*
X163153296Y-108305997D01*
X163214565Y-108453914D01*
X163245800Y-108610946D01*
X163245800Y-108771054D01*
X163214565Y-108928086D01*
X163153296Y-109076003D01*
X163093721Y-109165163D01*
X163066348Y-109206130D01*
X163064340Y-109209134D01*
X162951134Y-109322340D01*
X162818003Y-109411296D01*
X162670086Y-109472565D01*
X162513054Y-109503800D01*
X162352946Y-109503800D01*
X162195914Y-109472565D01*
X162047997Y-109411296D01*
X161914866Y-109322340D01*
X161801660Y-109209134D01*
X161799653Y-109206130D01*
X161772279Y-109165163D01*
X161712704Y-109076003D01*
X161651435Y-108928086D01*
X161620200Y-108771054D01*
X161620200Y-108610946D01*
X161651435Y-108453914D01*
X161712704Y-108305997D01*
X161801660Y-108172866D01*
X161914866Y-108059660D01*
X161919356Y-108056660D01*
X161958837Y-108030279D01*
X162047997Y-107970704D01*
X162195914Y-107909435D01*
X162352946Y-107878200D01*
X162513054Y-107878200D01*
X162670086Y-107909435D01*
G37*
G36*
X200770086Y-107906435D02*
G01*
X200918003Y-107967704D01*
X201051134Y-108056660D01*
X201164340Y-108169866D01*
X201164342Y-108169869D01*
X201164343Y-108169870D01*
X201193721Y-108213837D01*
X201253296Y-108302997D01*
X201314565Y-108450914D01*
X201345800Y-108607946D01*
X201345800Y-108768054D01*
X201314565Y-108925086D01*
X201253296Y-109073003D01*
X201164340Y-109206134D01*
X201051134Y-109319340D01*
X201051131Y-109319342D01*
X201051130Y-109319343D01*
X201046640Y-109322343D01*
X200918003Y-109408296D01*
X200770086Y-109469565D01*
X200613054Y-109500800D01*
X200452946Y-109500800D01*
X200295914Y-109469565D01*
X200147997Y-109408296D01*
X200019360Y-109322343D01*
X200014870Y-109319343D01*
X200014869Y-109319342D01*
X200014866Y-109319340D01*
X199901660Y-109206134D01*
X199812704Y-109073003D01*
X199751435Y-108925086D01*
X199720200Y-108768054D01*
X199720200Y-108607946D01*
X199751435Y-108450914D01*
X199812704Y-108302997D01*
X199872279Y-108213837D01*
X199901657Y-108169870D01*
X199901658Y-108169869D01*
X199901660Y-108169866D01*
X200014866Y-108056660D01*
X200147997Y-107967704D01*
X200295914Y-107906435D01*
X200452946Y-107875200D01*
X200613054Y-107875200D01*
X200770086Y-107906435D01*
G37*
G36*
X213470086Y-107906435D02*
G01*
X213618003Y-107967704D01*
X213751134Y-108056660D01*
X213864340Y-108169866D01*
X213864342Y-108169869D01*
X213864343Y-108169870D01*
X213893721Y-108213837D01*
X213953296Y-108302997D01*
X214014565Y-108450914D01*
X214045800Y-108607946D01*
X214045800Y-108768054D01*
X214014565Y-108925086D01*
X213953296Y-109073003D01*
X213864340Y-109206134D01*
X213751134Y-109319340D01*
X213751131Y-109319342D01*
X213751130Y-109319343D01*
X213746640Y-109322343D01*
X213618003Y-109408296D01*
X213470086Y-109469565D01*
X213313054Y-109500800D01*
X213152946Y-109500800D01*
X212995914Y-109469565D01*
X212847997Y-109408296D01*
X212719360Y-109322343D01*
X212714870Y-109319343D01*
X212714869Y-109319342D01*
X212714866Y-109319340D01*
X212601660Y-109206134D01*
X212512704Y-109073003D01*
X212451435Y-108925086D01*
X212420200Y-108768054D01*
X212420200Y-108607946D01*
X212451435Y-108450914D01*
X212512704Y-108302997D01*
X212572279Y-108213837D01*
X212601657Y-108169870D01*
X212601658Y-108169869D01*
X212601660Y-108169866D01*
X212714866Y-108056660D01*
X212847997Y-107967704D01*
X212995914Y-107906435D01*
X213152946Y-107875200D01*
X213313054Y-107875200D01*
X213470086Y-107906435D01*
G37*
G36*
X203310086Y-107906435D02*
G01*
X203458003Y-107967704D01*
X203591134Y-108056660D01*
X203704340Y-108169866D01*
X203704342Y-108169869D01*
X203704343Y-108169870D01*
X203733721Y-108213837D01*
X203793296Y-108302997D01*
X203854565Y-108450914D01*
X203885800Y-108607946D01*
X203885800Y-108768054D01*
X203854565Y-108925086D01*
X203793296Y-109073003D01*
X203704340Y-109206134D01*
X203591134Y-109319340D01*
X203591131Y-109319342D01*
X203591130Y-109319343D01*
X203586640Y-109322343D01*
X203458003Y-109408296D01*
X203310086Y-109469565D01*
X203153054Y-109500800D01*
X202992946Y-109500800D01*
X202835914Y-109469565D01*
X202687997Y-109408296D01*
X202559360Y-109322343D01*
X202554870Y-109319343D01*
X202554869Y-109319342D01*
X202554866Y-109319340D01*
X202441660Y-109206134D01*
X202352704Y-109073003D01*
X202291435Y-108925086D01*
X202260200Y-108768054D01*
X202260200Y-108607946D01*
X202291435Y-108450914D01*
X202352704Y-108302997D01*
X202412279Y-108213837D01*
X202441657Y-108169870D01*
X202441658Y-108169869D01*
X202441660Y-108169866D01*
X202554866Y-108056660D01*
X202687997Y-107967704D01*
X202835914Y-107906435D01*
X202992946Y-107875200D01*
X203153054Y-107875200D01*
X203310086Y-107906435D01*
G37*
G36*
X205850086Y-107906435D02*
G01*
X205998003Y-107967704D01*
X206131134Y-108056660D01*
X206244340Y-108169866D01*
X206244342Y-108169869D01*
X206244343Y-108169870D01*
X206273721Y-108213837D01*
X206333296Y-108302997D01*
X206394565Y-108450914D01*
X206425800Y-108607946D01*
X206425800Y-108768054D01*
X206394565Y-108925086D01*
X206333296Y-109073003D01*
X206244340Y-109206134D01*
X206131134Y-109319340D01*
X206131131Y-109319342D01*
X206131130Y-109319343D01*
X206126640Y-109322343D01*
X205998003Y-109408296D01*
X205850086Y-109469565D01*
X205693054Y-109500800D01*
X205532946Y-109500800D01*
X205375914Y-109469565D01*
X205227997Y-109408296D01*
X205099360Y-109322343D01*
X205094870Y-109319343D01*
X205094869Y-109319342D01*
X205094866Y-109319340D01*
X204981660Y-109206134D01*
X204892704Y-109073003D01*
X204831435Y-108925086D01*
X204800200Y-108768054D01*
X204800200Y-108607946D01*
X204831435Y-108450914D01*
X204892704Y-108302997D01*
X204952279Y-108213837D01*
X204981657Y-108169870D01*
X204981658Y-108169869D01*
X204981660Y-108169866D01*
X205094866Y-108056660D01*
X205227997Y-107967704D01*
X205375914Y-107906435D01*
X205532946Y-107875200D01*
X205693054Y-107875200D01*
X205850086Y-107906435D01*
G37*
G36*
X208390086Y-107906435D02*
G01*
X208538003Y-107967704D01*
X208671134Y-108056660D01*
X208784340Y-108169866D01*
X208784342Y-108169869D01*
X208784343Y-108169870D01*
X208813721Y-108213837D01*
X208873296Y-108302997D01*
X208934565Y-108450914D01*
X208965800Y-108607946D01*
X208965800Y-108768054D01*
X208934565Y-108925086D01*
X208873296Y-109073003D01*
X208784340Y-109206134D01*
X208671134Y-109319340D01*
X208671131Y-109319342D01*
X208671130Y-109319343D01*
X208666640Y-109322343D01*
X208538003Y-109408296D01*
X208390086Y-109469565D01*
X208233054Y-109500800D01*
X208072946Y-109500800D01*
X207915914Y-109469565D01*
X207767997Y-109408296D01*
X207639360Y-109322343D01*
X207634870Y-109319343D01*
X207634869Y-109319342D01*
X207634866Y-109319340D01*
X207521660Y-109206134D01*
X207432704Y-109073003D01*
X207371435Y-108925086D01*
X207340200Y-108768054D01*
X207340200Y-108607946D01*
X207371435Y-108450914D01*
X207432704Y-108302997D01*
X207492279Y-108213837D01*
X207521657Y-108169870D01*
X207521658Y-108169869D01*
X207521660Y-108169866D01*
X207634866Y-108056660D01*
X207767997Y-107967704D01*
X207915914Y-107906435D01*
X208072946Y-107875200D01*
X208233054Y-107875200D01*
X208390086Y-107906435D01*
G37*
G36*
X210930086Y-107906435D02*
G01*
X211078003Y-107967704D01*
X211211134Y-108056660D01*
X211324340Y-108169866D01*
X211324342Y-108169869D01*
X211324343Y-108169870D01*
X211353721Y-108213837D01*
X211413296Y-108302997D01*
X211474565Y-108450914D01*
X211505800Y-108607946D01*
X211505800Y-108768054D01*
X211474565Y-108925086D01*
X211413296Y-109073003D01*
X211324340Y-109206134D01*
X211211134Y-109319340D01*
X211211131Y-109319342D01*
X211211130Y-109319343D01*
X211206640Y-109322343D01*
X211078003Y-109408296D01*
X210930086Y-109469565D01*
X210773054Y-109500800D01*
X210612946Y-109500800D01*
X210455914Y-109469565D01*
X210307997Y-109408296D01*
X210179360Y-109322343D01*
X210174870Y-109319343D01*
X210174869Y-109319342D01*
X210174866Y-109319340D01*
X210061660Y-109206134D01*
X209972704Y-109073003D01*
X209911435Y-108925086D01*
X209880200Y-108768054D01*
X209880200Y-108607946D01*
X209911435Y-108450914D01*
X209972704Y-108302997D01*
X210032279Y-108213837D01*
X210061657Y-108169870D01*
X210061658Y-108169869D01*
X210061660Y-108169866D01*
X210174866Y-108056660D01*
X210307997Y-107967704D01*
X210455914Y-107906435D01*
X210612946Y-107875200D01*
X210773054Y-107875200D01*
X210930086Y-107906435D01*
G37*
G36*
X216010086Y-107906435D02*
G01*
X216158003Y-107967704D01*
X216291134Y-108056660D01*
X216404340Y-108169866D01*
X216404342Y-108169869D01*
X216404343Y-108169870D01*
X216433721Y-108213837D01*
X216493296Y-108302997D01*
X216554565Y-108450914D01*
X216585800Y-108607946D01*
X216585800Y-108768054D01*
X216554565Y-108925086D01*
X216493296Y-109073003D01*
X216404340Y-109206134D01*
X216291134Y-109319340D01*
X216291131Y-109319342D01*
X216291130Y-109319343D01*
X216286640Y-109322343D01*
X216158003Y-109408296D01*
X216010086Y-109469565D01*
X215853054Y-109500800D01*
X215692946Y-109500800D01*
X215535914Y-109469565D01*
X215387997Y-109408296D01*
X215259360Y-109322343D01*
X215254870Y-109319343D01*
X215254869Y-109319342D01*
X215254866Y-109319340D01*
X215141660Y-109206134D01*
X215052704Y-109073003D01*
X214991435Y-108925086D01*
X214960200Y-108768054D01*
X214960200Y-108607946D01*
X214991435Y-108450914D01*
X215052704Y-108302997D01*
X215112279Y-108213837D01*
X215141657Y-108169870D01*
X215141658Y-108169869D01*
X215141660Y-108169866D01*
X215254866Y-108056660D01*
X215387997Y-107967704D01*
X215535914Y-107906435D01*
X215692946Y-107875200D01*
X215853054Y-107875200D01*
X216010086Y-107906435D01*
G37*
G36*
X218550086Y-107906435D02*
G01*
X218698003Y-107967704D01*
X218831134Y-108056660D01*
X218944340Y-108169866D01*
X218944342Y-108169869D01*
X218944343Y-108169870D01*
X218973721Y-108213837D01*
X219033296Y-108302997D01*
X219094565Y-108450914D01*
X219125800Y-108607946D01*
X219125800Y-108768054D01*
X219094565Y-108925086D01*
X219033296Y-109073003D01*
X218944340Y-109206134D01*
X218831134Y-109319340D01*
X218831131Y-109319342D01*
X218831130Y-109319343D01*
X218826640Y-109322343D01*
X218698003Y-109408296D01*
X218550086Y-109469565D01*
X218393054Y-109500800D01*
X218232946Y-109500800D01*
X218075914Y-109469565D01*
X217927997Y-109408296D01*
X217799360Y-109322343D01*
X217794870Y-109319343D01*
X217794869Y-109319342D01*
X217794866Y-109319340D01*
X217681660Y-109206134D01*
X217592704Y-109073003D01*
X217531435Y-108925086D01*
X217500200Y-108768054D01*
X217500200Y-108607946D01*
X217531435Y-108450914D01*
X217592704Y-108302997D01*
X217652279Y-108213837D01*
X217681657Y-108169870D01*
X217681658Y-108169869D01*
X217681660Y-108169866D01*
X217794866Y-108056660D01*
X217927997Y-107967704D01*
X218075914Y-107906435D01*
X218232946Y-107875200D01*
X218393054Y-107875200D01*
X218550086Y-107906435D01*
G37*
G36*
X163460800Y-104405800D02*
G01*
X161659200Y-104405800D01*
X161659200Y-102604200D01*
X163460800Y-102604200D01*
X163460800Y-104405800D01*
G37*
G36*
X162822754Y-100098817D02*
G01*
X162986689Y-100166721D01*
X163134227Y-100265303D01*
X163259697Y-100390773D01*
X163358279Y-100538311D01*
X163426183Y-100702246D01*
X163460800Y-100876279D01*
X163460800Y-101053721D01*
X163426183Y-101227754D01*
X163358279Y-101391689D01*
X163259697Y-101539227D01*
X163134227Y-101664697D01*
X162986689Y-101763279D01*
X162822754Y-101831183D01*
X162648721Y-101865800D01*
X162471279Y-101865800D01*
X162297246Y-101831183D01*
X162133311Y-101763279D01*
X161985773Y-101664697D01*
X161860303Y-101539227D01*
X161761721Y-101391689D01*
X161693817Y-101227754D01*
X161659200Y-101053721D01*
X161659200Y-100876279D01*
X161693817Y-100702246D01*
X161761721Y-100538311D01*
X161860303Y-100390773D01*
X161985773Y-100265303D01*
X162133311Y-100166721D01*
X162297246Y-100098817D01*
X162471279Y-100064200D01*
X162648721Y-100064200D01*
X162822754Y-100098817D01*
G37*
G36*
X216788015Y-99948223D02*
G01*
X216816106Y-99956744D01*
X216841998Y-99970584D01*
X216864692Y-99989208D01*
X216883316Y-100011902D01*
X216897156Y-100037794D01*
X216905677Y-100065885D01*
X216908800Y-100097591D01*
X216908800Y-100494209D01*
X216905677Y-100525915D01*
X216897156Y-100554006D01*
X216883316Y-100579898D01*
X216864692Y-100602592D01*
X216841998Y-100621216D01*
X216816106Y-100635056D01*
X216788015Y-100643577D01*
X216756309Y-100646700D01*
X213657691Y-100646700D01*
X213625985Y-100643577D01*
X213597894Y-100635056D01*
X213572002Y-100621216D01*
X213549308Y-100602592D01*
X213530684Y-100579898D01*
X213516844Y-100554006D01*
X213508323Y-100525915D01*
X213505200Y-100494209D01*
X213505200Y-100097591D01*
X213508323Y-100065885D01*
X213516844Y-100037794D01*
X213530684Y-100011902D01*
X213549308Y-99989208D01*
X213572002Y-99970584D01*
X213597894Y-99956744D01*
X213625985Y-99948223D01*
X213657691Y-99945100D01*
X216756309Y-99945100D01*
X216788015Y-99948223D01*
G37*
G36*
X223135015Y-99948223D02*
G01*
X223163106Y-99956744D01*
X223188998Y-99970584D01*
X223211692Y-99989208D01*
X223230316Y-100011902D01*
X223244156Y-100037794D01*
X223252677Y-100065885D01*
X223255800Y-100097591D01*
X223255800Y-100494209D01*
X223252677Y-100525915D01*
X223244156Y-100554006D01*
X223230316Y-100579898D01*
X223211692Y-100602592D01*
X223188998Y-100621216D01*
X223163106Y-100635056D01*
X223135015Y-100643577D01*
X223103309Y-100646700D01*
X220004691Y-100646700D01*
X219972985Y-100643577D01*
X219944894Y-100635056D01*
X219919002Y-100621216D01*
X219896308Y-100602592D01*
X219877684Y-100579898D01*
X219863844Y-100554006D01*
X219855323Y-100525915D01*
X219852200Y-100494209D01*
X219852200Y-100097591D01*
X219855323Y-100065885D01*
X219863844Y-100037794D01*
X219877684Y-100011902D01*
X219896308Y-99989208D01*
X219919002Y-99970584D01*
X219944894Y-99956744D01*
X219972985Y-99948223D01*
X220004691Y-99945100D01*
X223103309Y-99945100D01*
X223135015Y-99948223D01*
G37*
G36*
X184274515Y-99813223D02*
G01*
X184302606Y-99821744D01*
X184328498Y-99835584D01*
X184351192Y-99854208D01*
X184369816Y-99876902D01*
X184383656Y-99902794D01*
X184392177Y-99930885D01*
X184395300Y-99962591D01*
X184395300Y-100359209D01*
X184392177Y-100390915D01*
X184383656Y-100419006D01*
X184369816Y-100444898D01*
X184351192Y-100467592D01*
X184328498Y-100486216D01*
X184302606Y-100500056D01*
X184274515Y-100508577D01*
X184242809Y-100511700D01*
X181144191Y-100511700D01*
X181112485Y-100508577D01*
X181084394Y-100500056D01*
X181058502Y-100486216D01*
X181035808Y-100467592D01*
X181017184Y-100444898D01*
X181003344Y-100419006D01*
X180994823Y-100390915D01*
X180991700Y-100359209D01*
X180991700Y-99962591D01*
X180994823Y-99930885D01*
X181003344Y-99902794D01*
X181017184Y-99876902D01*
X181035808Y-99854208D01*
X181058502Y-99835584D01*
X181084394Y-99821744D01*
X181112485Y-99813223D01*
X181144191Y-99810100D01*
X184242809Y-99810100D01*
X184274515Y-99813223D01*
G37*
G36*
X177924515Y-99749723D02*
G01*
X177952606Y-99758244D01*
X177978498Y-99772084D01*
X178001192Y-99790708D01*
X178019816Y-99813402D01*
X178033656Y-99839294D01*
X178042177Y-99867385D01*
X178045300Y-99899091D01*
X178045300Y-100295709D01*
X178042177Y-100327415D01*
X178033656Y-100355506D01*
X178019816Y-100381398D01*
X178001192Y-100404092D01*
X177978498Y-100422716D01*
X177952606Y-100436556D01*
X177924515Y-100445077D01*
X177892809Y-100448200D01*
X174794191Y-100448200D01*
X174762485Y-100445077D01*
X174734394Y-100436556D01*
X174708502Y-100422716D01*
X174685808Y-100404092D01*
X174667184Y-100381398D01*
X174653344Y-100355506D01*
X174644823Y-100327415D01*
X174641700Y-100295709D01*
X174641700Y-99899091D01*
X174644823Y-99867385D01*
X174653344Y-99839294D01*
X174667184Y-99813402D01*
X174685808Y-99790708D01*
X174708502Y-99772084D01*
X174734394Y-99758244D01*
X174762485Y-99749723D01*
X174794191Y-99746600D01*
X177892809Y-99746600D01*
X177924515Y-99749723D01*
G37*
G36*
X216788015Y-98678223D02*
G01*
X216816106Y-98686744D01*
X216841998Y-98700584D01*
X216864692Y-98719208D01*
X216883316Y-98741902D01*
X216897156Y-98767794D01*
X216905677Y-98795885D01*
X216908800Y-98827591D01*
X216908800Y-99224209D01*
X216905677Y-99255915D01*
X216897156Y-99284006D01*
X216883316Y-99309898D01*
X216864692Y-99332592D01*
X216841998Y-99351216D01*
X216816106Y-99365056D01*
X216788015Y-99373577D01*
X216756309Y-99376700D01*
X213657691Y-99376700D01*
X213625985Y-99373577D01*
X213597894Y-99365056D01*
X213572002Y-99351216D01*
X213549308Y-99332592D01*
X213530684Y-99309898D01*
X213516844Y-99284006D01*
X213508323Y-99255915D01*
X213505200Y-99224209D01*
X213505200Y-98827591D01*
X213508323Y-98795885D01*
X213516844Y-98767794D01*
X213530684Y-98741902D01*
X213549308Y-98719208D01*
X213572002Y-98700584D01*
X213597894Y-98686744D01*
X213625985Y-98678223D01*
X213657691Y-98675100D01*
X216756309Y-98675100D01*
X216788015Y-98678223D01*
G37*
G36*
X223135015Y-98678223D02*
G01*
X223163106Y-98686744D01*
X223188998Y-98700584D01*
X223211692Y-98719208D01*
X223230316Y-98741902D01*
X223244156Y-98767794D01*
X223252677Y-98795885D01*
X223255800Y-98827591D01*
X223255800Y-99224209D01*
X223252677Y-99255915D01*
X223244156Y-99284006D01*
X223230316Y-99309898D01*
X223211692Y-99332592D01*
X223188998Y-99351216D01*
X223163106Y-99365056D01*
X223135015Y-99373577D01*
X223103309Y-99376700D01*
X220004691Y-99376700D01*
X219972985Y-99373577D01*
X219944894Y-99365056D01*
X219919002Y-99351216D01*
X219896308Y-99332592D01*
X219877684Y-99309898D01*
X219863844Y-99284006D01*
X219855323Y-99255915D01*
X219852200Y-99224209D01*
X219852200Y-98827591D01*
X219855323Y-98795885D01*
X219863844Y-98767794D01*
X219877684Y-98741902D01*
X219896308Y-98719208D01*
X219919002Y-98700584D01*
X219944894Y-98686744D01*
X219972985Y-98678223D01*
X220004691Y-98675100D01*
X223103309Y-98675100D01*
X223135015Y-98678223D01*
G37*
G36*
X194667015Y-95938923D02*
G01*
X194695106Y-95947444D01*
X194720998Y-95961284D01*
X194743692Y-95979908D01*
X194762316Y-96002602D01*
X194776156Y-96028494D01*
X194784677Y-96056585D01*
X194787800Y-96088291D01*
X194787800Y-99186909D01*
X194784677Y-99218615D01*
X194776156Y-99246706D01*
X194762316Y-99272598D01*
X194743692Y-99295292D01*
X194720998Y-99313916D01*
X194695106Y-99327756D01*
X194667015Y-99336277D01*
X194635309Y-99339400D01*
X194238691Y-99339400D01*
X194206985Y-99336277D01*
X194178894Y-99327756D01*
X194153002Y-99313916D01*
X194130308Y-99295292D01*
X194111684Y-99272598D01*
X194097844Y-99246706D01*
X194089323Y-99218615D01*
X194086200Y-99186909D01*
X194086200Y-96088291D01*
X194089323Y-96056585D01*
X194097844Y-96028494D01*
X194111684Y-96002602D01*
X194130308Y-95979908D01*
X194153002Y-95961284D01*
X194178894Y-95947444D01*
X194206985Y-95938923D01*
X194238691Y-95935800D01*
X194635309Y-95935800D01*
X194667015Y-95938923D01*
G37*
G36*
X162822754Y-97558817D02*
G01*
X162986689Y-97626721D01*
X163134227Y-97725303D01*
X163259697Y-97850773D01*
X163358279Y-97998311D01*
X163426183Y-98162246D01*
X163460800Y-98336279D01*
X163460800Y-98513721D01*
X163426183Y-98687754D01*
X163358279Y-98851689D01*
X163259697Y-98999227D01*
X163134227Y-99124697D01*
X162986689Y-99223279D01*
X162822754Y-99291183D01*
X162648721Y-99325800D01*
X162471279Y-99325800D01*
X162297246Y-99291183D01*
X162133311Y-99223279D01*
X161985773Y-99124697D01*
X161860303Y-98999227D01*
X161761721Y-98851689D01*
X161693817Y-98687754D01*
X161659200Y-98513721D01*
X161659200Y-98336279D01*
X161693817Y-98162246D01*
X161761721Y-97998311D01*
X161860303Y-97850773D01*
X161985773Y-97725303D01*
X162133311Y-97626721D01*
X162297246Y-97558817D01*
X162471279Y-97524200D01*
X162648721Y-97524200D01*
X162822754Y-97558817D01*
G37*
G36*
X201017015Y-95924723D02*
G01*
X201045106Y-95933244D01*
X201070998Y-95947084D01*
X201093692Y-95965708D01*
X201112316Y-95988402D01*
X201126156Y-96014294D01*
X201134677Y-96042385D01*
X201137800Y-96074091D01*
X201137800Y-99172709D01*
X201134677Y-99204415D01*
X201126156Y-99232506D01*
X201112316Y-99258398D01*
X201093692Y-99281092D01*
X201070998Y-99299716D01*
X201045106Y-99313556D01*
X201017015Y-99322077D01*
X200985309Y-99325200D01*
X200588691Y-99325200D01*
X200556985Y-99322077D01*
X200528894Y-99313556D01*
X200503002Y-99299716D01*
X200480308Y-99281092D01*
X200461684Y-99258398D01*
X200447844Y-99232506D01*
X200439323Y-99204415D01*
X200436200Y-99172709D01*
X200436200Y-96074091D01*
X200439323Y-96042385D01*
X200447844Y-96014294D01*
X200461684Y-95988402D01*
X200480308Y-95965708D01*
X200503002Y-95947084D01*
X200528894Y-95933244D01*
X200556985Y-95924723D01*
X200588691Y-95921600D01*
X200985309Y-95921600D01*
X201017015Y-95924723D01*
G37*
G36*
X202287015Y-95924723D02*
G01*
X202315106Y-95933244D01*
X202340998Y-95947084D01*
X202363692Y-95965708D01*
X202382316Y-95988402D01*
X202396156Y-96014294D01*
X202404677Y-96042385D01*
X202407800Y-96074091D01*
X202407800Y-99172709D01*
X202404677Y-99204415D01*
X202396156Y-99232506D01*
X202382316Y-99258398D01*
X202363692Y-99281092D01*
X202340998Y-99299716D01*
X202315106Y-99313556D01*
X202287015Y-99322077D01*
X202255309Y-99325200D01*
X201858691Y-99325200D01*
X201826985Y-99322077D01*
X201798894Y-99313556D01*
X201773002Y-99299716D01*
X201750308Y-99281092D01*
X201731684Y-99258398D01*
X201717844Y-99232506D01*
X201709323Y-99204415D01*
X201706200Y-99172709D01*
X201706200Y-96074091D01*
X201709323Y-96042385D01*
X201717844Y-96014294D01*
X201731684Y-95988402D01*
X201750308Y-95965708D01*
X201773002Y-95947084D01*
X201798894Y-95933244D01*
X201826985Y-95924723D01*
X201858691Y-95921600D01*
X202255309Y-95921600D01*
X202287015Y-95924723D01*
G37*
G36*
X203557015Y-95924723D02*
G01*
X203585106Y-95933244D01*
X203610998Y-95947084D01*
X203633692Y-95965708D01*
X203652316Y-95988402D01*
X203666156Y-96014294D01*
X203674677Y-96042385D01*
X203677800Y-96074091D01*
X203677800Y-99172709D01*
X203674677Y-99204415D01*
X203666156Y-99232506D01*
X203652316Y-99258398D01*
X203633692Y-99281092D01*
X203610998Y-99299716D01*
X203585106Y-99313556D01*
X203557015Y-99322077D01*
X203525309Y-99325200D01*
X203128691Y-99325200D01*
X203096985Y-99322077D01*
X203068894Y-99313556D01*
X203043002Y-99299716D01*
X203020308Y-99281092D01*
X203001684Y-99258398D01*
X202987844Y-99232506D01*
X202979323Y-99204415D01*
X202976200Y-99172709D01*
X202976200Y-96074091D01*
X202979323Y-96042385D01*
X202987844Y-96014294D01*
X203001684Y-95988402D01*
X203020308Y-95965708D01*
X203043002Y-95947084D01*
X203068894Y-95933244D01*
X203096985Y-95924723D01*
X203128691Y-95921600D01*
X203525309Y-95921600D01*
X203557015Y-95924723D01*
G37*
G36*
X199747015Y-95924723D02*
G01*
X199775106Y-95933244D01*
X199800998Y-95947084D01*
X199823692Y-95965708D01*
X199842316Y-95988402D01*
X199856156Y-96014294D01*
X199864677Y-96042385D01*
X199867800Y-96074091D01*
X199867800Y-99172709D01*
X199864677Y-99204415D01*
X199856156Y-99232506D01*
X199842316Y-99258398D01*
X199823692Y-99281092D01*
X199800998Y-99299716D01*
X199775106Y-99313556D01*
X199747015Y-99322077D01*
X199715309Y-99325200D01*
X199318691Y-99325200D01*
X199286985Y-99322077D01*
X199258894Y-99313556D01*
X199233002Y-99299716D01*
X199210308Y-99281092D01*
X199191684Y-99258398D01*
X199177844Y-99232506D01*
X199169323Y-99204415D01*
X199166200Y-99172709D01*
X199166200Y-96074091D01*
X199169323Y-96042385D01*
X199177844Y-96014294D01*
X199191684Y-95988402D01*
X199210308Y-95965708D01*
X199233002Y-95947084D01*
X199258894Y-95933244D01*
X199286985Y-95924723D01*
X199318691Y-95921600D01*
X199715309Y-95921600D01*
X199747015Y-95924723D01*
G37*
G36*
X198477015Y-95924723D02*
G01*
X198505106Y-95933244D01*
X198530998Y-95947084D01*
X198553692Y-95965708D01*
X198572316Y-95988402D01*
X198586156Y-96014294D01*
X198594677Y-96042385D01*
X198597800Y-96074091D01*
X198597800Y-99172709D01*
X198594677Y-99204415D01*
X198586156Y-99232506D01*
X198572316Y-99258398D01*
X198553692Y-99281092D01*
X198530998Y-99299716D01*
X198505106Y-99313556D01*
X198477015Y-99322077D01*
X198445309Y-99325200D01*
X198048691Y-99325200D01*
X198016985Y-99322077D01*
X197988894Y-99313556D01*
X197963002Y-99299716D01*
X197940308Y-99281092D01*
X197921684Y-99258398D01*
X197907844Y-99232506D01*
X197899323Y-99204415D01*
X197896200Y-99172709D01*
X197896200Y-96074091D01*
X197899323Y-96042385D01*
X197907844Y-96014294D01*
X197921684Y-95988402D01*
X197940308Y-95965708D01*
X197963002Y-95947084D01*
X197988894Y-95933244D01*
X198016985Y-95924723D01*
X198048691Y-95921600D01*
X198445309Y-95921600D01*
X198477015Y-95924723D01*
G37*
G36*
X197207015Y-95924723D02*
G01*
X197235106Y-95933244D01*
X197260998Y-95947084D01*
X197283692Y-95965708D01*
X197302316Y-95988402D01*
X197316156Y-96014294D01*
X197324677Y-96042385D01*
X197327800Y-96074091D01*
X197327800Y-99172709D01*
X197324677Y-99204415D01*
X197316156Y-99232506D01*
X197302316Y-99258398D01*
X197283692Y-99281092D01*
X197260998Y-99299716D01*
X197235106Y-99313556D01*
X197207015Y-99322077D01*
X197175309Y-99325200D01*
X196778691Y-99325200D01*
X196746985Y-99322077D01*
X196718894Y-99313556D01*
X196693002Y-99299716D01*
X196670308Y-99281092D01*
X196651684Y-99258398D01*
X196637844Y-99232506D01*
X196629323Y-99204415D01*
X196626200Y-99172709D01*
X196626200Y-96074091D01*
X196629323Y-96042385D01*
X196637844Y-96014294D01*
X196651684Y-95988402D01*
X196670308Y-95965708D01*
X196693002Y-95947084D01*
X196718894Y-95933244D01*
X196746985Y-95924723D01*
X196778691Y-95921600D01*
X197175309Y-95921600D01*
X197207015Y-95924723D01*
G37*
G36*
X195937015Y-95924723D02*
G01*
X195965106Y-95933244D01*
X195990998Y-95947084D01*
X196013692Y-95965708D01*
X196032316Y-95988402D01*
X196046156Y-96014294D01*
X196054677Y-96042385D01*
X196057800Y-96074091D01*
X196057800Y-99172709D01*
X196054677Y-99204415D01*
X196046156Y-99232506D01*
X196032316Y-99258398D01*
X196013692Y-99281092D01*
X195990998Y-99299716D01*
X195965106Y-99313556D01*
X195937015Y-99322077D01*
X195905309Y-99325200D01*
X195508691Y-99325200D01*
X195476985Y-99322077D01*
X195448894Y-99313556D01*
X195423002Y-99299716D01*
X195400308Y-99281092D01*
X195381684Y-99258398D01*
X195367844Y-99232506D01*
X195359323Y-99204415D01*
X195356200Y-99172709D01*
X195356200Y-96074091D01*
X195359323Y-96042385D01*
X195367844Y-96014294D01*
X195381684Y-95988402D01*
X195400308Y-95965708D01*
X195423002Y-95947084D01*
X195448894Y-95933244D01*
X195476985Y-95924723D01*
X195508691Y-95921600D01*
X195905309Y-95921600D01*
X195937015Y-95924723D01*
G37*
G36*
X177926015Y-98543223D02*
G01*
X177954106Y-98551744D01*
X177979998Y-98565584D01*
X178002692Y-98584208D01*
X178021316Y-98606902D01*
X178035156Y-98632794D01*
X178043677Y-98660885D01*
X178046800Y-98692591D01*
X178046800Y-99089209D01*
X178043677Y-99120915D01*
X178035156Y-99149006D01*
X178021316Y-99174898D01*
X178002692Y-99197592D01*
X177979998Y-99216216D01*
X177954106Y-99230056D01*
X177926015Y-99238577D01*
X177894309Y-99241700D01*
X174795691Y-99241700D01*
X174763985Y-99238577D01*
X174735894Y-99230056D01*
X174710002Y-99216216D01*
X174687308Y-99197592D01*
X174668684Y-99174898D01*
X174654844Y-99149006D01*
X174646323Y-99120915D01*
X174643200Y-99089209D01*
X174643200Y-98692591D01*
X174646323Y-98660885D01*
X174654844Y-98632794D01*
X174668684Y-98606902D01*
X174687308Y-98584208D01*
X174710002Y-98565584D01*
X174735894Y-98551744D01*
X174763985Y-98543223D01*
X174795691Y-98540100D01*
X177894309Y-98540100D01*
X177926015Y-98543223D01*
G37*
G36*
X184273015Y-98543223D02*
G01*
X184301106Y-98551744D01*
X184326998Y-98565584D01*
X184349692Y-98584208D01*
X184368316Y-98606902D01*
X184382156Y-98632794D01*
X184390677Y-98660885D01*
X184393800Y-98692591D01*
X184393800Y-99089209D01*
X184390677Y-99120915D01*
X184382156Y-99149006D01*
X184368316Y-99174898D01*
X184349692Y-99197592D01*
X184326998Y-99216216D01*
X184301106Y-99230056D01*
X184273015Y-99238577D01*
X184241309Y-99241700D01*
X181142691Y-99241700D01*
X181110985Y-99238577D01*
X181082894Y-99230056D01*
X181057002Y-99216216D01*
X181034308Y-99197592D01*
X181015684Y-99174898D01*
X181001844Y-99149006D01*
X180993323Y-99120915D01*
X180990200Y-99089209D01*
X180990200Y-98692591D01*
X180993323Y-98660885D01*
X181001844Y-98632794D01*
X181015684Y-98606902D01*
X181034308Y-98584208D01*
X181057002Y-98565584D01*
X181082894Y-98551744D01*
X181110985Y-98543223D01*
X181142691Y-98540100D01*
X184241309Y-98540100D01*
X184273015Y-98543223D01*
G37*
G36*
X216788015Y-97408223D02*
G01*
X216816106Y-97416744D01*
X216841998Y-97430584D01*
X216864692Y-97449208D01*
X216883316Y-97471902D01*
X216897156Y-97497794D01*
X216905677Y-97525885D01*
X216908800Y-97557591D01*
X216908800Y-97954209D01*
X216905677Y-97985915D01*
X216897156Y-98014006D01*
X216883316Y-98039898D01*
X216864692Y-98062592D01*
X216841998Y-98081216D01*
X216816106Y-98095056D01*
X216788015Y-98103577D01*
X216756309Y-98106700D01*
X213657691Y-98106700D01*
X213625985Y-98103577D01*
X213597894Y-98095056D01*
X213572002Y-98081216D01*
X213549308Y-98062592D01*
X213530684Y-98039898D01*
X213516844Y-98014006D01*
X213508323Y-97985915D01*
X213505200Y-97954209D01*
X213505200Y-97557591D01*
X213508323Y-97525885D01*
X213516844Y-97497794D01*
X213530684Y-97471902D01*
X213549308Y-97449208D01*
X213572002Y-97430584D01*
X213597894Y-97416744D01*
X213625985Y-97408223D01*
X213657691Y-97405100D01*
X216756309Y-97405100D01*
X216788015Y-97408223D01*
G37*
G36*
X223135015Y-97408223D02*
G01*
X223163106Y-97416744D01*
X223188998Y-97430584D01*
X223211692Y-97449208D01*
X223230316Y-97471902D01*
X223244156Y-97497794D01*
X223252677Y-97525885D01*
X223255800Y-97557591D01*
X223255800Y-97954209D01*
X223252677Y-97985915D01*
X223244156Y-98014006D01*
X223230316Y-98039898D01*
X223211692Y-98062592D01*
X223188998Y-98081216D01*
X223163106Y-98095056D01*
X223135015Y-98103577D01*
X223103309Y-98106700D01*
X220004691Y-98106700D01*
X219972985Y-98103577D01*
X219944894Y-98095056D01*
X219919002Y-98081216D01*
X219896308Y-98062592D01*
X219877684Y-98039898D01*
X219863844Y-98014006D01*
X219855323Y-97985915D01*
X219852200Y-97954209D01*
X219852200Y-97557591D01*
X219855323Y-97525885D01*
X219863844Y-97497794D01*
X219877684Y-97471902D01*
X219896308Y-97449208D01*
X219919002Y-97430584D01*
X219944894Y-97416744D01*
X219972985Y-97408223D01*
X220004691Y-97405100D01*
X223103309Y-97405100D01*
X223135015Y-97408223D01*
G37*
G36*
X177926015Y-97273223D02*
G01*
X177954106Y-97281744D01*
X177979998Y-97295584D01*
X178002692Y-97314208D01*
X178021316Y-97336902D01*
X178035156Y-97362794D01*
X178043677Y-97390885D01*
X178046800Y-97422591D01*
X178046800Y-97819209D01*
X178043677Y-97850915D01*
X178035156Y-97879006D01*
X178021316Y-97904898D01*
X178002692Y-97927592D01*
X177979998Y-97946216D01*
X177954106Y-97960056D01*
X177926015Y-97968577D01*
X177894309Y-97971700D01*
X174795691Y-97971700D01*
X174763985Y-97968577D01*
X174735894Y-97960056D01*
X174710002Y-97946216D01*
X174687308Y-97927592D01*
X174668684Y-97904898D01*
X174654844Y-97879006D01*
X174646323Y-97850915D01*
X174643200Y-97819209D01*
X174643200Y-97422591D01*
X174646323Y-97390885D01*
X174654844Y-97362794D01*
X174668684Y-97336902D01*
X174687308Y-97314208D01*
X174710002Y-97295584D01*
X174735894Y-97281744D01*
X174763985Y-97273223D01*
X174795691Y-97270100D01*
X177894309Y-97270100D01*
X177926015Y-97273223D01*
G37*
G36*
X184273015Y-97273223D02*
G01*
X184301106Y-97281744D01*
X184326998Y-97295584D01*
X184349692Y-97314208D01*
X184368316Y-97336902D01*
X184382156Y-97362794D01*
X184390677Y-97390885D01*
X184393800Y-97422591D01*
X184393800Y-97819209D01*
X184390677Y-97850915D01*
X184382156Y-97879006D01*
X184368316Y-97904898D01*
X184349692Y-97927592D01*
X184326998Y-97946216D01*
X184301106Y-97960056D01*
X184273015Y-97968577D01*
X184241309Y-97971700D01*
X181142691Y-97971700D01*
X181110985Y-97968577D01*
X181082894Y-97960056D01*
X181057002Y-97946216D01*
X181034308Y-97927592D01*
X181015684Y-97904898D01*
X181001844Y-97879006D01*
X180993323Y-97850915D01*
X180990200Y-97819209D01*
X180990200Y-97422591D01*
X180993323Y-97390885D01*
X181001844Y-97362794D01*
X181015684Y-97336902D01*
X181034308Y-97314208D01*
X181057002Y-97295584D01*
X181082894Y-97281744D01*
X181110985Y-97273223D01*
X181142691Y-97270100D01*
X184241309Y-97270100D01*
X184273015Y-97273223D01*
G37*
G36*
X223136515Y-96201723D02*
G01*
X223164606Y-96210244D01*
X223190498Y-96224084D01*
X223213192Y-96242708D01*
X223231816Y-96265402D01*
X223245656Y-96291294D01*
X223254177Y-96319385D01*
X223257300Y-96351091D01*
X223257300Y-96747709D01*
X223254177Y-96779415D01*
X223245656Y-96807506D01*
X223231816Y-96833398D01*
X223213192Y-96856092D01*
X223190498Y-96874716D01*
X223164606Y-96888556D01*
X223136515Y-96897077D01*
X223104809Y-96900200D01*
X220006191Y-96900200D01*
X219974485Y-96897077D01*
X219946394Y-96888556D01*
X219920502Y-96874716D01*
X219897808Y-96856092D01*
X219879184Y-96833398D01*
X219865344Y-96807506D01*
X219856823Y-96779415D01*
X219853700Y-96747709D01*
X219853700Y-96351091D01*
X219856823Y-96319385D01*
X219865344Y-96291294D01*
X219879184Y-96265402D01*
X219897808Y-96242708D01*
X219920502Y-96224084D01*
X219946394Y-96210244D01*
X219974485Y-96201723D01*
X220006191Y-96198600D01*
X223104809Y-96198600D01*
X223136515Y-96201723D01*
G37*
G36*
X216786515Y-96138223D02*
G01*
X216814606Y-96146744D01*
X216840498Y-96160584D01*
X216863192Y-96179208D01*
X216881816Y-96201902D01*
X216895656Y-96227794D01*
X216904177Y-96255885D01*
X216907300Y-96287591D01*
X216907300Y-96684209D01*
X216904177Y-96715915D01*
X216895656Y-96744006D01*
X216881816Y-96769898D01*
X216863192Y-96792592D01*
X216840498Y-96811216D01*
X216814606Y-96825056D01*
X216786515Y-96833577D01*
X216754809Y-96836700D01*
X213656191Y-96836700D01*
X213624485Y-96833577D01*
X213596394Y-96825056D01*
X213570502Y-96811216D01*
X213547808Y-96792592D01*
X213529184Y-96769898D01*
X213515344Y-96744006D01*
X213506823Y-96715915D01*
X213503700Y-96684209D01*
X213503700Y-96287591D01*
X213506823Y-96255885D01*
X213515344Y-96227794D01*
X213529184Y-96201902D01*
X213547808Y-96179208D01*
X213570502Y-96160584D01*
X213596394Y-96146744D01*
X213624485Y-96138223D01*
X213656191Y-96135100D01*
X216754809Y-96135100D01*
X216786515Y-96138223D01*
G37*
G36*
X162822754Y-95018817D02*
G01*
X162986689Y-95086721D01*
X163134227Y-95185303D01*
X163259697Y-95310773D01*
X163358279Y-95458311D01*
X163426183Y-95622246D01*
X163460800Y-95796279D01*
X163460800Y-95973721D01*
X163426183Y-96147754D01*
X163358279Y-96311689D01*
X163259697Y-96459227D01*
X163134227Y-96584697D01*
X162986689Y-96683279D01*
X162822754Y-96751183D01*
X162648721Y-96785800D01*
X162471279Y-96785800D01*
X162297246Y-96751183D01*
X162133311Y-96683279D01*
X161985773Y-96584697D01*
X161860303Y-96459227D01*
X161761721Y-96311689D01*
X161693817Y-96147754D01*
X161659200Y-95973721D01*
X161659200Y-95796279D01*
X161693817Y-95622246D01*
X161761721Y-95458311D01*
X161860303Y-95310773D01*
X161985773Y-95185303D01*
X162133311Y-95086721D01*
X162297246Y-95018817D01*
X162471279Y-94984200D01*
X162648721Y-94984200D01*
X162822754Y-95018817D01*
G37*
G36*
X177926015Y-96003223D02*
G01*
X177954106Y-96011744D01*
X177979998Y-96025584D01*
X178002692Y-96044208D01*
X178021316Y-96066902D01*
X178035156Y-96092794D01*
X178043677Y-96120885D01*
X178046800Y-96152591D01*
X178046800Y-96549209D01*
X178043677Y-96580915D01*
X178035156Y-96609006D01*
X178021316Y-96634898D01*
X178002692Y-96657592D01*
X177979998Y-96676216D01*
X177954106Y-96690056D01*
X177926015Y-96698577D01*
X177894309Y-96701700D01*
X174795691Y-96701700D01*
X174763985Y-96698577D01*
X174735894Y-96690056D01*
X174710002Y-96676216D01*
X174687308Y-96657592D01*
X174668684Y-96634898D01*
X174654844Y-96609006D01*
X174646323Y-96580915D01*
X174643200Y-96549209D01*
X174643200Y-96152591D01*
X174646323Y-96120885D01*
X174654844Y-96092794D01*
X174668684Y-96066902D01*
X174687308Y-96044208D01*
X174710002Y-96025584D01*
X174735894Y-96011744D01*
X174763985Y-96003223D01*
X174795691Y-96000100D01*
X177894309Y-96000100D01*
X177926015Y-96003223D01*
G37*
G36*
X184273015Y-96003223D02*
G01*
X184301106Y-96011744D01*
X184326998Y-96025584D01*
X184349692Y-96044208D01*
X184368316Y-96066902D01*
X184382156Y-96092794D01*
X184390677Y-96120885D01*
X184393800Y-96152591D01*
X184393800Y-96549209D01*
X184390677Y-96580915D01*
X184382156Y-96609006D01*
X184368316Y-96634898D01*
X184349692Y-96657592D01*
X184326998Y-96676216D01*
X184301106Y-96690056D01*
X184273015Y-96698577D01*
X184241309Y-96701700D01*
X181142691Y-96701700D01*
X181110985Y-96698577D01*
X181082894Y-96690056D01*
X181057002Y-96676216D01*
X181034308Y-96657592D01*
X181015684Y-96634898D01*
X181001844Y-96609006D01*
X180993323Y-96580915D01*
X180990200Y-96549209D01*
X180990200Y-96152591D01*
X180993323Y-96120885D01*
X181001844Y-96092794D01*
X181015684Y-96066902D01*
X181034308Y-96044208D01*
X181057002Y-96025584D01*
X181082894Y-96011744D01*
X181110985Y-96003223D01*
X181142691Y-96000100D01*
X184241309Y-96000100D01*
X184273015Y-96003223D01*
G37*
G36*
X191595815Y-93585049D02*
G01*
X191651504Y-93601942D01*
X191702827Y-93629375D01*
X191747809Y-93666291D01*
X191784725Y-93711273D01*
X191812158Y-93762596D01*
X191829051Y-93818285D01*
X191835000Y-93878686D01*
X191835000Y-95931114D01*
X191829051Y-95991515D01*
X191812158Y-96047204D01*
X191784725Y-96098527D01*
X191747809Y-96143509D01*
X191702827Y-96180425D01*
X191651504Y-96207858D01*
X191595815Y-96224751D01*
X191535414Y-96230700D01*
X190632986Y-96230700D01*
X190572585Y-96224751D01*
X190516896Y-96207858D01*
X190465573Y-96180425D01*
X190420591Y-96143509D01*
X190383675Y-96098527D01*
X190356242Y-96047204D01*
X190339349Y-95991515D01*
X190333400Y-95931114D01*
X190333400Y-93878686D01*
X190339349Y-93818285D01*
X190356242Y-93762596D01*
X190383675Y-93711273D01*
X190420591Y-93666291D01*
X190465573Y-93629375D01*
X190516896Y-93601942D01*
X190572585Y-93585049D01*
X190632986Y-93579100D01*
X191535414Y-93579100D01*
X191595815Y-93585049D01*
G37*
G36*
X162822754Y-92478817D02*
G01*
X162986689Y-92546721D01*
X163134227Y-92645303D01*
X163259697Y-92770773D01*
X163358279Y-92918311D01*
X163426183Y-93082246D01*
X163460800Y-93256279D01*
X163460800Y-93433721D01*
X163426183Y-93607754D01*
X163358279Y-93771689D01*
X163259697Y-93919227D01*
X163134227Y-94044697D01*
X162986689Y-94143279D01*
X162822754Y-94211183D01*
X162648721Y-94245800D01*
X162471279Y-94245800D01*
X162297246Y-94211183D01*
X162133311Y-94143279D01*
X161985773Y-94044697D01*
X161860303Y-93919227D01*
X161761721Y-93771689D01*
X161693817Y-93607754D01*
X161659200Y-93433721D01*
X161659200Y-93256279D01*
X161693817Y-93082246D01*
X161761721Y-92918311D01*
X161860303Y-92770773D01*
X161985773Y-92645303D01*
X162133311Y-92546721D01*
X162297246Y-92478817D01*
X162471279Y-92444200D01*
X162648721Y-92444200D01*
X162822754Y-92478817D01*
G37*
G36*
X203557015Y-89704723D02*
G01*
X203585106Y-89713244D01*
X203610998Y-89727084D01*
X203633692Y-89745708D01*
X203652316Y-89768402D01*
X203666156Y-89794294D01*
X203674677Y-89822385D01*
X203677800Y-89854091D01*
X203677800Y-92952709D01*
X203674677Y-92984415D01*
X203666156Y-93012506D01*
X203652316Y-93038398D01*
X203633692Y-93061092D01*
X203610998Y-93079716D01*
X203585106Y-93093556D01*
X203557015Y-93102077D01*
X203525309Y-93105200D01*
X203128691Y-93105200D01*
X203096985Y-93102077D01*
X203068894Y-93093556D01*
X203043002Y-93079716D01*
X203020308Y-93061092D01*
X203001684Y-93038398D01*
X202987844Y-93012506D01*
X202979323Y-92984415D01*
X202976200Y-92952709D01*
X202976200Y-89854091D01*
X202979323Y-89822385D01*
X202987844Y-89794294D01*
X203001684Y-89768402D01*
X203020308Y-89745708D01*
X203043002Y-89727084D01*
X203068894Y-89713244D01*
X203096985Y-89704723D01*
X203128691Y-89701600D01*
X203525309Y-89701600D01*
X203557015Y-89704723D01*
G37*
G36*
X202287015Y-89704723D02*
G01*
X202315106Y-89713244D01*
X202340998Y-89727084D01*
X202363692Y-89745708D01*
X202382316Y-89768402D01*
X202396156Y-89794294D01*
X202404677Y-89822385D01*
X202407800Y-89854091D01*
X202407800Y-92952709D01*
X202404677Y-92984415D01*
X202396156Y-93012506D01*
X202382316Y-93038398D01*
X202363692Y-93061092D01*
X202340998Y-93079716D01*
X202315106Y-93093556D01*
X202287015Y-93102077D01*
X202255309Y-93105200D01*
X201858691Y-93105200D01*
X201826985Y-93102077D01*
X201798894Y-93093556D01*
X201773002Y-93079716D01*
X201750308Y-93061092D01*
X201731684Y-93038398D01*
X201717844Y-93012506D01*
X201709323Y-92984415D01*
X201706200Y-92952709D01*
X201706200Y-89854091D01*
X201709323Y-89822385D01*
X201717844Y-89794294D01*
X201731684Y-89768402D01*
X201750308Y-89745708D01*
X201773002Y-89727084D01*
X201798894Y-89713244D01*
X201826985Y-89704723D01*
X201858691Y-89701600D01*
X202255309Y-89701600D01*
X202287015Y-89704723D01*
G37*
G36*
X201017015Y-89704723D02*
G01*
X201045106Y-89713244D01*
X201070998Y-89727084D01*
X201093692Y-89745708D01*
X201112316Y-89768402D01*
X201126156Y-89794294D01*
X201134677Y-89822385D01*
X201137800Y-89854091D01*
X201137800Y-92952709D01*
X201134677Y-92984415D01*
X201126156Y-93012506D01*
X201112316Y-93038398D01*
X201093692Y-93061092D01*
X201070998Y-93079716D01*
X201045106Y-93093556D01*
X201017015Y-93102077D01*
X200985309Y-93105200D01*
X200588691Y-93105200D01*
X200556985Y-93102077D01*
X200528894Y-93093556D01*
X200503002Y-93079716D01*
X200480308Y-93061092D01*
X200461684Y-93038398D01*
X200447844Y-93012506D01*
X200439323Y-92984415D01*
X200436200Y-92952709D01*
X200436200Y-89854091D01*
X200439323Y-89822385D01*
X200447844Y-89794294D01*
X200461684Y-89768402D01*
X200480308Y-89745708D01*
X200503002Y-89727084D01*
X200528894Y-89713244D01*
X200556985Y-89704723D01*
X200588691Y-89701600D01*
X200985309Y-89701600D01*
X201017015Y-89704723D01*
G37*
G36*
X199747015Y-89704723D02*
G01*
X199775106Y-89713244D01*
X199800998Y-89727084D01*
X199823692Y-89745708D01*
X199842316Y-89768402D01*
X199856156Y-89794294D01*
X199864677Y-89822385D01*
X199867800Y-89854091D01*
X199867800Y-92952709D01*
X199864677Y-92984415D01*
X199856156Y-93012506D01*
X199842316Y-93038398D01*
X199823692Y-93061092D01*
X199800998Y-93079716D01*
X199775106Y-93093556D01*
X199747015Y-93102077D01*
X199715309Y-93105200D01*
X199318691Y-93105200D01*
X199286985Y-93102077D01*
X199258894Y-93093556D01*
X199233002Y-93079716D01*
X199210308Y-93061092D01*
X199191684Y-93038398D01*
X199177844Y-93012506D01*
X199169323Y-92984415D01*
X199166200Y-92952709D01*
X199166200Y-89854091D01*
X199169323Y-89822385D01*
X199177844Y-89794294D01*
X199191684Y-89768402D01*
X199210308Y-89745708D01*
X199233002Y-89727084D01*
X199258894Y-89713244D01*
X199286985Y-89704723D01*
X199318691Y-89701600D01*
X199715309Y-89701600D01*
X199747015Y-89704723D01*
G37*
G36*
X198477015Y-89704723D02*
G01*
X198505106Y-89713244D01*
X198530998Y-89727084D01*
X198553692Y-89745708D01*
X198572316Y-89768402D01*
X198586156Y-89794294D01*
X198594677Y-89822385D01*
X198597800Y-89854091D01*
X198597800Y-92952709D01*
X198594677Y-92984415D01*
X198586156Y-93012506D01*
X198572316Y-93038398D01*
X198553692Y-93061092D01*
X198530998Y-93079716D01*
X198505106Y-93093556D01*
X198477015Y-93102077D01*
X198445309Y-93105200D01*
X198048691Y-93105200D01*
X198016985Y-93102077D01*
X197988894Y-93093556D01*
X197963002Y-93079716D01*
X197940308Y-93061092D01*
X197921684Y-93038398D01*
X197907844Y-93012506D01*
X197899323Y-92984415D01*
X197896200Y-92952709D01*
X197896200Y-89854091D01*
X197899323Y-89822385D01*
X197907844Y-89794294D01*
X197921684Y-89768402D01*
X197940308Y-89745708D01*
X197963002Y-89727084D01*
X197988894Y-89713244D01*
X198016985Y-89704723D01*
X198048691Y-89701600D01*
X198445309Y-89701600D01*
X198477015Y-89704723D01*
G37*
G36*
X197207015Y-89704723D02*
G01*
X197235106Y-89713244D01*
X197260998Y-89727084D01*
X197283692Y-89745708D01*
X197302316Y-89768402D01*
X197316156Y-89794294D01*
X197324677Y-89822385D01*
X197327800Y-89854091D01*
X197327800Y-92952709D01*
X197324677Y-92984415D01*
X197316156Y-93012506D01*
X197302316Y-93038398D01*
X197283692Y-93061092D01*
X197260998Y-93079716D01*
X197235106Y-93093556D01*
X197207015Y-93102077D01*
X197175309Y-93105200D01*
X196778691Y-93105200D01*
X196746985Y-93102077D01*
X196718894Y-93093556D01*
X196693002Y-93079716D01*
X196670308Y-93061092D01*
X196651684Y-93038398D01*
X196637844Y-93012506D01*
X196629323Y-92984415D01*
X196626200Y-92952709D01*
X196626200Y-89854091D01*
X196629323Y-89822385D01*
X196637844Y-89794294D01*
X196651684Y-89768402D01*
X196670308Y-89745708D01*
X196693002Y-89727084D01*
X196718894Y-89713244D01*
X196746985Y-89704723D01*
X196778691Y-89701600D01*
X197175309Y-89701600D01*
X197207015Y-89704723D01*
G37*
G36*
X195937015Y-89704723D02*
G01*
X195965106Y-89713244D01*
X195990998Y-89727084D01*
X196013692Y-89745708D01*
X196032316Y-89768402D01*
X196046156Y-89794294D01*
X196054677Y-89822385D01*
X196057800Y-89854091D01*
X196057800Y-92952709D01*
X196054677Y-92984415D01*
X196046156Y-93012506D01*
X196032316Y-93038398D01*
X196013692Y-93061092D01*
X195990998Y-93079716D01*
X195965106Y-93093556D01*
X195937015Y-93102077D01*
X195905309Y-93105200D01*
X195508691Y-93105200D01*
X195476985Y-93102077D01*
X195448894Y-93093556D01*
X195423002Y-93079716D01*
X195400308Y-93061092D01*
X195381684Y-93038398D01*
X195367844Y-93012506D01*
X195359323Y-92984415D01*
X195356200Y-92952709D01*
X195356200Y-89854091D01*
X195359323Y-89822385D01*
X195367844Y-89794294D01*
X195381684Y-89768402D01*
X195400308Y-89745708D01*
X195423002Y-89727084D01*
X195448894Y-89713244D01*
X195476985Y-89704723D01*
X195508691Y-89701600D01*
X195905309Y-89701600D01*
X195937015Y-89704723D01*
G37*
G36*
X194667015Y-89703223D02*
G01*
X194695106Y-89711744D01*
X194720998Y-89725584D01*
X194743692Y-89744208D01*
X194762316Y-89766902D01*
X194776156Y-89792794D01*
X194784677Y-89820885D01*
X194787800Y-89852591D01*
X194787800Y-92951209D01*
X194784677Y-92982915D01*
X194776156Y-93011006D01*
X194762316Y-93036898D01*
X194743692Y-93059592D01*
X194720998Y-93078216D01*
X194695106Y-93092056D01*
X194667015Y-93100577D01*
X194635309Y-93103700D01*
X194238691Y-93103700D01*
X194206985Y-93100577D01*
X194178894Y-93092056D01*
X194153002Y-93078216D01*
X194130308Y-93059592D01*
X194111684Y-93036898D01*
X194097844Y-93011006D01*
X194089323Y-92982915D01*
X194086200Y-92951209D01*
X194086200Y-89852591D01*
X194089323Y-89820885D01*
X194097844Y-89792794D01*
X194111684Y-89766902D01*
X194130308Y-89744208D01*
X194153002Y-89725584D01*
X194178894Y-89711744D01*
X194206985Y-89703223D01*
X194238691Y-89700100D01*
X194635309Y-89700100D01*
X194667015Y-89703223D01*
G37*
G36*
X216788015Y-92328223D02*
G01*
X216816106Y-92336744D01*
X216841998Y-92350584D01*
X216864692Y-92369208D01*
X216883316Y-92391902D01*
X216897156Y-92417794D01*
X216905677Y-92445885D01*
X216908800Y-92477591D01*
X216908800Y-92874209D01*
X216905677Y-92905915D01*
X216897156Y-92934006D01*
X216883316Y-92959898D01*
X216864692Y-92982592D01*
X216841998Y-93001216D01*
X216816106Y-93015056D01*
X216788015Y-93023577D01*
X216756309Y-93026700D01*
X213657691Y-93026700D01*
X213625985Y-93023577D01*
X213597894Y-93015056D01*
X213572002Y-93001216D01*
X213549308Y-92982592D01*
X213530684Y-92959898D01*
X213516844Y-92934006D01*
X213508323Y-92905915D01*
X213505200Y-92874209D01*
X213505200Y-92477591D01*
X213508323Y-92445885D01*
X213516844Y-92417794D01*
X213530684Y-92391902D01*
X213549308Y-92369208D01*
X213572002Y-92350584D01*
X213597894Y-92336744D01*
X213625985Y-92328223D01*
X213657691Y-92325100D01*
X216756309Y-92325100D01*
X216788015Y-92328223D01*
G37*
G36*
X223135015Y-92328223D02*
G01*
X223163106Y-92336744D01*
X223188998Y-92350584D01*
X223211692Y-92369208D01*
X223230316Y-92391902D01*
X223244156Y-92417794D01*
X223252677Y-92445885D01*
X223255800Y-92477591D01*
X223255800Y-92874209D01*
X223252677Y-92905915D01*
X223244156Y-92934006D01*
X223230316Y-92959898D01*
X223211692Y-92982592D01*
X223188998Y-93001216D01*
X223163106Y-93015056D01*
X223135015Y-93023577D01*
X223103309Y-93026700D01*
X220004691Y-93026700D01*
X219972985Y-93023577D01*
X219944894Y-93015056D01*
X219919002Y-93001216D01*
X219896308Y-92982592D01*
X219877684Y-92959898D01*
X219863844Y-92934006D01*
X219855323Y-92905915D01*
X219852200Y-92874209D01*
X219852200Y-92477591D01*
X219855323Y-92445885D01*
X219863844Y-92417794D01*
X219877684Y-92391902D01*
X219896308Y-92369208D01*
X219919002Y-92350584D01*
X219944894Y-92336744D01*
X219972985Y-92328223D01*
X220004691Y-92325100D01*
X223103309Y-92325100D01*
X223135015Y-92328223D01*
G37*
G36*
X184274515Y-92193223D02*
G01*
X184302606Y-92201744D01*
X184328498Y-92215584D01*
X184351192Y-92234208D01*
X184369816Y-92256902D01*
X184383656Y-92282794D01*
X184392177Y-92310885D01*
X184395300Y-92342591D01*
X184395300Y-92739209D01*
X184392177Y-92770915D01*
X184383656Y-92799006D01*
X184369816Y-92824898D01*
X184351192Y-92847592D01*
X184328498Y-92866216D01*
X184302606Y-92880056D01*
X184274515Y-92888577D01*
X184242809Y-92891700D01*
X181144191Y-92891700D01*
X181112485Y-92888577D01*
X181084394Y-92880056D01*
X181058502Y-92866216D01*
X181035808Y-92847592D01*
X181017184Y-92824898D01*
X181003344Y-92799006D01*
X180994823Y-92770915D01*
X180991700Y-92739209D01*
X180991700Y-92342591D01*
X180994823Y-92310885D01*
X181003344Y-92282794D01*
X181017184Y-92256902D01*
X181035808Y-92234208D01*
X181058502Y-92215584D01*
X181084394Y-92201744D01*
X181112485Y-92193223D01*
X181144191Y-92190100D01*
X184242809Y-92190100D01*
X184274515Y-92193223D01*
G37*
G36*
X177924515Y-92129723D02*
G01*
X177952606Y-92138244D01*
X177978498Y-92152084D01*
X178001192Y-92170708D01*
X178019816Y-92193402D01*
X178033656Y-92219294D01*
X178042177Y-92247385D01*
X178045300Y-92279091D01*
X178045300Y-92675709D01*
X178042177Y-92707415D01*
X178033656Y-92735506D01*
X178019816Y-92761398D01*
X178001192Y-92784092D01*
X177978498Y-92802716D01*
X177952606Y-92816556D01*
X177924515Y-92825077D01*
X177892809Y-92828200D01*
X174794191Y-92828200D01*
X174762485Y-92825077D01*
X174734394Y-92816556D01*
X174708502Y-92802716D01*
X174685808Y-92784092D01*
X174667184Y-92761398D01*
X174653344Y-92735506D01*
X174644823Y-92707415D01*
X174641700Y-92675709D01*
X174641700Y-92279091D01*
X174644823Y-92247385D01*
X174653344Y-92219294D01*
X174667184Y-92193402D01*
X174685808Y-92170708D01*
X174708502Y-92152084D01*
X174734394Y-92138244D01*
X174762485Y-92129723D01*
X174794191Y-92126600D01*
X177892809Y-92126600D01*
X177924515Y-92129723D01*
G37*
G36*
X191595815Y-90135049D02*
G01*
X191651504Y-90151942D01*
X191702827Y-90179375D01*
X191747809Y-90216291D01*
X191784725Y-90261273D01*
X191812158Y-90312596D01*
X191829051Y-90368285D01*
X191835000Y-90428686D01*
X191835000Y-92481114D01*
X191829051Y-92541515D01*
X191812158Y-92597204D01*
X191784725Y-92648527D01*
X191747809Y-92693509D01*
X191702827Y-92730425D01*
X191651504Y-92757858D01*
X191595815Y-92774751D01*
X191535414Y-92780700D01*
X190632986Y-92780700D01*
X190572585Y-92774751D01*
X190516896Y-92757858D01*
X190465573Y-92730425D01*
X190420591Y-92693509D01*
X190383675Y-92648527D01*
X190356242Y-92597204D01*
X190339349Y-92541515D01*
X190333400Y-92481114D01*
X190333400Y-90428686D01*
X190339349Y-90368285D01*
X190356242Y-90312596D01*
X190383675Y-90261273D01*
X190420591Y-90216291D01*
X190465573Y-90179375D01*
X190516896Y-90151942D01*
X190572585Y-90135049D01*
X190632986Y-90129100D01*
X191535414Y-90129100D01*
X191595815Y-90135049D01*
G37*
G36*
X216788015Y-91058223D02*
G01*
X216816106Y-91066744D01*
X216841998Y-91080584D01*
X216864692Y-91099208D01*
X216883316Y-91121902D01*
X216897156Y-91147794D01*
X216905677Y-91175885D01*
X216908800Y-91207591D01*
X216908800Y-91604209D01*
X216905677Y-91635915D01*
X216897156Y-91664006D01*
X216883316Y-91689898D01*
X216864692Y-91712592D01*
X216841998Y-91731216D01*
X216816106Y-91745056D01*
X216788015Y-91753577D01*
X216756309Y-91756700D01*
X213657691Y-91756700D01*
X213625985Y-91753577D01*
X213597894Y-91745056D01*
X213572002Y-91731216D01*
X213549308Y-91712592D01*
X213530684Y-91689898D01*
X213516844Y-91664006D01*
X213508323Y-91635915D01*
X213505200Y-91604209D01*
X213505200Y-91207591D01*
X213508323Y-91175885D01*
X213516844Y-91147794D01*
X213530684Y-91121902D01*
X213549308Y-91099208D01*
X213572002Y-91080584D01*
X213597894Y-91066744D01*
X213625985Y-91058223D01*
X213657691Y-91055100D01*
X216756309Y-91055100D01*
X216788015Y-91058223D01*
G37*
G36*
X223135015Y-91058223D02*
G01*
X223163106Y-91066744D01*
X223188998Y-91080584D01*
X223211692Y-91099208D01*
X223230316Y-91121902D01*
X223244156Y-91147794D01*
X223252677Y-91175885D01*
X223255800Y-91207591D01*
X223255800Y-91604209D01*
X223252677Y-91635915D01*
X223244156Y-91664006D01*
X223230316Y-91689898D01*
X223211692Y-91712592D01*
X223188998Y-91731216D01*
X223163106Y-91745056D01*
X223135015Y-91753577D01*
X223103309Y-91756700D01*
X220004691Y-91756700D01*
X219972985Y-91753577D01*
X219944894Y-91745056D01*
X219919002Y-91731216D01*
X219896308Y-91712592D01*
X219877684Y-91689898D01*
X219863844Y-91664006D01*
X219855323Y-91635915D01*
X219852200Y-91604209D01*
X219852200Y-91207591D01*
X219855323Y-91175885D01*
X219863844Y-91147794D01*
X219877684Y-91121902D01*
X219896308Y-91099208D01*
X219919002Y-91080584D01*
X219944894Y-91066744D01*
X219972985Y-91058223D01*
X220004691Y-91055100D01*
X223103309Y-91055100D01*
X223135015Y-91058223D01*
G37*
G36*
X162822754Y-89938817D02*
G01*
X162986689Y-90006721D01*
X163134227Y-90105303D01*
X163259697Y-90230773D01*
X163358279Y-90378311D01*
X163426183Y-90542246D01*
X163460800Y-90716279D01*
X163460800Y-90893721D01*
X163426183Y-91067754D01*
X163358279Y-91231689D01*
X163259697Y-91379227D01*
X163134227Y-91504697D01*
X162986689Y-91603279D01*
X162822754Y-91671183D01*
X162648721Y-91705800D01*
X162471279Y-91705800D01*
X162297246Y-91671183D01*
X162133311Y-91603279D01*
X161985773Y-91504697D01*
X161860303Y-91379227D01*
X161761721Y-91231689D01*
X161693817Y-91067754D01*
X161659200Y-90893721D01*
X161659200Y-90716279D01*
X161693817Y-90542246D01*
X161761721Y-90378311D01*
X161860303Y-90230773D01*
X161985773Y-90105303D01*
X162133311Y-90006721D01*
X162297246Y-89938817D01*
X162471279Y-89904200D01*
X162648721Y-89904200D01*
X162822754Y-89938817D01*
G37*
G36*
X184273015Y-90923223D02*
G01*
X184301106Y-90931744D01*
X184326998Y-90945584D01*
X184349692Y-90964208D01*
X184368316Y-90986902D01*
X184382156Y-91012794D01*
X184390677Y-91040885D01*
X184393800Y-91072591D01*
X184393800Y-91469209D01*
X184390677Y-91500915D01*
X184382156Y-91529006D01*
X184368316Y-91554898D01*
X184349692Y-91577592D01*
X184326998Y-91596216D01*
X184301106Y-91610056D01*
X184273015Y-91618577D01*
X184241309Y-91621700D01*
X181142691Y-91621700D01*
X181110985Y-91618577D01*
X181082894Y-91610056D01*
X181057002Y-91596216D01*
X181034308Y-91577592D01*
X181015684Y-91554898D01*
X181001844Y-91529006D01*
X180993323Y-91500915D01*
X180990200Y-91469209D01*
X180990200Y-91072591D01*
X180993323Y-91040885D01*
X181001844Y-91012794D01*
X181015684Y-90986902D01*
X181034308Y-90964208D01*
X181057002Y-90945584D01*
X181082894Y-90931744D01*
X181110985Y-90923223D01*
X181142691Y-90920100D01*
X184241309Y-90920100D01*
X184273015Y-90923223D01*
G37*
G36*
X177926015Y-90923223D02*
G01*
X177954106Y-90931744D01*
X177979998Y-90945584D01*
X178002692Y-90964208D01*
X178021316Y-90986902D01*
X178035156Y-91012794D01*
X178043677Y-91040885D01*
X178046800Y-91072591D01*
X178046800Y-91469209D01*
X178043677Y-91500915D01*
X178035156Y-91529006D01*
X178021316Y-91554898D01*
X178002692Y-91577592D01*
X177979998Y-91596216D01*
X177954106Y-91610056D01*
X177926015Y-91618577D01*
X177894309Y-91621700D01*
X174795691Y-91621700D01*
X174763985Y-91618577D01*
X174735894Y-91610056D01*
X174710002Y-91596216D01*
X174687308Y-91577592D01*
X174668684Y-91554898D01*
X174654844Y-91529006D01*
X174646323Y-91500915D01*
X174643200Y-91469209D01*
X174643200Y-91072591D01*
X174646323Y-91040885D01*
X174654844Y-91012794D01*
X174668684Y-90986902D01*
X174687308Y-90964208D01*
X174710002Y-90945584D01*
X174735894Y-90931744D01*
X174763985Y-90923223D01*
X174795691Y-90920100D01*
X177894309Y-90920100D01*
X177926015Y-90923223D01*
G37*
G36*
X216788015Y-89788223D02*
G01*
X216816106Y-89796744D01*
X216841998Y-89810584D01*
X216864692Y-89829208D01*
X216883316Y-89851902D01*
X216897156Y-89877794D01*
X216905677Y-89905885D01*
X216908800Y-89937591D01*
X216908800Y-90334209D01*
X216905677Y-90365915D01*
X216897156Y-90394006D01*
X216883316Y-90419898D01*
X216864692Y-90442592D01*
X216841998Y-90461216D01*
X216816106Y-90475056D01*
X216788015Y-90483577D01*
X216756309Y-90486700D01*
X213657691Y-90486700D01*
X213625985Y-90483577D01*
X213597894Y-90475056D01*
X213572002Y-90461216D01*
X213549308Y-90442592D01*
X213530684Y-90419898D01*
X213516844Y-90394006D01*
X213508323Y-90365915D01*
X213505200Y-90334209D01*
X213505200Y-89937591D01*
X213508323Y-89905885D01*
X213516844Y-89877794D01*
X213530684Y-89851902D01*
X213549308Y-89829208D01*
X213572002Y-89810584D01*
X213597894Y-89796744D01*
X213625985Y-89788223D01*
X213657691Y-89785100D01*
X216756309Y-89785100D01*
X216788015Y-89788223D01*
G37*
G36*
X223135015Y-89788223D02*
G01*
X223163106Y-89796744D01*
X223188998Y-89810584D01*
X223211692Y-89829208D01*
X223230316Y-89851902D01*
X223244156Y-89877794D01*
X223252677Y-89905885D01*
X223255800Y-89937591D01*
X223255800Y-90334209D01*
X223252677Y-90365915D01*
X223244156Y-90394006D01*
X223230316Y-90419898D01*
X223211692Y-90442592D01*
X223188998Y-90461216D01*
X223163106Y-90475056D01*
X223135015Y-90483577D01*
X223103309Y-90486700D01*
X220004691Y-90486700D01*
X219972985Y-90483577D01*
X219944894Y-90475056D01*
X219919002Y-90461216D01*
X219896308Y-90442592D01*
X219877684Y-90419898D01*
X219863844Y-90394006D01*
X219855323Y-90365915D01*
X219852200Y-90334209D01*
X219852200Y-89937591D01*
X219855323Y-89905885D01*
X219863844Y-89877794D01*
X219877684Y-89851902D01*
X219896308Y-89829208D01*
X219919002Y-89810584D01*
X219944894Y-89796744D01*
X219972985Y-89788223D01*
X220004691Y-89785100D01*
X223103309Y-89785100D01*
X223135015Y-89788223D01*
G37*
G36*
X177926015Y-89653223D02*
G01*
X177954106Y-89661744D01*
X177979998Y-89675584D01*
X178002692Y-89694208D01*
X178021316Y-89716902D01*
X178035156Y-89742794D01*
X178043677Y-89770885D01*
X178046800Y-89802591D01*
X178046800Y-90199209D01*
X178043677Y-90230915D01*
X178035156Y-90259006D01*
X178021316Y-90284898D01*
X178002692Y-90307592D01*
X177979998Y-90326216D01*
X177954106Y-90340056D01*
X177926015Y-90348577D01*
X177894309Y-90351700D01*
X174795691Y-90351700D01*
X174763985Y-90348577D01*
X174735894Y-90340056D01*
X174710002Y-90326216D01*
X174687308Y-90307592D01*
X174668684Y-90284898D01*
X174654844Y-90259006D01*
X174646323Y-90230915D01*
X174643200Y-90199209D01*
X174643200Y-89802591D01*
X174646323Y-89770885D01*
X174654844Y-89742794D01*
X174668684Y-89716902D01*
X174687308Y-89694208D01*
X174710002Y-89675584D01*
X174735894Y-89661744D01*
X174763985Y-89653223D01*
X174795691Y-89650100D01*
X177894309Y-89650100D01*
X177926015Y-89653223D01*
G37*
G36*
X184273015Y-89653223D02*
G01*
X184301106Y-89661744D01*
X184326998Y-89675584D01*
X184349692Y-89694208D01*
X184368316Y-89716902D01*
X184382156Y-89742794D01*
X184390677Y-89770885D01*
X184393800Y-89802591D01*
X184393800Y-90199209D01*
X184390677Y-90230915D01*
X184382156Y-90259006D01*
X184368316Y-90284898D01*
X184349692Y-90307592D01*
X184326998Y-90326216D01*
X184301106Y-90340056D01*
X184273015Y-90348577D01*
X184241309Y-90351700D01*
X181142691Y-90351700D01*
X181110985Y-90348577D01*
X181082894Y-90340056D01*
X181057002Y-90326216D01*
X181034308Y-90307592D01*
X181015684Y-90284898D01*
X181001844Y-90259006D01*
X180993323Y-90230915D01*
X180990200Y-90199209D01*
X180990200Y-89802591D01*
X180993323Y-89770885D01*
X181001844Y-89742794D01*
X181015684Y-89716902D01*
X181034308Y-89694208D01*
X181057002Y-89675584D01*
X181082894Y-89661744D01*
X181110985Y-89653223D01*
X181142691Y-89650100D01*
X184241309Y-89650100D01*
X184273015Y-89653223D01*
G37*
G36*
X223136515Y-88581723D02*
G01*
X223164606Y-88590244D01*
X223190498Y-88604084D01*
X223213192Y-88622708D01*
X223231816Y-88645402D01*
X223245656Y-88671294D01*
X223254177Y-88699385D01*
X223257300Y-88731091D01*
X223257300Y-89127709D01*
X223254177Y-89159415D01*
X223245656Y-89187506D01*
X223231816Y-89213398D01*
X223213192Y-89236092D01*
X223190498Y-89254716D01*
X223164606Y-89268556D01*
X223136515Y-89277077D01*
X223104809Y-89280200D01*
X220006191Y-89280200D01*
X219974485Y-89277077D01*
X219946394Y-89268556D01*
X219920502Y-89254716D01*
X219897808Y-89236092D01*
X219879184Y-89213398D01*
X219865344Y-89187506D01*
X219856823Y-89159415D01*
X219853700Y-89127709D01*
X219853700Y-88731091D01*
X219856823Y-88699385D01*
X219865344Y-88671294D01*
X219879184Y-88645402D01*
X219897808Y-88622708D01*
X219920502Y-88604084D01*
X219946394Y-88590244D01*
X219974485Y-88581723D01*
X220006191Y-88578600D01*
X223104809Y-88578600D01*
X223136515Y-88581723D01*
G37*
G36*
X216786515Y-88518223D02*
G01*
X216814606Y-88526744D01*
X216840498Y-88540584D01*
X216863192Y-88559208D01*
X216881816Y-88581902D01*
X216895656Y-88607794D01*
X216904177Y-88635885D01*
X216907300Y-88667591D01*
X216907300Y-89064209D01*
X216904177Y-89095915D01*
X216895656Y-89124006D01*
X216881816Y-89149898D01*
X216863192Y-89172592D01*
X216840498Y-89191216D01*
X216814606Y-89205056D01*
X216786515Y-89213577D01*
X216754809Y-89216700D01*
X213656191Y-89216700D01*
X213624485Y-89213577D01*
X213596394Y-89205056D01*
X213570502Y-89191216D01*
X213547808Y-89172592D01*
X213529184Y-89149898D01*
X213515344Y-89124006D01*
X213506823Y-89095915D01*
X213503700Y-89064209D01*
X213503700Y-88667591D01*
X213506823Y-88635885D01*
X213515344Y-88607794D01*
X213529184Y-88581902D01*
X213547808Y-88559208D01*
X213570502Y-88540584D01*
X213596394Y-88526744D01*
X213624485Y-88518223D01*
X213656191Y-88515100D01*
X216754809Y-88515100D01*
X216786515Y-88518223D01*
G37*
G36*
X162822754Y-87398817D02*
G01*
X162986689Y-87466721D01*
X163134227Y-87565303D01*
X163259697Y-87690773D01*
X163358279Y-87838311D01*
X163426183Y-88002246D01*
X163460800Y-88176279D01*
X163460800Y-88353721D01*
X163426183Y-88527754D01*
X163358279Y-88691689D01*
X163259697Y-88839227D01*
X163134227Y-88964697D01*
X162986689Y-89063279D01*
X162822754Y-89131183D01*
X162648721Y-89165800D01*
X162471279Y-89165800D01*
X162297246Y-89131183D01*
X162133311Y-89063279D01*
X161985773Y-88964697D01*
X161860303Y-88839227D01*
X161761721Y-88691689D01*
X161693817Y-88527754D01*
X161659200Y-88353721D01*
X161659200Y-88176279D01*
X161693817Y-88002246D01*
X161761721Y-87838311D01*
X161860303Y-87690773D01*
X161985773Y-87565303D01*
X162133311Y-87466721D01*
X162297246Y-87398817D01*
X162471279Y-87364200D01*
X162648721Y-87364200D01*
X162822754Y-87398817D01*
G37*
G36*
X184273015Y-88383223D02*
G01*
X184301106Y-88391744D01*
X184326998Y-88405584D01*
X184349692Y-88424208D01*
X184368316Y-88446902D01*
X184382156Y-88472794D01*
X184390677Y-88500885D01*
X184393800Y-88532591D01*
X184393800Y-88929209D01*
X184390677Y-88960915D01*
X184382156Y-88989006D01*
X184368316Y-89014898D01*
X184349692Y-89037592D01*
X184326998Y-89056216D01*
X184301106Y-89070056D01*
X184273015Y-89078577D01*
X184241309Y-89081700D01*
X181142691Y-89081700D01*
X181110985Y-89078577D01*
X181082894Y-89070056D01*
X181057002Y-89056216D01*
X181034308Y-89037592D01*
X181015684Y-89014898D01*
X181001844Y-88989006D01*
X180993323Y-88960915D01*
X180990200Y-88929209D01*
X180990200Y-88532591D01*
X180993323Y-88500885D01*
X181001844Y-88472794D01*
X181015684Y-88446902D01*
X181034308Y-88424208D01*
X181057002Y-88405584D01*
X181082894Y-88391744D01*
X181110985Y-88383223D01*
X181142691Y-88380100D01*
X184241309Y-88380100D01*
X184273015Y-88383223D01*
G37*
G36*
X177926015Y-88383223D02*
G01*
X177954106Y-88391744D01*
X177979998Y-88405584D01*
X178002692Y-88424208D01*
X178021316Y-88446902D01*
X178035156Y-88472794D01*
X178043677Y-88500885D01*
X178046800Y-88532591D01*
X178046800Y-88929209D01*
X178043677Y-88960915D01*
X178035156Y-88989006D01*
X178021316Y-89014898D01*
X178002692Y-89037592D01*
X177979998Y-89056216D01*
X177954106Y-89070056D01*
X177926015Y-89078577D01*
X177894309Y-89081700D01*
X174795691Y-89081700D01*
X174763985Y-89078577D01*
X174735894Y-89070056D01*
X174710002Y-89056216D01*
X174687308Y-89037592D01*
X174668684Y-89014898D01*
X174654844Y-88989006D01*
X174646323Y-88960915D01*
X174643200Y-88929209D01*
X174643200Y-88532591D01*
X174646323Y-88500885D01*
X174654844Y-88472794D01*
X174668684Y-88446902D01*
X174687308Y-88424208D01*
X174710002Y-88405584D01*
X174735894Y-88391744D01*
X174763985Y-88383223D01*
X174795691Y-88380100D01*
X177894309Y-88380100D01*
X177926015Y-88383223D01*
G37*
G36*
X162822754Y-84858817D02*
G01*
X162986689Y-84926721D01*
X163134227Y-85025303D01*
X163259697Y-85150773D01*
X163358279Y-85298311D01*
X163426183Y-85462246D01*
X163460800Y-85636279D01*
X163460800Y-85813721D01*
X163426183Y-85987754D01*
X163358279Y-86151689D01*
X163259697Y-86299227D01*
X163134227Y-86424697D01*
X162986689Y-86523279D01*
X162822754Y-86591183D01*
X162648721Y-86625800D01*
X162471279Y-86625800D01*
X162297246Y-86591183D01*
X162133311Y-86523279D01*
X161985773Y-86424697D01*
X161860303Y-86299227D01*
X161761721Y-86151689D01*
X161693817Y-85987754D01*
X161659200Y-85813721D01*
X161659200Y-85636279D01*
X161693817Y-85462246D01*
X161761721Y-85298311D01*
X161860303Y-85150773D01*
X161985773Y-85025303D01*
X162133311Y-84926721D01*
X162297246Y-84858817D01*
X162471279Y-84824200D01*
X162648721Y-84824200D01*
X162822754Y-84858817D01*
G37*
G36*
X180450086Y-79509435D02*
G01*
X180598003Y-79570704D01*
X180687163Y-79630279D01*
X180726645Y-79656660D01*
X180731134Y-79659660D01*
X180844340Y-79772866D01*
X180933296Y-79905997D01*
X180994565Y-80053914D01*
X181025800Y-80210946D01*
X181025800Y-80371054D01*
X180994565Y-80528086D01*
X180933296Y-80676003D01*
X180873721Y-80765163D01*
X180846348Y-80806130D01*
X180844340Y-80809134D01*
X180731134Y-80922340D01*
X180598003Y-81011296D01*
X180450086Y-81072565D01*
X180293054Y-81103800D01*
X180132946Y-81103800D01*
X179975914Y-81072565D01*
X179827997Y-81011296D01*
X179694866Y-80922340D01*
X179581660Y-80809134D01*
X179579653Y-80806130D01*
X179552279Y-80765163D01*
X179492704Y-80676003D01*
X179431435Y-80528086D01*
X179400200Y-80371054D01*
X179400200Y-80210946D01*
X179431435Y-80053914D01*
X179492704Y-79905997D01*
X179581660Y-79772866D01*
X179694866Y-79659660D01*
X179699356Y-79656660D01*
X179738837Y-79630279D01*
X179827997Y-79570704D01*
X179975914Y-79509435D01*
X180132946Y-79478200D01*
X180293054Y-79478200D01*
X180450086Y-79509435D01*
G37*
G36*
X177910086Y-79509435D02*
G01*
X178058003Y-79570704D01*
X178147163Y-79630279D01*
X178186645Y-79656660D01*
X178191134Y-79659660D01*
X178304340Y-79772866D01*
X178393296Y-79905997D01*
X178454565Y-80053914D01*
X178485800Y-80210946D01*
X178485800Y-80371054D01*
X178454565Y-80528086D01*
X178393296Y-80676003D01*
X178333721Y-80765163D01*
X178306348Y-80806130D01*
X178304340Y-80809134D01*
X178191134Y-80922340D01*
X178058003Y-81011296D01*
X177910086Y-81072565D01*
X177753054Y-81103800D01*
X177592946Y-81103800D01*
X177435914Y-81072565D01*
X177287997Y-81011296D01*
X177154866Y-80922340D01*
X177041660Y-80809134D01*
X177039653Y-80806130D01*
X177012279Y-80765163D01*
X176952704Y-80676003D01*
X176891435Y-80528086D01*
X176860200Y-80371054D01*
X176860200Y-80210946D01*
X176891435Y-80053914D01*
X176952704Y-79905997D01*
X177041660Y-79772866D01*
X177154866Y-79659660D01*
X177159356Y-79656660D01*
X177198837Y-79630279D01*
X177287997Y-79570704D01*
X177435914Y-79509435D01*
X177592946Y-79478200D01*
X177753054Y-79478200D01*
X177910086Y-79509435D01*
G37*
G36*
X175370086Y-79509435D02*
G01*
X175518003Y-79570704D01*
X175607163Y-79630279D01*
X175646645Y-79656660D01*
X175651134Y-79659660D01*
X175764340Y-79772866D01*
X175853296Y-79905997D01*
X175914565Y-80053914D01*
X175945800Y-80210946D01*
X175945800Y-80371054D01*
X175914565Y-80528086D01*
X175853296Y-80676003D01*
X175793721Y-80765163D01*
X175766348Y-80806130D01*
X175764340Y-80809134D01*
X175651134Y-80922340D01*
X175518003Y-81011296D01*
X175370086Y-81072565D01*
X175213054Y-81103800D01*
X175052946Y-81103800D01*
X174895914Y-81072565D01*
X174747997Y-81011296D01*
X174614866Y-80922340D01*
X174501660Y-80809134D01*
X174499653Y-80806130D01*
X174472279Y-80765163D01*
X174412704Y-80676003D01*
X174351435Y-80528086D01*
X174320200Y-80371054D01*
X174320200Y-80210946D01*
X174351435Y-80053914D01*
X174412704Y-79905997D01*
X174501660Y-79772866D01*
X174614866Y-79659660D01*
X174619356Y-79656660D01*
X174658837Y-79630279D01*
X174747997Y-79570704D01*
X174895914Y-79509435D01*
X175052946Y-79478200D01*
X175213054Y-79478200D01*
X175370086Y-79509435D01*
G37*
G36*
X172830086Y-79509435D02*
G01*
X172978003Y-79570704D01*
X173067163Y-79630279D01*
X173106645Y-79656660D01*
X173111134Y-79659660D01*
X173224340Y-79772866D01*
X173313296Y-79905997D01*
X173374565Y-80053914D01*
X173405800Y-80210946D01*
X173405800Y-80371054D01*
X173374565Y-80528086D01*
X173313296Y-80676003D01*
X173253721Y-80765163D01*
X173226348Y-80806130D01*
X173224340Y-80809134D01*
X173111134Y-80922340D01*
X172978003Y-81011296D01*
X172830086Y-81072565D01*
X172673054Y-81103800D01*
X172512946Y-81103800D01*
X172355914Y-81072565D01*
X172207997Y-81011296D01*
X172074866Y-80922340D01*
X171961660Y-80809134D01*
X171959653Y-80806130D01*
X171932279Y-80765163D01*
X171872704Y-80676003D01*
X171811435Y-80528086D01*
X171780200Y-80371054D01*
X171780200Y-80210946D01*
X171811435Y-80053914D01*
X171872704Y-79905997D01*
X171961660Y-79772866D01*
X172074866Y-79659660D01*
X172079356Y-79656660D01*
X172118837Y-79630279D01*
X172207997Y-79570704D01*
X172355914Y-79509435D01*
X172512946Y-79478200D01*
X172673054Y-79478200D01*
X172830086Y-79509435D01*
G37*
G36*
X170290086Y-79509435D02*
G01*
X170438003Y-79570704D01*
X170527163Y-79630279D01*
X170566645Y-79656660D01*
X170571134Y-79659660D01*
X170684340Y-79772866D01*
X170773296Y-79905997D01*
X170834565Y-80053914D01*
X170865800Y-80210946D01*
X170865800Y-80371054D01*
X170834565Y-80528086D01*
X170773296Y-80676003D01*
X170713721Y-80765163D01*
X170686348Y-80806130D01*
X170684340Y-80809134D01*
X170571134Y-80922340D01*
X170438003Y-81011296D01*
X170290086Y-81072565D01*
X170133054Y-81103800D01*
X169972946Y-81103800D01*
X169815914Y-81072565D01*
X169667997Y-81011296D01*
X169534866Y-80922340D01*
X169421660Y-80809134D01*
X169419653Y-80806130D01*
X169392279Y-80765163D01*
X169332704Y-80676003D01*
X169271435Y-80528086D01*
X169240200Y-80371054D01*
X169240200Y-80210946D01*
X169271435Y-80053914D01*
X169332704Y-79905997D01*
X169421660Y-79772866D01*
X169534866Y-79659660D01*
X169539356Y-79656660D01*
X169578837Y-79630279D01*
X169667997Y-79570704D01*
X169815914Y-79509435D01*
X169972946Y-79478200D01*
X170133054Y-79478200D01*
X170290086Y-79509435D01*
G37*
G36*
X167750086Y-79509435D02*
G01*
X167898003Y-79570704D01*
X167987163Y-79630279D01*
X168026645Y-79656660D01*
X168031134Y-79659660D01*
X168144340Y-79772866D01*
X168233296Y-79905997D01*
X168294565Y-80053914D01*
X168325800Y-80210946D01*
X168325800Y-80371054D01*
X168294565Y-80528086D01*
X168233296Y-80676003D01*
X168173721Y-80765163D01*
X168146348Y-80806130D01*
X168144340Y-80809134D01*
X168031134Y-80922340D01*
X167898003Y-81011296D01*
X167750086Y-81072565D01*
X167593054Y-81103800D01*
X167432946Y-81103800D01*
X167275914Y-81072565D01*
X167127997Y-81011296D01*
X166994866Y-80922340D01*
X166881660Y-80809134D01*
X166879653Y-80806130D01*
X166852279Y-80765163D01*
X166792704Y-80676003D01*
X166731435Y-80528086D01*
X166700200Y-80371054D01*
X166700200Y-80210946D01*
X166731435Y-80053914D01*
X166792704Y-79905997D01*
X166881660Y-79772866D01*
X166994866Y-79659660D01*
X166999356Y-79656660D01*
X167038837Y-79630279D01*
X167127997Y-79570704D01*
X167275914Y-79509435D01*
X167432946Y-79478200D01*
X167593054Y-79478200D01*
X167750086Y-79509435D01*
G37*
G36*
X165210086Y-79509435D02*
G01*
X165358003Y-79570704D01*
X165447163Y-79630279D01*
X165486645Y-79656660D01*
X165491134Y-79659660D01*
X165604340Y-79772866D01*
X165693296Y-79905997D01*
X165754565Y-80053914D01*
X165785800Y-80210946D01*
X165785800Y-80371054D01*
X165754565Y-80528086D01*
X165693296Y-80676003D01*
X165633721Y-80765163D01*
X165606348Y-80806130D01*
X165604340Y-80809134D01*
X165491134Y-80922340D01*
X165358003Y-81011296D01*
X165210086Y-81072565D01*
X165053054Y-81103800D01*
X164892946Y-81103800D01*
X164735914Y-81072565D01*
X164587997Y-81011296D01*
X164454866Y-80922340D01*
X164341660Y-80809134D01*
X164339653Y-80806130D01*
X164312279Y-80765163D01*
X164252704Y-80676003D01*
X164191435Y-80528086D01*
X164160200Y-80371054D01*
X164160200Y-80210946D01*
X164191435Y-80053914D01*
X164252704Y-79905997D01*
X164341660Y-79772866D01*
X164454866Y-79659660D01*
X164459356Y-79656660D01*
X164498837Y-79630279D01*
X164587997Y-79570704D01*
X164735914Y-79509435D01*
X164892946Y-79478200D01*
X165053054Y-79478200D01*
X165210086Y-79509435D01*
G37*
G36*
X162670086Y-79509435D02*
G01*
X162818003Y-79570704D01*
X162907163Y-79630279D01*
X162946645Y-79656660D01*
X162951134Y-79659660D01*
X163064340Y-79772866D01*
X163153296Y-79905997D01*
X163214565Y-80053914D01*
X163245800Y-80210946D01*
X163245800Y-80371054D01*
X163214565Y-80528086D01*
X163153296Y-80676003D01*
X163093721Y-80765163D01*
X163066348Y-80806130D01*
X163064340Y-80809134D01*
X162951134Y-80922340D01*
X162818003Y-81011296D01*
X162670086Y-81072565D01*
X162513054Y-81103800D01*
X162352946Y-81103800D01*
X162195914Y-81072565D01*
X162047997Y-81011296D01*
X161914866Y-80922340D01*
X161801660Y-80809134D01*
X161799653Y-80806130D01*
X161772279Y-80765163D01*
X161712704Y-80676003D01*
X161651435Y-80528086D01*
X161620200Y-80371054D01*
X161620200Y-80210946D01*
X161651435Y-80053914D01*
X161712704Y-79905997D01*
X161801660Y-79772866D01*
X161914866Y-79659660D01*
X161919356Y-79656660D01*
X161958837Y-79630279D01*
X162047997Y-79570704D01*
X162195914Y-79509435D01*
X162352946Y-79478200D01*
X162513054Y-79478200D01*
X162670086Y-79509435D01*
G37*
G36*
X216010086Y-79506435D02*
G01*
X216158003Y-79567704D01*
X216291134Y-79656660D01*
X216404340Y-79769866D01*
X216404342Y-79769869D01*
X216404343Y-79769870D01*
X216433721Y-79813837D01*
X216493296Y-79902997D01*
X216554565Y-80050914D01*
X216585800Y-80207946D01*
X216585800Y-80368054D01*
X216554565Y-80525086D01*
X216493296Y-80673003D01*
X216404340Y-80806134D01*
X216291134Y-80919340D01*
X216291131Y-80919342D01*
X216291130Y-80919343D01*
X216286640Y-80922343D01*
X216158003Y-81008296D01*
X216010086Y-81069565D01*
X215853054Y-81100800D01*
X215692946Y-81100800D01*
X215535914Y-81069565D01*
X215387997Y-81008296D01*
X215259360Y-80922343D01*
X215254870Y-80919343D01*
X215254869Y-80919342D01*
X215254866Y-80919340D01*
X215141660Y-80806134D01*
X215052704Y-80673003D01*
X214991435Y-80525086D01*
X214960200Y-80368054D01*
X214960200Y-80207946D01*
X214991435Y-80050914D01*
X215052704Y-79902997D01*
X215112279Y-79813837D01*
X215141657Y-79769870D01*
X215141658Y-79769869D01*
X215141660Y-79769866D01*
X215254866Y-79656660D01*
X215387997Y-79567704D01*
X215535914Y-79506435D01*
X215692946Y-79475200D01*
X215853054Y-79475200D01*
X216010086Y-79506435D01*
G37*
G36*
X203310086Y-79506435D02*
G01*
X203458003Y-79567704D01*
X203591134Y-79656660D01*
X203704340Y-79769866D01*
X203704342Y-79769869D01*
X203704343Y-79769870D01*
X203733721Y-79813837D01*
X203793296Y-79902997D01*
X203854565Y-80050914D01*
X203885800Y-80207946D01*
X203885800Y-80368054D01*
X203854565Y-80525086D01*
X203793296Y-80673003D01*
X203704340Y-80806134D01*
X203591134Y-80919340D01*
X203591131Y-80919342D01*
X203591130Y-80919343D01*
X203586640Y-80922343D01*
X203458003Y-81008296D01*
X203310086Y-81069565D01*
X203153054Y-81100800D01*
X202992946Y-81100800D01*
X202835914Y-81069565D01*
X202687997Y-81008296D01*
X202559360Y-80922343D01*
X202554870Y-80919343D01*
X202554869Y-80919342D01*
X202554866Y-80919340D01*
X202441660Y-80806134D01*
X202352704Y-80673003D01*
X202291435Y-80525086D01*
X202260200Y-80368054D01*
X202260200Y-80207946D01*
X202291435Y-80050914D01*
X202352704Y-79902997D01*
X202412279Y-79813837D01*
X202441657Y-79769870D01*
X202441658Y-79769869D01*
X202441660Y-79769866D01*
X202554866Y-79656660D01*
X202687997Y-79567704D01*
X202835914Y-79506435D01*
X202992946Y-79475200D01*
X203153054Y-79475200D01*
X203310086Y-79506435D01*
G37*
G36*
X205850086Y-79506435D02*
G01*
X205998003Y-79567704D01*
X206131134Y-79656660D01*
X206244340Y-79769866D01*
X206244342Y-79769869D01*
X206244343Y-79769870D01*
X206273721Y-79813837D01*
X206333296Y-79902997D01*
X206394565Y-80050914D01*
X206425800Y-80207946D01*
X206425800Y-80368054D01*
X206394565Y-80525086D01*
X206333296Y-80673003D01*
X206244340Y-80806134D01*
X206131134Y-80919340D01*
X206131131Y-80919342D01*
X206131130Y-80919343D01*
X206126640Y-80922343D01*
X205998003Y-81008296D01*
X205850086Y-81069565D01*
X205693054Y-81100800D01*
X205532946Y-81100800D01*
X205375914Y-81069565D01*
X205227997Y-81008296D01*
X205099360Y-80922343D01*
X205094870Y-80919343D01*
X205094869Y-80919342D01*
X205094866Y-80919340D01*
X204981660Y-80806134D01*
X204892704Y-80673003D01*
X204831435Y-80525086D01*
X204800200Y-80368054D01*
X204800200Y-80207946D01*
X204831435Y-80050914D01*
X204892704Y-79902997D01*
X204952279Y-79813837D01*
X204981657Y-79769870D01*
X204981658Y-79769869D01*
X204981660Y-79769866D01*
X205094866Y-79656660D01*
X205227997Y-79567704D01*
X205375914Y-79506435D01*
X205532946Y-79475200D01*
X205693054Y-79475200D01*
X205850086Y-79506435D01*
G37*
G36*
X208390086Y-79506435D02*
G01*
X208538003Y-79567704D01*
X208671134Y-79656660D01*
X208784340Y-79769866D01*
X208784342Y-79769869D01*
X208784343Y-79769870D01*
X208813721Y-79813837D01*
X208873296Y-79902997D01*
X208934565Y-80050914D01*
X208965800Y-80207946D01*
X208965800Y-80368054D01*
X208934565Y-80525086D01*
X208873296Y-80673003D01*
X208784340Y-80806134D01*
X208671134Y-80919340D01*
X208671131Y-80919342D01*
X208671130Y-80919343D01*
X208666640Y-80922343D01*
X208538003Y-81008296D01*
X208390086Y-81069565D01*
X208233054Y-81100800D01*
X208072946Y-81100800D01*
X207915914Y-81069565D01*
X207767997Y-81008296D01*
X207639360Y-80922343D01*
X207634870Y-80919343D01*
X207634869Y-80919342D01*
X207634866Y-80919340D01*
X207521660Y-80806134D01*
X207432704Y-80673003D01*
X207371435Y-80525086D01*
X207340200Y-80368054D01*
X207340200Y-80207946D01*
X207371435Y-80050914D01*
X207432704Y-79902997D01*
X207492279Y-79813837D01*
X207521657Y-79769870D01*
X207521658Y-79769869D01*
X207521660Y-79769866D01*
X207634866Y-79656660D01*
X207767997Y-79567704D01*
X207915914Y-79506435D01*
X208072946Y-79475200D01*
X208233054Y-79475200D01*
X208390086Y-79506435D01*
G37*
G36*
X210930086Y-79506435D02*
G01*
X211078003Y-79567704D01*
X211211134Y-79656660D01*
X211324340Y-79769866D01*
X211324342Y-79769869D01*
X211324343Y-79769870D01*
X211353721Y-79813837D01*
X211413296Y-79902997D01*
X211474565Y-80050914D01*
X211505800Y-80207946D01*
X211505800Y-80368054D01*
X211474565Y-80525086D01*
X211413296Y-80673003D01*
X211324340Y-80806134D01*
X211211134Y-80919340D01*
X211211131Y-80919342D01*
X211211130Y-80919343D01*
X211206640Y-80922343D01*
X211078003Y-81008296D01*
X210930086Y-81069565D01*
X210773054Y-81100800D01*
X210612946Y-81100800D01*
X210455914Y-81069565D01*
X210307997Y-81008296D01*
X210179360Y-80922343D01*
X210174870Y-80919343D01*
X210174869Y-80919342D01*
X210174866Y-80919340D01*
X210061660Y-80806134D01*
X209972704Y-80673003D01*
X209911435Y-80525086D01*
X209880200Y-80368054D01*
X209880200Y-80207946D01*
X209911435Y-80050914D01*
X209972704Y-79902997D01*
X210032279Y-79813837D01*
X210061657Y-79769870D01*
X210061658Y-79769869D01*
X210061660Y-79769866D01*
X210174866Y-79656660D01*
X210307997Y-79567704D01*
X210455914Y-79506435D01*
X210612946Y-79475200D01*
X210773054Y-79475200D01*
X210930086Y-79506435D01*
G37*
G36*
X213470086Y-79506435D02*
G01*
X213618003Y-79567704D01*
X213751134Y-79656660D01*
X213864340Y-79769866D01*
X213864342Y-79769869D01*
X213864343Y-79769870D01*
X213893721Y-79813837D01*
X213953296Y-79902997D01*
X214014565Y-80050914D01*
X214045800Y-80207946D01*
X214045800Y-80368054D01*
X214014565Y-80525086D01*
X213953296Y-80673003D01*
X213864340Y-80806134D01*
X213751134Y-80919340D01*
X213751131Y-80919342D01*
X213751130Y-80919343D01*
X213746640Y-80922343D01*
X213618003Y-81008296D01*
X213470086Y-81069565D01*
X213313054Y-81100800D01*
X213152946Y-81100800D01*
X212995914Y-81069565D01*
X212847997Y-81008296D01*
X212719360Y-80922343D01*
X212714870Y-80919343D01*
X212714869Y-80919342D01*
X212714866Y-80919340D01*
X212601660Y-80806134D01*
X212512704Y-80673003D01*
X212451435Y-80525086D01*
X212420200Y-80368054D01*
X212420200Y-80207946D01*
X212451435Y-80050914D01*
X212512704Y-79902997D01*
X212572279Y-79813837D01*
X212601657Y-79769870D01*
X212601658Y-79769869D01*
X212601660Y-79769866D01*
X212714866Y-79656660D01*
X212847997Y-79567704D01*
X212995914Y-79506435D01*
X213152946Y-79475200D01*
X213313054Y-79475200D01*
X213470086Y-79506435D01*
G37*
G36*
X200770086Y-79506435D02*
G01*
X200918003Y-79567704D01*
X201051134Y-79656660D01*
X201164340Y-79769866D01*
X201164342Y-79769869D01*
X201164343Y-79769870D01*
X201193721Y-79813837D01*
X201253296Y-79902997D01*
X201314565Y-80050914D01*
X201345800Y-80207946D01*
X201345800Y-80368054D01*
X201314565Y-80525086D01*
X201253296Y-80673003D01*
X201164340Y-80806134D01*
X201051134Y-80919340D01*
X201051131Y-80919342D01*
X201051130Y-80919343D01*
X201046640Y-80922343D01*
X200918003Y-81008296D01*
X200770086Y-81069565D01*
X200613054Y-81100800D01*
X200452946Y-81100800D01*
X200295914Y-81069565D01*
X200147997Y-81008296D01*
X200019360Y-80922343D01*
X200014870Y-80919343D01*
X200014869Y-80919342D01*
X200014866Y-80919340D01*
X199901660Y-80806134D01*
X199812704Y-80673003D01*
X199751435Y-80525086D01*
X199720200Y-80368054D01*
X199720200Y-80207946D01*
X199751435Y-80050914D01*
X199812704Y-79902997D01*
X199872279Y-79813837D01*
X199901657Y-79769870D01*
X199901658Y-79769869D01*
X199901660Y-79769866D01*
X200014866Y-79656660D01*
X200147997Y-79567704D01*
X200295914Y-79506435D01*
X200452946Y-79475200D01*
X200613054Y-79475200D01*
X200770086Y-79506435D01*
G37*
G36*
X218550086Y-79506435D02*
G01*
X218698003Y-79567704D01*
X218831134Y-79656660D01*
X218944340Y-79769866D01*
X218944342Y-79769869D01*
X218944343Y-79769870D01*
X218973721Y-79813837D01*
X219033296Y-79902997D01*
X219094565Y-80050914D01*
X219125800Y-80207946D01*
X219125800Y-80368054D01*
X219094565Y-80525086D01*
X219033296Y-80673003D01*
X218944340Y-80806134D01*
X218831134Y-80919340D01*
X218831131Y-80919342D01*
X218831130Y-80919343D01*
X218826640Y-80922343D01*
X218698003Y-81008296D01*
X218550086Y-81069565D01*
X218393054Y-81100800D01*
X218232946Y-81100800D01*
X218075914Y-81069565D01*
X217927997Y-81008296D01*
X217799360Y-80922343D01*
X217794870Y-80919343D01*
X217794869Y-80919342D01*
X217794866Y-80919340D01*
X217681660Y-80806134D01*
X217592704Y-80673003D01*
X217531435Y-80525086D01*
X217500200Y-80368054D01*
X217500200Y-80207946D01*
X217531435Y-80050914D01*
X217592704Y-79902997D01*
X217652279Y-79813837D01*
X217681657Y-79769870D01*
X217681658Y-79769869D01*
X217681660Y-79769866D01*
X217794866Y-79656660D01*
X217927997Y-79567704D01*
X218075914Y-79506435D01*
X218232946Y-79475200D01*
X218393054Y-79475200D01*
X218550086Y-79506435D01*
G37*
G36*
X187131300Y-79997300D02*
G01*
X186629700Y-79997300D01*
X186629700Y-77355700D01*
X187131300Y-77355700D01*
X187131300Y-79997300D01*
G37*
G36*
X194116300Y-79993800D02*
G01*
X193614700Y-79993800D01*
X193614700Y-77352200D01*
X194116300Y-77352200D01*
X194116300Y-79993800D01*
G37*
G36*
X193481300Y-79993800D02*
G01*
X192979700Y-79993800D01*
X192979700Y-77352200D01*
X193481300Y-77352200D01*
X193481300Y-79993800D01*
G37*
G36*
X192846300Y-79993800D02*
G01*
X192344700Y-79993800D01*
X192344700Y-77352200D01*
X192846300Y-77352200D01*
X192846300Y-79993800D01*
G37*
G36*
X192211300Y-79993800D02*
G01*
X191709700Y-79993800D01*
X191709700Y-77352200D01*
X192211300Y-77352200D01*
X192211300Y-79993800D01*
G37*
G36*
X191576300Y-79993800D02*
G01*
X191074700Y-79993800D01*
X191074700Y-77352200D01*
X191576300Y-77352200D01*
X191576300Y-79993800D01*
G37*
G36*
X190941300Y-79993800D02*
G01*
X190439700Y-79993800D01*
X190439700Y-77352200D01*
X190941300Y-77352200D01*
X190941300Y-79993800D01*
G37*
G36*
X190306300Y-79993800D02*
G01*
X189804700Y-79993800D01*
X189804700Y-77352200D01*
X190306300Y-77352200D01*
X190306300Y-79993800D01*
G37*
G36*
X189671300Y-79993800D02*
G01*
X189169700Y-79993800D01*
X189169700Y-77352200D01*
X189671300Y-77352200D01*
X189671300Y-79993800D01*
G37*
G36*
X189036300Y-79993800D02*
G01*
X188534700Y-79993800D01*
X188534700Y-77352200D01*
X189036300Y-77352200D01*
X189036300Y-79993800D01*
G37*
G36*
X188401300Y-79993800D02*
G01*
X187899700Y-79993800D01*
X187899700Y-77352200D01*
X188401300Y-77352200D01*
X188401300Y-79993800D01*
G37*
G36*
X187766300Y-79993800D02*
G01*
X187264700Y-79993800D01*
X187264700Y-77352200D01*
X187766300Y-77352200D01*
X187766300Y-79993800D01*
G37*
G36*
X224084512Y-76168032D02*
G01*
X224139062Y-76184580D01*
X224189329Y-76211448D01*
X224233391Y-76247609D01*
X224269552Y-76291671D01*
X224296420Y-76341938D01*
X224312968Y-76396488D01*
X224318800Y-76455702D01*
X224318800Y-78795298D01*
X224312968Y-78854512D01*
X224296420Y-78909062D01*
X224269552Y-78959329D01*
X224233391Y-79003391D01*
X224189329Y-79039552D01*
X224139062Y-79066420D01*
X224084512Y-79082968D01*
X224025298Y-79088800D01*
X222760702Y-79088800D01*
X222701488Y-79082968D01*
X222646938Y-79066420D01*
X222596671Y-79039552D01*
X222552609Y-79003391D01*
X222516448Y-78959329D01*
X222489580Y-78909062D01*
X222473032Y-78854512D01*
X222467200Y-78795298D01*
X222467200Y-76455702D01*
X222473032Y-76396488D01*
X222489580Y-76341938D01*
X222516448Y-76291671D01*
X222552609Y-76247609D01*
X222596671Y-76211448D01*
X222646938Y-76184580D01*
X222701488Y-76168032D01*
X222760702Y-76162200D01*
X224025298Y-76162200D01*
X224084512Y-76168032D01*
G37*
G36*
X224084512Y-71793032D02*
G01*
X224139062Y-71809580D01*
X224189329Y-71836448D01*
X224233391Y-71872609D01*
X224269552Y-71916671D01*
X224296420Y-71966938D01*
X224312968Y-72021488D01*
X224318800Y-72080702D01*
X224318800Y-74420298D01*
X224312968Y-74479512D01*
X224296420Y-74534062D01*
X224269552Y-74584329D01*
X224233391Y-74628391D01*
X224189329Y-74664552D01*
X224139062Y-74691420D01*
X224084512Y-74707968D01*
X224025298Y-74713800D01*
X222760702Y-74713800D01*
X222701488Y-74707968D01*
X222646938Y-74691420D01*
X222596671Y-74664552D01*
X222552609Y-74628391D01*
X222516448Y-74584329D01*
X222489580Y-74534062D01*
X222473032Y-74479512D01*
X222467200Y-74420298D01*
X222467200Y-72080702D01*
X222473032Y-72021488D01*
X222489580Y-71966938D01*
X222516448Y-71916671D01*
X222552609Y-71872609D01*
X222596671Y-71836448D01*
X222646938Y-71809580D01*
X222701488Y-71793032D01*
X222760702Y-71787200D01*
X224025298Y-71787200D01*
X224084512Y-71793032D01*
G37*
G36*
X191576300Y-73523800D02*
G01*
X191074700Y-73523800D01*
X191074700Y-70882200D01*
X191576300Y-70882200D01*
X191576300Y-73523800D01*
G37*
G36*
X194116300Y-73523800D02*
G01*
X193614700Y-73523800D01*
X193614700Y-70882200D01*
X194116300Y-70882200D01*
X194116300Y-73523800D01*
G37*
G36*
X193481300Y-73523800D02*
G01*
X192979700Y-73523800D01*
X192979700Y-70882200D01*
X193481300Y-70882200D01*
X193481300Y-73523800D01*
G37*
G36*
X192846300Y-73523800D02*
G01*
X192344700Y-73523800D01*
X192344700Y-70882200D01*
X192846300Y-70882200D01*
X192846300Y-73523800D01*
G37*
G36*
X187766300Y-73523800D02*
G01*
X187264700Y-73523800D01*
X187264700Y-70882200D01*
X187766300Y-70882200D01*
X187766300Y-73523800D01*
G37*
G36*
X188401300Y-73523800D02*
G01*
X187899700Y-73523800D01*
X187899700Y-70882200D01*
X188401300Y-70882200D01*
X188401300Y-73523800D01*
G37*
G36*
X189036300Y-73523800D02*
G01*
X188534700Y-73523800D01*
X188534700Y-70882200D01*
X189036300Y-70882200D01*
X189036300Y-73523800D01*
G37*
G36*
X189671300Y-73523800D02*
G01*
X189169700Y-73523800D01*
X189169700Y-70882200D01*
X189671300Y-70882200D01*
X189671300Y-73523800D01*
G37*
G36*
X192211300Y-73523800D02*
G01*
X191709700Y-73523800D01*
X191709700Y-70882200D01*
X192211300Y-70882200D01*
X192211300Y-73523800D01*
G37*
G36*
X190941300Y-73523800D02*
G01*
X190439700Y-73523800D01*
X190439700Y-70882200D01*
X190941300Y-70882200D01*
X190941300Y-73523800D01*
G37*
G36*
X190306300Y-73523800D02*
G01*
X189804700Y-73523800D01*
X189804700Y-70882200D01*
X190306300Y-70882200D01*
X190306300Y-73523800D01*
G37*
G36*
X187131300Y-73520300D02*
G01*
X186629700Y-73520300D01*
X186629700Y-70878700D01*
X187131300Y-70878700D01*
X187131300Y-73520300D01*
G37*
G36*
X180450086Y-69806435D02*
G01*
X180598003Y-69867704D01*
X180731134Y-69956660D01*
X180844340Y-70069866D01*
X180933296Y-70202997D01*
X180994565Y-70350914D01*
X181025800Y-70507946D01*
X181025800Y-70668054D01*
X180994565Y-70825086D01*
X180933296Y-70973003D01*
X180844340Y-71106134D01*
X180731134Y-71219340D01*
X180598003Y-71308296D01*
X180450086Y-71369565D01*
X180293054Y-71400800D01*
X180132946Y-71400800D01*
X179975914Y-71369565D01*
X179827997Y-71308296D01*
X179694866Y-71219340D01*
X179581660Y-71106134D01*
X179492704Y-70973003D01*
X179431435Y-70825086D01*
X179400200Y-70668054D01*
X179400200Y-70507946D01*
X179431435Y-70350914D01*
X179492704Y-70202997D01*
X179581660Y-70069866D01*
X179694866Y-69956660D01*
X179827997Y-69867704D01*
X179975914Y-69806435D01*
X180132946Y-69775200D01*
X180293054Y-69775200D01*
X180450086Y-69806435D01*
G37*
G36*
X218550086Y-69806435D02*
G01*
X218698003Y-69867704D01*
X218831134Y-69956660D01*
X218944340Y-70069866D01*
X219033296Y-70202997D01*
X219094565Y-70350914D01*
X219125800Y-70507946D01*
X219125800Y-70668054D01*
X219094565Y-70825086D01*
X219033296Y-70973003D01*
X218944340Y-71106134D01*
X218831134Y-71219340D01*
X218698003Y-71308296D01*
X218550086Y-71369565D01*
X218393054Y-71400800D01*
X218232946Y-71400800D01*
X218075914Y-71369565D01*
X217927997Y-71308296D01*
X217794866Y-71219340D01*
X217681660Y-71106134D01*
X217592704Y-70973003D01*
X217531435Y-70825086D01*
X217500200Y-70668054D01*
X217500200Y-70507946D01*
X217531435Y-70350914D01*
X217592704Y-70202997D01*
X217681660Y-70069866D01*
X217794866Y-69956660D01*
X217927997Y-69867704D01*
X218075914Y-69806435D01*
X218232946Y-69775200D01*
X218393054Y-69775200D01*
X218550086Y-69806435D01*
G37*
G36*
X216010086Y-69806435D02*
G01*
X216158003Y-69867704D01*
X216291134Y-69956660D01*
X216404340Y-70069866D01*
X216493296Y-70202997D01*
X216554565Y-70350914D01*
X216585800Y-70507946D01*
X216585800Y-70668054D01*
X216554565Y-70825086D01*
X216493296Y-70973003D01*
X216404340Y-71106134D01*
X216291134Y-71219340D01*
X216158003Y-71308296D01*
X216010086Y-71369565D01*
X215853054Y-71400800D01*
X215692946Y-71400800D01*
X215535914Y-71369565D01*
X215387997Y-71308296D01*
X215254866Y-71219340D01*
X215141660Y-71106134D01*
X215052704Y-70973003D01*
X214991435Y-70825086D01*
X214960200Y-70668054D01*
X214960200Y-70507946D01*
X214991435Y-70350914D01*
X215052704Y-70202997D01*
X215141660Y-70069866D01*
X215254866Y-69956660D01*
X215387997Y-69867704D01*
X215535914Y-69806435D01*
X215692946Y-69775200D01*
X215853054Y-69775200D01*
X216010086Y-69806435D01*
G37*
G36*
X213470086Y-69806435D02*
G01*
X213618003Y-69867704D01*
X213751134Y-69956660D01*
X213864340Y-70069866D01*
X213953296Y-70202997D01*
X214014565Y-70350914D01*
X214045800Y-70507946D01*
X214045800Y-70668054D01*
X214014565Y-70825086D01*
X213953296Y-70973003D01*
X213864340Y-71106134D01*
X213751134Y-71219340D01*
X213618003Y-71308296D01*
X213470086Y-71369565D01*
X213313054Y-71400800D01*
X213152946Y-71400800D01*
X212995914Y-71369565D01*
X212847997Y-71308296D01*
X212714866Y-71219340D01*
X212601660Y-71106134D01*
X212512704Y-70973003D01*
X212451435Y-70825086D01*
X212420200Y-70668054D01*
X212420200Y-70507946D01*
X212451435Y-70350914D01*
X212512704Y-70202997D01*
X212601660Y-70069866D01*
X212714866Y-69956660D01*
X212847997Y-69867704D01*
X212995914Y-69806435D01*
X213152946Y-69775200D01*
X213313054Y-69775200D01*
X213470086Y-69806435D01*
G37*
G36*
X210930086Y-69806435D02*
G01*
X211078003Y-69867704D01*
X211211134Y-69956660D01*
X211324340Y-70069866D01*
X211413296Y-70202997D01*
X211474565Y-70350914D01*
X211505800Y-70507946D01*
X211505800Y-70668054D01*
X211474565Y-70825086D01*
X211413296Y-70973003D01*
X211324340Y-71106134D01*
X211211134Y-71219340D01*
X211078003Y-71308296D01*
X210930086Y-71369565D01*
X210773054Y-71400800D01*
X210612946Y-71400800D01*
X210455914Y-71369565D01*
X210307997Y-71308296D01*
X210174866Y-71219340D01*
X210061660Y-71106134D01*
X209972704Y-70973003D01*
X209911435Y-70825086D01*
X209880200Y-70668054D01*
X209880200Y-70507946D01*
X209911435Y-70350914D01*
X209972704Y-70202997D01*
X210061660Y-70069866D01*
X210174866Y-69956660D01*
X210307997Y-69867704D01*
X210455914Y-69806435D01*
X210612946Y-69775200D01*
X210773054Y-69775200D01*
X210930086Y-69806435D01*
G37*
G36*
X208390086Y-69806435D02*
G01*
X208538003Y-69867704D01*
X208671134Y-69956660D01*
X208784340Y-70069866D01*
X208873296Y-70202997D01*
X208934565Y-70350914D01*
X208965800Y-70507946D01*
X208965800Y-70668054D01*
X208934565Y-70825086D01*
X208873296Y-70973003D01*
X208784340Y-71106134D01*
X208671134Y-71219340D01*
X208538003Y-71308296D01*
X208390086Y-71369565D01*
X208233054Y-71400800D01*
X208072946Y-71400800D01*
X207915914Y-71369565D01*
X207767997Y-71308296D01*
X207634866Y-71219340D01*
X207521660Y-71106134D01*
X207432704Y-70973003D01*
X207371435Y-70825086D01*
X207340200Y-70668054D01*
X207340200Y-70507946D01*
X207371435Y-70350914D01*
X207432704Y-70202997D01*
X207521660Y-70069866D01*
X207634866Y-69956660D01*
X207767997Y-69867704D01*
X207915914Y-69806435D01*
X208072946Y-69775200D01*
X208233054Y-69775200D01*
X208390086Y-69806435D01*
G37*
G36*
X205850086Y-69806435D02*
G01*
X205998003Y-69867704D01*
X206131134Y-69956660D01*
X206244340Y-70069866D01*
X206333296Y-70202997D01*
X206394565Y-70350914D01*
X206425800Y-70507946D01*
X206425800Y-70668054D01*
X206394565Y-70825086D01*
X206333296Y-70973003D01*
X206244340Y-71106134D01*
X206131134Y-71219340D01*
X205998003Y-71308296D01*
X205850086Y-71369565D01*
X205693054Y-71400800D01*
X205532946Y-71400800D01*
X205375914Y-71369565D01*
X205227997Y-71308296D01*
X205094866Y-71219340D01*
X204981660Y-71106134D01*
X204892704Y-70973003D01*
X204831435Y-70825086D01*
X204800200Y-70668054D01*
X204800200Y-70507946D01*
X204831435Y-70350914D01*
X204892704Y-70202997D01*
X204981660Y-70069866D01*
X205094866Y-69956660D01*
X205227997Y-69867704D01*
X205375914Y-69806435D01*
X205532946Y-69775200D01*
X205693054Y-69775200D01*
X205850086Y-69806435D01*
G37*
G36*
X203310086Y-69806435D02*
G01*
X203458003Y-69867704D01*
X203591134Y-69956660D01*
X203704340Y-70069866D01*
X203793296Y-70202997D01*
X203854565Y-70350914D01*
X203885800Y-70507946D01*
X203885800Y-70668054D01*
X203854565Y-70825086D01*
X203793296Y-70973003D01*
X203704340Y-71106134D01*
X203591134Y-71219340D01*
X203458003Y-71308296D01*
X203310086Y-71369565D01*
X203153054Y-71400800D01*
X202992946Y-71400800D01*
X202835914Y-71369565D01*
X202687997Y-71308296D01*
X202554866Y-71219340D01*
X202441660Y-71106134D01*
X202352704Y-70973003D01*
X202291435Y-70825086D01*
X202260200Y-70668054D01*
X202260200Y-70507946D01*
X202291435Y-70350914D01*
X202352704Y-70202997D01*
X202441660Y-70069866D01*
X202554866Y-69956660D01*
X202687997Y-69867704D01*
X202835914Y-69806435D01*
X202992946Y-69775200D01*
X203153054Y-69775200D01*
X203310086Y-69806435D01*
G37*
G36*
X162670086Y-69806435D02*
G01*
X162818003Y-69867704D01*
X162951134Y-69956660D01*
X163064340Y-70069866D01*
X163153296Y-70202997D01*
X163214565Y-70350914D01*
X163245800Y-70507946D01*
X163245800Y-70668054D01*
X163214565Y-70825086D01*
X163153296Y-70973003D01*
X163064340Y-71106134D01*
X162951134Y-71219340D01*
X162818003Y-71308296D01*
X162670086Y-71369565D01*
X162513054Y-71400800D01*
X162352946Y-71400800D01*
X162195914Y-71369565D01*
X162047997Y-71308296D01*
X161914866Y-71219340D01*
X161801660Y-71106134D01*
X161712704Y-70973003D01*
X161651435Y-70825086D01*
X161620200Y-70668054D01*
X161620200Y-70507946D01*
X161651435Y-70350914D01*
X161712704Y-70202997D01*
X161801660Y-70069866D01*
X161914866Y-69956660D01*
X162047997Y-69867704D01*
X162195914Y-69806435D01*
X162352946Y-69775200D01*
X162513054Y-69775200D01*
X162670086Y-69806435D01*
G37*
G36*
X200770086Y-69806435D02*
G01*
X200918003Y-69867704D01*
X201051134Y-69956660D01*
X201164340Y-70069866D01*
X201253296Y-70202997D01*
X201314565Y-70350914D01*
X201345800Y-70507946D01*
X201345800Y-70668054D01*
X201314565Y-70825086D01*
X201253296Y-70973003D01*
X201164340Y-71106134D01*
X201051134Y-71219340D01*
X200918003Y-71308296D01*
X200770086Y-71369565D01*
X200613054Y-71400800D01*
X200452946Y-71400800D01*
X200295914Y-71369565D01*
X200147997Y-71308296D01*
X200014866Y-71219340D01*
X199901660Y-71106134D01*
X199812704Y-70973003D01*
X199751435Y-70825086D01*
X199720200Y-70668054D01*
X199720200Y-70507946D01*
X199751435Y-70350914D01*
X199812704Y-70202997D01*
X199901660Y-70069866D01*
X200014866Y-69956660D01*
X200147997Y-69867704D01*
X200295914Y-69806435D01*
X200452946Y-69775200D01*
X200613054Y-69775200D01*
X200770086Y-69806435D01*
G37*
G36*
X165210086Y-69806435D02*
G01*
X165358003Y-69867704D01*
X165491134Y-69956660D01*
X165604340Y-70069866D01*
X165693296Y-70202997D01*
X165754565Y-70350914D01*
X165785800Y-70507946D01*
X165785800Y-70668054D01*
X165754565Y-70825086D01*
X165693296Y-70973003D01*
X165604340Y-71106134D01*
X165491134Y-71219340D01*
X165358003Y-71308296D01*
X165210086Y-71369565D01*
X165053054Y-71400800D01*
X164892946Y-71400800D01*
X164735914Y-71369565D01*
X164587997Y-71308296D01*
X164454866Y-71219340D01*
X164341660Y-71106134D01*
X164252704Y-70973003D01*
X164191435Y-70825086D01*
X164160200Y-70668054D01*
X164160200Y-70507946D01*
X164191435Y-70350914D01*
X164252704Y-70202997D01*
X164341660Y-70069866D01*
X164454866Y-69956660D01*
X164587997Y-69867704D01*
X164735914Y-69806435D01*
X164892946Y-69775200D01*
X165053054Y-69775200D01*
X165210086Y-69806435D01*
G37*
G36*
X167750086Y-69806435D02*
G01*
X167898003Y-69867704D01*
X168031134Y-69956660D01*
X168144340Y-70069866D01*
X168233296Y-70202997D01*
X168294565Y-70350914D01*
X168325800Y-70507946D01*
X168325800Y-70668054D01*
X168294565Y-70825086D01*
X168233296Y-70973003D01*
X168144340Y-71106134D01*
X168031134Y-71219340D01*
X167898003Y-71308296D01*
X167750086Y-71369565D01*
X167593054Y-71400800D01*
X167432946Y-71400800D01*
X167275914Y-71369565D01*
X167127997Y-71308296D01*
X166994866Y-71219340D01*
X166881660Y-71106134D01*
X166792704Y-70973003D01*
X166731435Y-70825086D01*
X166700200Y-70668054D01*
X166700200Y-70507946D01*
X166731435Y-70350914D01*
X166792704Y-70202997D01*
X166881660Y-70069866D01*
X166994866Y-69956660D01*
X167127997Y-69867704D01*
X167275914Y-69806435D01*
X167432946Y-69775200D01*
X167593054Y-69775200D01*
X167750086Y-69806435D01*
G37*
G36*
X170290086Y-69806435D02*
G01*
X170438003Y-69867704D01*
X170571134Y-69956660D01*
X170684340Y-70069866D01*
X170773296Y-70202997D01*
X170834565Y-70350914D01*
X170865800Y-70507946D01*
X170865800Y-70668054D01*
X170834565Y-70825086D01*
X170773296Y-70973003D01*
X170684340Y-71106134D01*
X170571134Y-71219340D01*
X170438003Y-71308296D01*
X170290086Y-71369565D01*
X170133054Y-71400800D01*
X169972946Y-71400800D01*
X169815914Y-71369565D01*
X169667997Y-71308296D01*
X169534866Y-71219340D01*
X169421660Y-71106134D01*
X169332704Y-70973003D01*
X169271435Y-70825086D01*
X169240200Y-70668054D01*
X169240200Y-70507946D01*
X169271435Y-70350914D01*
X169332704Y-70202997D01*
X169421660Y-70069866D01*
X169534866Y-69956660D01*
X169667997Y-69867704D01*
X169815914Y-69806435D01*
X169972946Y-69775200D01*
X170133054Y-69775200D01*
X170290086Y-69806435D01*
G37*
G36*
X172830086Y-69806435D02*
G01*
X172978003Y-69867704D01*
X173111134Y-69956660D01*
X173224340Y-70069866D01*
X173313296Y-70202997D01*
X173374565Y-70350914D01*
X173405800Y-70507946D01*
X173405800Y-70668054D01*
X173374565Y-70825086D01*
X173313296Y-70973003D01*
X173224340Y-71106134D01*
X173111134Y-71219340D01*
X172978003Y-71308296D01*
X172830086Y-71369565D01*
X172673054Y-71400800D01*
X172512946Y-71400800D01*
X172355914Y-71369565D01*
X172207997Y-71308296D01*
X172074866Y-71219340D01*
X171961660Y-71106134D01*
X171872704Y-70973003D01*
X171811435Y-70825086D01*
X171780200Y-70668054D01*
X171780200Y-70507946D01*
X171811435Y-70350914D01*
X171872704Y-70202997D01*
X171961660Y-70069866D01*
X172074866Y-69956660D01*
X172207997Y-69867704D01*
X172355914Y-69806435D01*
X172512946Y-69775200D01*
X172673054Y-69775200D01*
X172830086Y-69806435D01*
G37*
G36*
X175370086Y-69806435D02*
G01*
X175518003Y-69867704D01*
X175651134Y-69956660D01*
X175764340Y-70069866D01*
X175853296Y-70202997D01*
X175914565Y-70350914D01*
X175945800Y-70507946D01*
X175945800Y-70668054D01*
X175914565Y-70825086D01*
X175853296Y-70973003D01*
X175764340Y-71106134D01*
X175651134Y-71219340D01*
X175518003Y-71308296D01*
X175370086Y-71369565D01*
X175213054Y-71400800D01*
X175052946Y-71400800D01*
X174895914Y-71369565D01*
X174747997Y-71308296D01*
X174614866Y-71219340D01*
X174501660Y-71106134D01*
X174412704Y-70973003D01*
X174351435Y-70825086D01*
X174320200Y-70668054D01*
X174320200Y-70507946D01*
X174351435Y-70350914D01*
X174412704Y-70202997D01*
X174501660Y-70069866D01*
X174614866Y-69956660D01*
X174747997Y-69867704D01*
X174895914Y-69806435D01*
X175052946Y-69775200D01*
X175213054Y-69775200D01*
X175370086Y-69806435D01*
G37*
G36*
X177910086Y-69806435D02*
G01*
X178058003Y-69867704D01*
X178191134Y-69956660D01*
X178304340Y-70069866D01*
X178393296Y-70202997D01*
X178454565Y-70350914D01*
X178485800Y-70507946D01*
X178485800Y-70668054D01*
X178454565Y-70825086D01*
X178393296Y-70973003D01*
X178304340Y-71106134D01*
X178191134Y-71219340D01*
X178058003Y-71308296D01*
X177910086Y-71369565D01*
X177753054Y-71400800D01*
X177592946Y-71400800D01*
X177435914Y-71369565D01*
X177287997Y-71308296D01*
X177154866Y-71219340D01*
X177041660Y-71106134D01*
X176952704Y-70973003D01*
X176891435Y-70825086D01*
X176860200Y-70668054D01*
X176860200Y-70507946D01*
X176891435Y-70350914D01*
X176952704Y-70202997D01*
X177041660Y-70069866D01*
X177154866Y-69956660D01*
X177287997Y-69867704D01*
X177435914Y-69806435D01*
X177592946Y-69775200D01*
X177753054Y-69775200D01*
X177910086Y-69806435D01*
G37*
G36*
X208664615Y-63549549D02*
G01*
X208720304Y-63566442D01*
X208771627Y-63593875D01*
X208816609Y-63630791D01*
X208853525Y-63675773D01*
X208880958Y-63727096D01*
X208897851Y-63782785D01*
X208903800Y-63843186D01*
X208903800Y-65895614D01*
X208897851Y-65956015D01*
X208880958Y-66011704D01*
X208853525Y-66063027D01*
X208816609Y-66108009D01*
X208771627Y-66144925D01*
X208720304Y-66172358D01*
X208664615Y-66189251D01*
X208604214Y-66195200D01*
X207701786Y-66195200D01*
X207641385Y-66189251D01*
X207585696Y-66172358D01*
X207534373Y-66144925D01*
X207489391Y-66108009D01*
X207452475Y-66063027D01*
X207425042Y-66011704D01*
X207408149Y-65956015D01*
X207402200Y-65895614D01*
X207402200Y-63843186D01*
X207408149Y-63782785D01*
X207425042Y-63727096D01*
X207452475Y-63675773D01*
X207489391Y-63630791D01*
X207534373Y-63593875D01*
X207585696Y-63566442D01*
X207641385Y-63549549D01*
X207701786Y-63543600D01*
X208604214Y-63543600D01*
X208664615Y-63549549D01*
G37*
G36*
X189614615Y-63168549D02*
G01*
X189670304Y-63185442D01*
X189721627Y-63212875D01*
X189766609Y-63249791D01*
X189803525Y-63294773D01*
X189830958Y-63346096D01*
X189847851Y-63401785D01*
X189853800Y-63462186D01*
X189853800Y-65514614D01*
X189847851Y-65575015D01*
X189830958Y-65630704D01*
X189803525Y-65682027D01*
X189766609Y-65727009D01*
X189721627Y-65763925D01*
X189670304Y-65791358D01*
X189614615Y-65808251D01*
X189554214Y-65814200D01*
X188651786Y-65814200D01*
X188591385Y-65808251D01*
X188535696Y-65791358D01*
X188484373Y-65763925D01*
X188439391Y-65727009D01*
X188402475Y-65682027D01*
X188375042Y-65630704D01*
X188358149Y-65575015D01*
X188352200Y-65514614D01*
X188352200Y-63462186D01*
X188358149Y-63401785D01*
X188375042Y-63346096D01*
X188402475Y-63294773D01*
X188439391Y-63249791D01*
X188484373Y-63212875D01*
X188535696Y-63185442D01*
X188591385Y-63168549D01*
X188651786Y-63162600D01*
X189554214Y-63162600D01*
X189614615Y-63168549D01*
G37*
G36*
X208664615Y-60099549D02*
G01*
X208720304Y-60116442D01*
X208771627Y-60143875D01*
X208816609Y-60180791D01*
X208853525Y-60225773D01*
X208880958Y-60277096D01*
X208897851Y-60332785D01*
X208903800Y-60393186D01*
X208903800Y-62445614D01*
X208897851Y-62506015D01*
X208880958Y-62561704D01*
X208853525Y-62613027D01*
X208816609Y-62658009D01*
X208771627Y-62694925D01*
X208720304Y-62722358D01*
X208664615Y-62739251D01*
X208604214Y-62745200D01*
X207701786Y-62745200D01*
X207641385Y-62739251D01*
X207585696Y-62722358D01*
X207534373Y-62694925D01*
X207489391Y-62658009D01*
X207452475Y-62613027D01*
X207425042Y-62561704D01*
X207408149Y-62506015D01*
X207402200Y-62445614D01*
X207402200Y-60393186D01*
X207408149Y-60332785D01*
X207425042Y-60277096D01*
X207452475Y-60225773D01*
X207489391Y-60180791D01*
X207534373Y-60143875D01*
X207585696Y-60116442D01*
X207641385Y-60099549D01*
X207701786Y-60093600D01*
X208604214Y-60093600D01*
X208664615Y-60099549D01*
G37*
G36*
X216788015Y-61932423D02*
G01*
X216816106Y-61940944D01*
X216841998Y-61954784D01*
X216864692Y-61973408D01*
X216883316Y-61996102D01*
X216897156Y-62021994D01*
X216905677Y-62050085D01*
X216908800Y-62081791D01*
X216908800Y-62478409D01*
X216905677Y-62510115D01*
X216897156Y-62538206D01*
X216883316Y-62564098D01*
X216864692Y-62586792D01*
X216841998Y-62605416D01*
X216816106Y-62619256D01*
X216788015Y-62627777D01*
X216756309Y-62630900D01*
X213657691Y-62630900D01*
X213625985Y-62627777D01*
X213597894Y-62619256D01*
X213572002Y-62605416D01*
X213549308Y-62586792D01*
X213530684Y-62564098D01*
X213516844Y-62538206D01*
X213508323Y-62510115D01*
X213505200Y-62478409D01*
X213505200Y-62081791D01*
X213508323Y-62050085D01*
X213516844Y-62021994D01*
X213530684Y-61996102D01*
X213549308Y-61973408D01*
X213572002Y-61954784D01*
X213597894Y-61940944D01*
X213625985Y-61932423D01*
X213657691Y-61929300D01*
X216756309Y-61929300D01*
X216788015Y-61932423D01*
G37*
G36*
X223135015Y-61932423D02*
G01*
X223163106Y-61940944D01*
X223188998Y-61954784D01*
X223211692Y-61973408D01*
X223230316Y-61996102D01*
X223244156Y-62021994D01*
X223252677Y-62050085D01*
X223255800Y-62081791D01*
X223255800Y-62478409D01*
X223252677Y-62510115D01*
X223244156Y-62538206D01*
X223230316Y-62564098D01*
X223211692Y-62586792D01*
X223188998Y-62605416D01*
X223163106Y-62619256D01*
X223135015Y-62627777D01*
X223103309Y-62630900D01*
X220004691Y-62630900D01*
X219972985Y-62627777D01*
X219944894Y-62619256D01*
X219919002Y-62605416D01*
X219896308Y-62586792D01*
X219877684Y-62564098D01*
X219863844Y-62538206D01*
X219855323Y-62510115D01*
X219852200Y-62478409D01*
X219852200Y-62081791D01*
X219855323Y-62050085D01*
X219863844Y-62021994D01*
X219877684Y-61996102D01*
X219896308Y-61973408D01*
X219919002Y-61954784D01*
X219944894Y-61940944D01*
X219972985Y-61932423D01*
X220004691Y-61929300D01*
X223103309Y-61929300D01*
X223135015Y-61932423D01*
G37*
G36*
X184274515Y-61797423D02*
G01*
X184302606Y-61805944D01*
X184328498Y-61819784D01*
X184351192Y-61838408D01*
X184369816Y-61861102D01*
X184383656Y-61886994D01*
X184392177Y-61915085D01*
X184395300Y-61946791D01*
X184395300Y-62343409D01*
X184392177Y-62375115D01*
X184383656Y-62403206D01*
X184369816Y-62429098D01*
X184351192Y-62451792D01*
X184328498Y-62470416D01*
X184302606Y-62484256D01*
X184274515Y-62492777D01*
X184242809Y-62495900D01*
X181144191Y-62495900D01*
X181112485Y-62492777D01*
X181084394Y-62484256D01*
X181058502Y-62470416D01*
X181035808Y-62451792D01*
X181017184Y-62429098D01*
X181003344Y-62403206D01*
X180994823Y-62375115D01*
X180991700Y-62343409D01*
X180991700Y-61946791D01*
X180994823Y-61915085D01*
X181003344Y-61886994D01*
X181017184Y-61861102D01*
X181035808Y-61838408D01*
X181058502Y-61819784D01*
X181084394Y-61805944D01*
X181112485Y-61797423D01*
X181144191Y-61794300D01*
X184242809Y-61794300D01*
X184274515Y-61797423D01*
G37*
G36*
X177924515Y-61733923D02*
G01*
X177952606Y-61742444D01*
X177978498Y-61756284D01*
X178001192Y-61774908D01*
X178019816Y-61797602D01*
X178033656Y-61823494D01*
X178042177Y-61851585D01*
X178045300Y-61883291D01*
X178045300Y-62279909D01*
X178042177Y-62311615D01*
X178033656Y-62339706D01*
X178019816Y-62365598D01*
X178001192Y-62388292D01*
X177978498Y-62406916D01*
X177952606Y-62420756D01*
X177924515Y-62429277D01*
X177892809Y-62432400D01*
X174794191Y-62432400D01*
X174762485Y-62429277D01*
X174734394Y-62420756D01*
X174708502Y-62406916D01*
X174685808Y-62388292D01*
X174667184Y-62365598D01*
X174653344Y-62339706D01*
X174644823Y-62311615D01*
X174641700Y-62279909D01*
X174641700Y-61883291D01*
X174644823Y-61851585D01*
X174653344Y-61823494D01*
X174667184Y-61797602D01*
X174685808Y-61774908D01*
X174708502Y-61756284D01*
X174734394Y-61742444D01*
X174762485Y-61733923D01*
X174794191Y-61730800D01*
X177892809Y-61730800D01*
X177924515Y-61733923D01*
G37*
G36*
X189614615Y-59718549D02*
G01*
X189670304Y-59735442D01*
X189721627Y-59762875D01*
X189766609Y-59799791D01*
X189803525Y-59844773D01*
X189830958Y-59896096D01*
X189847851Y-59951785D01*
X189853800Y-60012186D01*
X189853800Y-62064614D01*
X189847851Y-62125015D01*
X189830958Y-62180704D01*
X189803525Y-62232027D01*
X189766609Y-62277009D01*
X189721627Y-62313925D01*
X189670304Y-62341358D01*
X189614615Y-62358251D01*
X189554214Y-62364200D01*
X188651786Y-62364200D01*
X188591385Y-62358251D01*
X188535696Y-62341358D01*
X188484373Y-62313925D01*
X188439391Y-62277009D01*
X188402475Y-62232027D01*
X188375042Y-62180704D01*
X188358149Y-62125015D01*
X188352200Y-62064614D01*
X188352200Y-60012186D01*
X188358149Y-59951785D01*
X188375042Y-59896096D01*
X188402475Y-59844773D01*
X188439391Y-59799791D01*
X188484373Y-59762875D01*
X188535696Y-59735442D01*
X188591385Y-59718549D01*
X188651786Y-59712600D01*
X189554214Y-59712600D01*
X189614615Y-59718549D01*
G37*
G36*
X223135015Y-60662423D02*
G01*
X223163106Y-60670944D01*
X223188998Y-60684784D01*
X223211692Y-60703408D01*
X223230316Y-60726102D01*
X223244156Y-60751994D01*
X223252677Y-60780085D01*
X223255800Y-60811791D01*
X223255800Y-61208409D01*
X223252677Y-61240115D01*
X223244156Y-61268206D01*
X223230316Y-61294098D01*
X223211692Y-61316792D01*
X223188998Y-61335416D01*
X223163106Y-61349256D01*
X223135015Y-61357777D01*
X223103309Y-61360900D01*
X220004691Y-61360900D01*
X219972985Y-61357777D01*
X219944894Y-61349256D01*
X219919002Y-61335416D01*
X219896308Y-61316792D01*
X219877684Y-61294098D01*
X219863844Y-61268206D01*
X219855323Y-61240115D01*
X219852200Y-61208409D01*
X219852200Y-60811791D01*
X219855323Y-60780085D01*
X219863844Y-60751994D01*
X219877684Y-60726102D01*
X219896308Y-60703408D01*
X219919002Y-60684784D01*
X219944894Y-60670944D01*
X219972985Y-60662423D01*
X220004691Y-60659300D01*
X223103309Y-60659300D01*
X223135015Y-60662423D01*
G37*
G36*
X216788015Y-60662423D02*
G01*
X216816106Y-60670944D01*
X216841998Y-60684784D01*
X216864692Y-60703408D01*
X216883316Y-60726102D01*
X216897156Y-60751994D01*
X216905677Y-60780085D01*
X216908800Y-60811791D01*
X216908800Y-61208409D01*
X216905677Y-61240115D01*
X216897156Y-61268206D01*
X216883316Y-61294098D01*
X216864692Y-61316792D01*
X216841998Y-61335416D01*
X216816106Y-61349256D01*
X216788015Y-61357777D01*
X216756309Y-61360900D01*
X213657691Y-61360900D01*
X213625985Y-61357777D01*
X213597894Y-61349256D01*
X213572002Y-61335416D01*
X213549308Y-61316792D01*
X213530684Y-61294098D01*
X213516844Y-61268206D01*
X213508323Y-61240115D01*
X213505200Y-61208409D01*
X213505200Y-60811791D01*
X213508323Y-60780085D01*
X213516844Y-60751994D01*
X213530684Y-60726102D01*
X213549308Y-60703408D01*
X213572002Y-60684784D01*
X213597894Y-60670944D01*
X213625985Y-60662423D01*
X213657691Y-60659300D01*
X216756309Y-60659300D01*
X216788015Y-60662423D01*
G37*
G36*
X184273015Y-60527423D02*
G01*
X184301106Y-60535944D01*
X184326998Y-60549784D01*
X184349692Y-60568408D01*
X184368316Y-60591102D01*
X184382156Y-60616994D01*
X184390677Y-60645085D01*
X184393800Y-60676791D01*
X184393800Y-61073409D01*
X184390677Y-61105115D01*
X184382156Y-61133206D01*
X184368316Y-61159098D01*
X184349692Y-61181792D01*
X184326998Y-61200416D01*
X184301106Y-61214256D01*
X184273015Y-61222777D01*
X184241309Y-61225900D01*
X181142691Y-61225900D01*
X181110985Y-61222777D01*
X181082894Y-61214256D01*
X181057002Y-61200416D01*
X181034308Y-61181792D01*
X181015684Y-61159098D01*
X181001844Y-61133206D01*
X180993323Y-61105115D01*
X180990200Y-61073409D01*
X180990200Y-60676791D01*
X180993323Y-60645085D01*
X181001844Y-60616994D01*
X181015684Y-60591102D01*
X181034308Y-60568408D01*
X181057002Y-60549784D01*
X181082894Y-60535944D01*
X181110985Y-60527423D01*
X181142691Y-60524300D01*
X184241309Y-60524300D01*
X184273015Y-60527423D01*
G37*
G36*
X177926015Y-60527423D02*
G01*
X177954106Y-60535944D01*
X177979998Y-60549784D01*
X178002692Y-60568408D01*
X178021316Y-60591102D01*
X178035156Y-60616994D01*
X178043677Y-60645085D01*
X178046800Y-60676791D01*
X178046800Y-61073409D01*
X178043677Y-61105115D01*
X178035156Y-61133206D01*
X178021316Y-61159098D01*
X178002692Y-61181792D01*
X177979998Y-61200416D01*
X177954106Y-61214256D01*
X177926015Y-61222777D01*
X177894309Y-61225900D01*
X174795691Y-61225900D01*
X174763985Y-61222777D01*
X174735894Y-61214256D01*
X174710002Y-61200416D01*
X174687308Y-61181792D01*
X174668684Y-61159098D01*
X174654844Y-61133206D01*
X174646323Y-61105115D01*
X174643200Y-61073409D01*
X174643200Y-60676791D01*
X174646323Y-60645085D01*
X174654844Y-60616994D01*
X174668684Y-60591102D01*
X174687308Y-60568408D01*
X174710002Y-60549784D01*
X174735894Y-60535944D01*
X174763985Y-60527423D01*
X174795691Y-60524300D01*
X177894309Y-60524300D01*
X177926015Y-60527423D01*
G37*
G36*
X203557015Y-57775423D02*
G01*
X203585106Y-57783944D01*
X203610998Y-57797784D01*
X203633692Y-57816408D01*
X203652316Y-57839102D01*
X203666156Y-57864994D01*
X203674677Y-57893085D01*
X203677800Y-57924791D01*
X203677800Y-61023409D01*
X203674677Y-61055115D01*
X203666156Y-61083206D01*
X203652316Y-61109098D01*
X203633692Y-61131792D01*
X203610998Y-61150416D01*
X203585106Y-61164256D01*
X203557015Y-61172777D01*
X203525309Y-61175900D01*
X203128691Y-61175900D01*
X203096985Y-61172777D01*
X203068894Y-61164256D01*
X203043002Y-61150416D01*
X203020308Y-61131792D01*
X203001684Y-61109098D01*
X202987844Y-61083206D01*
X202979323Y-61055115D01*
X202976200Y-61023409D01*
X202976200Y-57924791D01*
X202979323Y-57893085D01*
X202987844Y-57864994D01*
X203001684Y-57839102D01*
X203020308Y-57816408D01*
X203043002Y-57797784D01*
X203068894Y-57783944D01*
X203096985Y-57775423D01*
X203128691Y-57772300D01*
X203525309Y-57772300D01*
X203557015Y-57775423D01*
G37*
G36*
X194667015Y-57773923D02*
G01*
X194695106Y-57782444D01*
X194720998Y-57796284D01*
X194743692Y-57814908D01*
X194762316Y-57837602D01*
X194776156Y-57863494D01*
X194784677Y-57891585D01*
X194787800Y-57923291D01*
X194787800Y-61021909D01*
X194784677Y-61053615D01*
X194776156Y-61081706D01*
X194762316Y-61107598D01*
X194743692Y-61130292D01*
X194720998Y-61148916D01*
X194695106Y-61162756D01*
X194667015Y-61171277D01*
X194635309Y-61174400D01*
X194238691Y-61174400D01*
X194206985Y-61171277D01*
X194178894Y-61162756D01*
X194153002Y-61148916D01*
X194130308Y-61130292D01*
X194111684Y-61107598D01*
X194097844Y-61081706D01*
X194089323Y-61053615D01*
X194086200Y-61021909D01*
X194086200Y-57923291D01*
X194089323Y-57891585D01*
X194097844Y-57863494D01*
X194111684Y-57837602D01*
X194130308Y-57814908D01*
X194153002Y-57796284D01*
X194178894Y-57782444D01*
X194206985Y-57773923D01*
X194238691Y-57770800D01*
X194635309Y-57770800D01*
X194667015Y-57773923D01*
G37*
G36*
X195937015Y-57773923D02*
G01*
X195965106Y-57782444D01*
X195990998Y-57796284D01*
X196013692Y-57814908D01*
X196032316Y-57837602D01*
X196046156Y-57863494D01*
X196054677Y-57891585D01*
X196057800Y-57923291D01*
X196057800Y-61021909D01*
X196054677Y-61053615D01*
X196046156Y-61081706D01*
X196032316Y-61107598D01*
X196013692Y-61130292D01*
X195990998Y-61148916D01*
X195965106Y-61162756D01*
X195937015Y-61171277D01*
X195905309Y-61174400D01*
X195508691Y-61174400D01*
X195476985Y-61171277D01*
X195448894Y-61162756D01*
X195423002Y-61148916D01*
X195400308Y-61130292D01*
X195381684Y-61107598D01*
X195367844Y-61081706D01*
X195359323Y-61053615D01*
X195356200Y-61021909D01*
X195356200Y-57923291D01*
X195359323Y-57891585D01*
X195367844Y-57863494D01*
X195381684Y-57837602D01*
X195400308Y-57814908D01*
X195423002Y-57796284D01*
X195448894Y-57782444D01*
X195476985Y-57773923D01*
X195508691Y-57770800D01*
X195905309Y-57770800D01*
X195937015Y-57773923D01*
G37*
G36*
X197207015Y-57773923D02*
G01*
X197235106Y-57782444D01*
X197260998Y-57796284D01*
X197283692Y-57814908D01*
X197302316Y-57837602D01*
X197316156Y-57863494D01*
X197324677Y-57891585D01*
X197327800Y-57923291D01*
X197327800Y-61021909D01*
X197324677Y-61053615D01*
X197316156Y-61081706D01*
X197302316Y-61107598D01*
X197283692Y-61130292D01*
X197260998Y-61148916D01*
X197235106Y-61162756D01*
X197207015Y-61171277D01*
X197175309Y-61174400D01*
X196778691Y-61174400D01*
X196746985Y-61171277D01*
X196718894Y-61162756D01*
X196693002Y-61148916D01*
X196670308Y-61130292D01*
X196651684Y-61107598D01*
X196637844Y-61081706D01*
X196629323Y-61053615D01*
X196626200Y-61021909D01*
X196626200Y-57923291D01*
X196629323Y-57891585D01*
X196637844Y-57863494D01*
X196651684Y-57837602D01*
X196670308Y-57814908D01*
X196693002Y-57796284D01*
X196718894Y-57782444D01*
X196746985Y-57773923D01*
X196778691Y-57770800D01*
X197175309Y-57770800D01*
X197207015Y-57773923D01*
G37*
G36*
X198477015Y-57773923D02*
G01*
X198505106Y-57782444D01*
X198530998Y-57796284D01*
X198553692Y-57814908D01*
X198572316Y-57837602D01*
X198586156Y-57863494D01*
X198594677Y-57891585D01*
X198597800Y-57923291D01*
X198597800Y-61021909D01*
X198594677Y-61053615D01*
X198586156Y-61081706D01*
X198572316Y-61107598D01*
X198553692Y-61130292D01*
X198530998Y-61148916D01*
X198505106Y-61162756D01*
X198477015Y-61171277D01*
X198445309Y-61174400D01*
X198048691Y-61174400D01*
X198016985Y-61171277D01*
X197988894Y-61162756D01*
X197963002Y-61148916D01*
X197940308Y-61130292D01*
X197921684Y-61107598D01*
X197907844Y-61081706D01*
X197899323Y-61053615D01*
X197896200Y-61021909D01*
X197896200Y-57923291D01*
X197899323Y-57891585D01*
X197907844Y-57863494D01*
X197921684Y-57837602D01*
X197940308Y-57814908D01*
X197963002Y-57796284D01*
X197988894Y-57782444D01*
X198016985Y-57773923D01*
X198048691Y-57770800D01*
X198445309Y-57770800D01*
X198477015Y-57773923D01*
G37*
G36*
X199747015Y-57773923D02*
G01*
X199775106Y-57782444D01*
X199800998Y-57796284D01*
X199823692Y-57814908D01*
X199842316Y-57837602D01*
X199856156Y-57863494D01*
X199864677Y-57891585D01*
X199867800Y-57923291D01*
X199867800Y-61021909D01*
X199864677Y-61053615D01*
X199856156Y-61081706D01*
X199842316Y-61107598D01*
X199823692Y-61130292D01*
X199800998Y-61148916D01*
X199775106Y-61162756D01*
X199747015Y-61171277D01*
X199715309Y-61174400D01*
X199318691Y-61174400D01*
X199286985Y-61171277D01*
X199258894Y-61162756D01*
X199233002Y-61148916D01*
X199210308Y-61130292D01*
X199191684Y-61107598D01*
X199177844Y-61081706D01*
X199169323Y-61053615D01*
X199166200Y-61021909D01*
X199166200Y-57923291D01*
X199169323Y-57891585D01*
X199177844Y-57863494D01*
X199191684Y-57837602D01*
X199210308Y-57814908D01*
X199233002Y-57796284D01*
X199258894Y-57782444D01*
X199286985Y-57773923D01*
X199318691Y-57770800D01*
X199715309Y-57770800D01*
X199747015Y-57773923D01*
G37*
G36*
X201017015Y-57773923D02*
G01*
X201045106Y-57782444D01*
X201070998Y-57796284D01*
X201093692Y-57814908D01*
X201112316Y-57837602D01*
X201126156Y-57863494D01*
X201134677Y-57891585D01*
X201137800Y-57923291D01*
X201137800Y-61021909D01*
X201134677Y-61053615D01*
X201126156Y-61081706D01*
X201112316Y-61107598D01*
X201093692Y-61130292D01*
X201070998Y-61148916D01*
X201045106Y-61162756D01*
X201017015Y-61171277D01*
X200985309Y-61174400D01*
X200588691Y-61174400D01*
X200556985Y-61171277D01*
X200528894Y-61162756D01*
X200503002Y-61148916D01*
X200480308Y-61130292D01*
X200461684Y-61107598D01*
X200447844Y-61081706D01*
X200439323Y-61053615D01*
X200436200Y-61021909D01*
X200436200Y-57923291D01*
X200439323Y-57891585D01*
X200447844Y-57863494D01*
X200461684Y-57837602D01*
X200480308Y-57814908D01*
X200503002Y-57796284D01*
X200528894Y-57782444D01*
X200556985Y-57773923D01*
X200588691Y-57770800D01*
X200985309Y-57770800D01*
X201017015Y-57773923D01*
G37*
G36*
X202287015Y-57773923D02*
G01*
X202315106Y-57782444D01*
X202340998Y-57796284D01*
X202363692Y-57814908D01*
X202382316Y-57837602D01*
X202396156Y-57863494D01*
X202404677Y-57891585D01*
X202407800Y-57923291D01*
X202407800Y-61021909D01*
X202404677Y-61053615D01*
X202396156Y-61081706D01*
X202382316Y-61107598D01*
X202363692Y-61130292D01*
X202340998Y-61148916D01*
X202315106Y-61162756D01*
X202287015Y-61171277D01*
X202255309Y-61174400D01*
X201858691Y-61174400D01*
X201826985Y-61171277D01*
X201798894Y-61162756D01*
X201773002Y-61148916D01*
X201750308Y-61130292D01*
X201731684Y-61107598D01*
X201717844Y-61081706D01*
X201709323Y-61053615D01*
X201706200Y-61021909D01*
X201706200Y-57923291D01*
X201709323Y-57891585D01*
X201717844Y-57863494D01*
X201731684Y-57837602D01*
X201750308Y-57814908D01*
X201773002Y-57796284D01*
X201798894Y-57782444D01*
X201826985Y-57773923D01*
X201858691Y-57770800D01*
X202255309Y-57770800D01*
X202287015Y-57773923D01*
G37*
G36*
X223135015Y-59392423D02*
G01*
X223163106Y-59400944D01*
X223188998Y-59414784D01*
X223211692Y-59433408D01*
X223230316Y-59456102D01*
X223244156Y-59481994D01*
X223252677Y-59510085D01*
X223255800Y-59541791D01*
X223255800Y-59938409D01*
X223252677Y-59970115D01*
X223244156Y-59998206D01*
X223230316Y-60024098D01*
X223211692Y-60046792D01*
X223188998Y-60065416D01*
X223163106Y-60079256D01*
X223135015Y-60087777D01*
X223103309Y-60090900D01*
X220004691Y-60090900D01*
X219972985Y-60087777D01*
X219944894Y-60079256D01*
X219919002Y-60065416D01*
X219896308Y-60046792D01*
X219877684Y-60024098D01*
X219863844Y-59998206D01*
X219855323Y-59970115D01*
X219852200Y-59938409D01*
X219852200Y-59541791D01*
X219855323Y-59510085D01*
X219863844Y-59481994D01*
X219877684Y-59456102D01*
X219896308Y-59433408D01*
X219919002Y-59414784D01*
X219944894Y-59400944D01*
X219972985Y-59392423D01*
X220004691Y-59389300D01*
X223103309Y-59389300D01*
X223135015Y-59392423D01*
G37*
G36*
X216788015Y-59392423D02*
G01*
X216816106Y-59400944D01*
X216841998Y-59414784D01*
X216864692Y-59433408D01*
X216883316Y-59456102D01*
X216897156Y-59481994D01*
X216905677Y-59510085D01*
X216908800Y-59541791D01*
X216908800Y-59938409D01*
X216905677Y-59970115D01*
X216897156Y-59998206D01*
X216883316Y-60024098D01*
X216864692Y-60046792D01*
X216841998Y-60065416D01*
X216816106Y-60079256D01*
X216788015Y-60087777D01*
X216756309Y-60090900D01*
X213657691Y-60090900D01*
X213625985Y-60087777D01*
X213597894Y-60079256D01*
X213572002Y-60065416D01*
X213549308Y-60046792D01*
X213530684Y-60024098D01*
X213516844Y-59998206D01*
X213508323Y-59970115D01*
X213505200Y-59938409D01*
X213505200Y-59541791D01*
X213508323Y-59510085D01*
X213516844Y-59481994D01*
X213530684Y-59456102D01*
X213549308Y-59433408D01*
X213572002Y-59414784D01*
X213597894Y-59400944D01*
X213625985Y-59392423D01*
X213657691Y-59389300D01*
X216756309Y-59389300D01*
X216788015Y-59392423D01*
G37*
G36*
X177926015Y-59257423D02*
G01*
X177954106Y-59265944D01*
X177979998Y-59279784D01*
X178002692Y-59298408D01*
X178021316Y-59321102D01*
X178035156Y-59346994D01*
X178043677Y-59375085D01*
X178046800Y-59406791D01*
X178046800Y-59803409D01*
X178043677Y-59835115D01*
X178035156Y-59863206D01*
X178021316Y-59889098D01*
X178002692Y-59911792D01*
X177979998Y-59930416D01*
X177954106Y-59944256D01*
X177926015Y-59952777D01*
X177894309Y-59955900D01*
X174795691Y-59955900D01*
X174763985Y-59952777D01*
X174735894Y-59944256D01*
X174710002Y-59930416D01*
X174687308Y-59911792D01*
X174668684Y-59889098D01*
X174654844Y-59863206D01*
X174646323Y-59835115D01*
X174643200Y-59803409D01*
X174643200Y-59406791D01*
X174646323Y-59375085D01*
X174654844Y-59346994D01*
X174668684Y-59321102D01*
X174687308Y-59298408D01*
X174710002Y-59279784D01*
X174735894Y-59265944D01*
X174763985Y-59257423D01*
X174795691Y-59254300D01*
X177894309Y-59254300D01*
X177926015Y-59257423D01*
G37*
G36*
X184273015Y-59257423D02*
G01*
X184301106Y-59265944D01*
X184326998Y-59279784D01*
X184349692Y-59298408D01*
X184368316Y-59321102D01*
X184382156Y-59346994D01*
X184390677Y-59375085D01*
X184393800Y-59406791D01*
X184393800Y-59803409D01*
X184390677Y-59835115D01*
X184382156Y-59863206D01*
X184368316Y-59889098D01*
X184349692Y-59911792D01*
X184326998Y-59930416D01*
X184301106Y-59944256D01*
X184273015Y-59952777D01*
X184241309Y-59955900D01*
X181142691Y-59955900D01*
X181110985Y-59952777D01*
X181082894Y-59944256D01*
X181057002Y-59930416D01*
X181034308Y-59911792D01*
X181015684Y-59889098D01*
X181001844Y-59863206D01*
X180993323Y-59835115D01*
X180990200Y-59803409D01*
X180990200Y-59406791D01*
X180993323Y-59375085D01*
X181001844Y-59346994D01*
X181015684Y-59321102D01*
X181034308Y-59298408D01*
X181057002Y-59279784D01*
X181082894Y-59265944D01*
X181110985Y-59257423D01*
X181142691Y-59254300D01*
X184241309Y-59254300D01*
X184273015Y-59257423D01*
G37*
G36*
X223136515Y-58185923D02*
G01*
X223164606Y-58194444D01*
X223190498Y-58208284D01*
X223213192Y-58226908D01*
X223231816Y-58249602D01*
X223245656Y-58275494D01*
X223254177Y-58303585D01*
X223257300Y-58335291D01*
X223257300Y-58731909D01*
X223254177Y-58763615D01*
X223245656Y-58791706D01*
X223231816Y-58817598D01*
X223213192Y-58840292D01*
X223190498Y-58858916D01*
X223164606Y-58872756D01*
X223136515Y-58881277D01*
X223104809Y-58884400D01*
X220006191Y-58884400D01*
X219974485Y-58881277D01*
X219946394Y-58872756D01*
X219920502Y-58858916D01*
X219897808Y-58840292D01*
X219879184Y-58817598D01*
X219865344Y-58791706D01*
X219856823Y-58763615D01*
X219853700Y-58731909D01*
X219853700Y-58335291D01*
X219856823Y-58303585D01*
X219865344Y-58275494D01*
X219879184Y-58249602D01*
X219897808Y-58226908D01*
X219920502Y-58208284D01*
X219946394Y-58194444D01*
X219974485Y-58185923D01*
X220006191Y-58182800D01*
X223104809Y-58182800D01*
X223136515Y-58185923D01*
G37*
G36*
X216786515Y-58122423D02*
G01*
X216814606Y-58130944D01*
X216840498Y-58144784D01*
X216863192Y-58163408D01*
X216881816Y-58186102D01*
X216895656Y-58211994D01*
X216904177Y-58240085D01*
X216907300Y-58271791D01*
X216907300Y-58668409D01*
X216904177Y-58700115D01*
X216895656Y-58728206D01*
X216881816Y-58754098D01*
X216863192Y-58776792D01*
X216840498Y-58795416D01*
X216814606Y-58809256D01*
X216786515Y-58817777D01*
X216754809Y-58820900D01*
X213656191Y-58820900D01*
X213624485Y-58817777D01*
X213596394Y-58809256D01*
X213570502Y-58795416D01*
X213547808Y-58776792D01*
X213529184Y-58754098D01*
X213515344Y-58728206D01*
X213506823Y-58700115D01*
X213503700Y-58668409D01*
X213503700Y-58271791D01*
X213506823Y-58240085D01*
X213515344Y-58211994D01*
X213529184Y-58186102D01*
X213547808Y-58163408D01*
X213570502Y-58144784D01*
X213596394Y-58130944D01*
X213624485Y-58122423D01*
X213656191Y-58119300D01*
X216754809Y-58119300D01*
X216786515Y-58122423D01*
G37*
G36*
X177926015Y-57987423D02*
G01*
X177954106Y-57995944D01*
X177979998Y-58009784D01*
X178002692Y-58028408D01*
X178021316Y-58051102D01*
X178035156Y-58076994D01*
X178043677Y-58105085D01*
X178046800Y-58136791D01*
X178046800Y-58533409D01*
X178043677Y-58565115D01*
X178035156Y-58593206D01*
X178021316Y-58619098D01*
X178002692Y-58641792D01*
X177979998Y-58660416D01*
X177954106Y-58674256D01*
X177926015Y-58682777D01*
X177894309Y-58685900D01*
X174795691Y-58685900D01*
X174763985Y-58682777D01*
X174735894Y-58674256D01*
X174710002Y-58660416D01*
X174687308Y-58641792D01*
X174668684Y-58619098D01*
X174654844Y-58593206D01*
X174646323Y-58565115D01*
X174643200Y-58533409D01*
X174643200Y-58136791D01*
X174646323Y-58105085D01*
X174654844Y-58076994D01*
X174668684Y-58051102D01*
X174687308Y-58028408D01*
X174710002Y-58009784D01*
X174735894Y-57995944D01*
X174763985Y-57987423D01*
X174795691Y-57984300D01*
X177894309Y-57984300D01*
X177926015Y-57987423D01*
G37*
G36*
X184273015Y-57987423D02*
G01*
X184301106Y-57995944D01*
X184326998Y-58009784D01*
X184349692Y-58028408D01*
X184368316Y-58051102D01*
X184382156Y-58076994D01*
X184390677Y-58105085D01*
X184393800Y-58136791D01*
X184393800Y-58533409D01*
X184390677Y-58565115D01*
X184382156Y-58593206D01*
X184368316Y-58619098D01*
X184349692Y-58641792D01*
X184326998Y-58660416D01*
X184301106Y-58674256D01*
X184273015Y-58682777D01*
X184241309Y-58685900D01*
X181142691Y-58685900D01*
X181110985Y-58682777D01*
X181082894Y-58674256D01*
X181057002Y-58660416D01*
X181034308Y-58641792D01*
X181015684Y-58619098D01*
X181001844Y-58593206D01*
X180993323Y-58565115D01*
X180990200Y-58533409D01*
X180990200Y-58136791D01*
X180993323Y-58105085D01*
X181001844Y-58076994D01*
X181015684Y-58051102D01*
X181034308Y-58028408D01*
X181057002Y-58009784D01*
X181082894Y-57995944D01*
X181110985Y-57987423D01*
X181142691Y-57984300D01*
X184241309Y-57984300D01*
X184273015Y-57987423D01*
G37*
G36*
X223135015Y-54312423D02*
G01*
X223163106Y-54320944D01*
X223188998Y-54334784D01*
X223211692Y-54353408D01*
X223230316Y-54376102D01*
X223244156Y-54401994D01*
X223252677Y-54430085D01*
X223255800Y-54461791D01*
X223255800Y-54858409D01*
X223252677Y-54890115D01*
X223244156Y-54918206D01*
X223230316Y-54944098D01*
X223211692Y-54966792D01*
X223188998Y-54985416D01*
X223163106Y-54999256D01*
X223135015Y-55007777D01*
X223103309Y-55010900D01*
X220004691Y-55010900D01*
X219972985Y-55007777D01*
X219944894Y-54999256D01*
X219919002Y-54985416D01*
X219896308Y-54966792D01*
X219877684Y-54944098D01*
X219863844Y-54918206D01*
X219855323Y-54890115D01*
X219852200Y-54858409D01*
X219852200Y-54461791D01*
X219855323Y-54430085D01*
X219863844Y-54401994D01*
X219877684Y-54376102D01*
X219896308Y-54353408D01*
X219919002Y-54334784D01*
X219944894Y-54320944D01*
X219972985Y-54312423D01*
X220004691Y-54309300D01*
X223103309Y-54309300D01*
X223135015Y-54312423D01*
G37*
G36*
X216788015Y-54312423D02*
G01*
X216816106Y-54320944D01*
X216841998Y-54334784D01*
X216864692Y-54353408D01*
X216883316Y-54376102D01*
X216897156Y-54401994D01*
X216905677Y-54430085D01*
X216908800Y-54461791D01*
X216908800Y-54858409D01*
X216905677Y-54890115D01*
X216897156Y-54918206D01*
X216883316Y-54944098D01*
X216864692Y-54966792D01*
X216841998Y-54985416D01*
X216816106Y-54999256D01*
X216788015Y-55007777D01*
X216756309Y-55010900D01*
X213657691Y-55010900D01*
X213625985Y-55007777D01*
X213597894Y-54999256D01*
X213572002Y-54985416D01*
X213549308Y-54966792D01*
X213530684Y-54944098D01*
X213516844Y-54918206D01*
X213508323Y-54890115D01*
X213505200Y-54858409D01*
X213505200Y-54461791D01*
X213508323Y-54430085D01*
X213516844Y-54401994D01*
X213530684Y-54376102D01*
X213549308Y-54353408D01*
X213572002Y-54334784D01*
X213597894Y-54320944D01*
X213625985Y-54312423D01*
X213657691Y-54309300D01*
X216756309Y-54309300D01*
X216788015Y-54312423D01*
G37*
G36*
X202287015Y-51553923D02*
G01*
X202315106Y-51562444D01*
X202340998Y-51576284D01*
X202363692Y-51594908D01*
X202382316Y-51617602D01*
X202396156Y-51643494D01*
X202404677Y-51671585D01*
X202407800Y-51703291D01*
X202407800Y-54801909D01*
X202404677Y-54833615D01*
X202396156Y-54861706D01*
X202382316Y-54887598D01*
X202363692Y-54910292D01*
X202340998Y-54928916D01*
X202315106Y-54942756D01*
X202287015Y-54951277D01*
X202255309Y-54954400D01*
X201858691Y-54954400D01*
X201826985Y-54951277D01*
X201798894Y-54942756D01*
X201773002Y-54928916D01*
X201750308Y-54910292D01*
X201731684Y-54887598D01*
X201717844Y-54861706D01*
X201709323Y-54833615D01*
X201706200Y-54801909D01*
X201706200Y-51703291D01*
X201709323Y-51671585D01*
X201717844Y-51643494D01*
X201731684Y-51617602D01*
X201750308Y-51594908D01*
X201773002Y-51576284D01*
X201798894Y-51562444D01*
X201826985Y-51553923D01*
X201858691Y-51550800D01*
X202255309Y-51550800D01*
X202287015Y-51553923D01*
G37*
G36*
X201017015Y-51553923D02*
G01*
X201045106Y-51562444D01*
X201070998Y-51576284D01*
X201093692Y-51594908D01*
X201112316Y-51617602D01*
X201126156Y-51643494D01*
X201134677Y-51671585D01*
X201137800Y-51703291D01*
X201137800Y-54801909D01*
X201134677Y-54833615D01*
X201126156Y-54861706D01*
X201112316Y-54887598D01*
X201093692Y-54910292D01*
X201070998Y-54928916D01*
X201045106Y-54942756D01*
X201017015Y-54951277D01*
X200985309Y-54954400D01*
X200588691Y-54954400D01*
X200556985Y-54951277D01*
X200528894Y-54942756D01*
X200503002Y-54928916D01*
X200480308Y-54910292D01*
X200461684Y-54887598D01*
X200447844Y-54861706D01*
X200439323Y-54833615D01*
X200436200Y-54801909D01*
X200436200Y-51703291D01*
X200439323Y-51671585D01*
X200447844Y-51643494D01*
X200461684Y-51617602D01*
X200480308Y-51594908D01*
X200503002Y-51576284D01*
X200528894Y-51562444D01*
X200556985Y-51553923D01*
X200588691Y-51550800D01*
X200985309Y-51550800D01*
X201017015Y-51553923D01*
G37*
G36*
X199747015Y-51553923D02*
G01*
X199775106Y-51562444D01*
X199800998Y-51576284D01*
X199823692Y-51594908D01*
X199842316Y-51617602D01*
X199856156Y-51643494D01*
X199864677Y-51671585D01*
X199867800Y-51703291D01*
X199867800Y-54801909D01*
X199864677Y-54833615D01*
X199856156Y-54861706D01*
X199842316Y-54887598D01*
X199823692Y-54910292D01*
X199800998Y-54928916D01*
X199775106Y-54942756D01*
X199747015Y-54951277D01*
X199715309Y-54954400D01*
X199318691Y-54954400D01*
X199286985Y-54951277D01*
X199258894Y-54942756D01*
X199233002Y-54928916D01*
X199210308Y-54910292D01*
X199191684Y-54887598D01*
X199177844Y-54861706D01*
X199169323Y-54833615D01*
X199166200Y-54801909D01*
X199166200Y-51703291D01*
X199169323Y-51671585D01*
X199177844Y-51643494D01*
X199191684Y-51617602D01*
X199210308Y-51594908D01*
X199233002Y-51576284D01*
X199258894Y-51562444D01*
X199286985Y-51553923D01*
X199318691Y-51550800D01*
X199715309Y-51550800D01*
X199747015Y-51553923D01*
G37*
G36*
X198477015Y-51553923D02*
G01*
X198505106Y-51562444D01*
X198530998Y-51576284D01*
X198553692Y-51594908D01*
X198572316Y-51617602D01*
X198586156Y-51643494D01*
X198594677Y-51671585D01*
X198597800Y-51703291D01*
X198597800Y-54801909D01*
X198594677Y-54833615D01*
X198586156Y-54861706D01*
X198572316Y-54887598D01*
X198553692Y-54910292D01*
X198530998Y-54928916D01*
X198505106Y-54942756D01*
X198477015Y-54951277D01*
X198445309Y-54954400D01*
X198048691Y-54954400D01*
X198016985Y-54951277D01*
X197988894Y-54942756D01*
X197963002Y-54928916D01*
X197940308Y-54910292D01*
X197921684Y-54887598D01*
X197907844Y-54861706D01*
X197899323Y-54833615D01*
X197896200Y-54801909D01*
X197896200Y-51703291D01*
X197899323Y-51671585D01*
X197907844Y-51643494D01*
X197921684Y-51617602D01*
X197940308Y-51594908D01*
X197963002Y-51576284D01*
X197988894Y-51562444D01*
X198016985Y-51553923D01*
X198048691Y-51550800D01*
X198445309Y-51550800D01*
X198477015Y-51553923D01*
G37*
G36*
X197207015Y-51553923D02*
G01*
X197235106Y-51562444D01*
X197260998Y-51576284D01*
X197283692Y-51594908D01*
X197302316Y-51617602D01*
X197316156Y-51643494D01*
X197324677Y-51671585D01*
X197327800Y-51703291D01*
X197327800Y-54801909D01*
X197324677Y-54833615D01*
X197316156Y-54861706D01*
X197302316Y-54887598D01*
X197283692Y-54910292D01*
X197260998Y-54928916D01*
X197235106Y-54942756D01*
X197207015Y-54951277D01*
X197175309Y-54954400D01*
X196778691Y-54954400D01*
X196746985Y-54951277D01*
X196718894Y-54942756D01*
X196693002Y-54928916D01*
X196670308Y-54910292D01*
X196651684Y-54887598D01*
X196637844Y-54861706D01*
X196629323Y-54833615D01*
X196626200Y-54801909D01*
X196626200Y-51703291D01*
X196629323Y-51671585D01*
X196637844Y-51643494D01*
X196651684Y-51617602D01*
X196670308Y-51594908D01*
X196693002Y-51576284D01*
X196718894Y-51562444D01*
X196746985Y-51553923D01*
X196778691Y-51550800D01*
X197175309Y-51550800D01*
X197207015Y-51553923D01*
G37*
G36*
X195937015Y-51553923D02*
G01*
X195965106Y-51562444D01*
X195990998Y-51576284D01*
X196013692Y-51594908D01*
X196032316Y-51617602D01*
X196046156Y-51643494D01*
X196054677Y-51671585D01*
X196057800Y-51703291D01*
X196057800Y-54801909D01*
X196054677Y-54833615D01*
X196046156Y-54861706D01*
X196032316Y-54887598D01*
X196013692Y-54910292D01*
X195990998Y-54928916D01*
X195965106Y-54942756D01*
X195937015Y-54951277D01*
X195905309Y-54954400D01*
X195508691Y-54954400D01*
X195476985Y-54951277D01*
X195448894Y-54942756D01*
X195423002Y-54928916D01*
X195400308Y-54910292D01*
X195381684Y-54887598D01*
X195367844Y-54861706D01*
X195359323Y-54833615D01*
X195356200Y-54801909D01*
X195356200Y-51703291D01*
X195359323Y-51671585D01*
X195367844Y-51643494D01*
X195381684Y-51617602D01*
X195400308Y-51594908D01*
X195423002Y-51576284D01*
X195448894Y-51562444D01*
X195476985Y-51553923D01*
X195508691Y-51550800D01*
X195905309Y-51550800D01*
X195937015Y-51553923D01*
G37*
G36*
X194667015Y-51553923D02*
G01*
X194695106Y-51562444D01*
X194720998Y-51576284D01*
X194743692Y-51594908D01*
X194762316Y-51617602D01*
X194776156Y-51643494D01*
X194784677Y-51671585D01*
X194787800Y-51703291D01*
X194787800Y-54801909D01*
X194784677Y-54833615D01*
X194776156Y-54861706D01*
X194762316Y-54887598D01*
X194743692Y-54910292D01*
X194720998Y-54928916D01*
X194695106Y-54942756D01*
X194667015Y-54951277D01*
X194635309Y-54954400D01*
X194238691Y-54954400D01*
X194206985Y-54951277D01*
X194178894Y-54942756D01*
X194153002Y-54928916D01*
X194130308Y-54910292D01*
X194111684Y-54887598D01*
X194097844Y-54861706D01*
X194089323Y-54833615D01*
X194086200Y-54801909D01*
X194086200Y-51703291D01*
X194089323Y-51671585D01*
X194097844Y-51643494D01*
X194111684Y-51617602D01*
X194130308Y-51594908D01*
X194153002Y-51576284D01*
X194178894Y-51562444D01*
X194206985Y-51553923D01*
X194238691Y-51550800D01*
X194635309Y-51550800D01*
X194667015Y-51553923D01*
G37*
G36*
X203557015Y-51539723D02*
G01*
X203585106Y-51548244D01*
X203610998Y-51562084D01*
X203633692Y-51580708D01*
X203652316Y-51603402D01*
X203666156Y-51629294D01*
X203674677Y-51657385D01*
X203677800Y-51689091D01*
X203677800Y-54787709D01*
X203674677Y-54819415D01*
X203666156Y-54847506D01*
X203652316Y-54873398D01*
X203633692Y-54896092D01*
X203610998Y-54914716D01*
X203585106Y-54928556D01*
X203557015Y-54937077D01*
X203525309Y-54940200D01*
X203128691Y-54940200D01*
X203096985Y-54937077D01*
X203068894Y-54928556D01*
X203043002Y-54914716D01*
X203020308Y-54896092D01*
X203001684Y-54873398D01*
X202987844Y-54847506D01*
X202979323Y-54819415D01*
X202976200Y-54787709D01*
X202976200Y-51689091D01*
X202979323Y-51657385D01*
X202987844Y-51629294D01*
X203001684Y-51603402D01*
X203020308Y-51580708D01*
X203043002Y-51562084D01*
X203068894Y-51548244D01*
X203096985Y-51539723D01*
X203128691Y-51536600D01*
X203525309Y-51536600D01*
X203557015Y-51539723D01*
G37*
G36*
X184274515Y-54177423D02*
G01*
X184302606Y-54185944D01*
X184328498Y-54199784D01*
X184351192Y-54218408D01*
X184369816Y-54241102D01*
X184383656Y-54266994D01*
X184392177Y-54295085D01*
X184395300Y-54326791D01*
X184395300Y-54723409D01*
X184392177Y-54755115D01*
X184383656Y-54783206D01*
X184369816Y-54809098D01*
X184351192Y-54831792D01*
X184328498Y-54850416D01*
X184302606Y-54864256D01*
X184274515Y-54872777D01*
X184242809Y-54875900D01*
X181144191Y-54875900D01*
X181112485Y-54872777D01*
X181084394Y-54864256D01*
X181058502Y-54850416D01*
X181035808Y-54831792D01*
X181017184Y-54809098D01*
X181003344Y-54783206D01*
X180994823Y-54755115D01*
X180991700Y-54723409D01*
X180991700Y-54326791D01*
X180994823Y-54295085D01*
X181003344Y-54266994D01*
X181017184Y-54241102D01*
X181035808Y-54218408D01*
X181058502Y-54199784D01*
X181084394Y-54185944D01*
X181112485Y-54177423D01*
X181144191Y-54174300D01*
X184242809Y-54174300D01*
X184274515Y-54177423D01*
G37*
G36*
X177924515Y-54113923D02*
G01*
X177952606Y-54122444D01*
X177978498Y-54136284D01*
X178001192Y-54154908D01*
X178019816Y-54177602D01*
X178033656Y-54203494D01*
X178042177Y-54231585D01*
X178045300Y-54263291D01*
X178045300Y-54659909D01*
X178042177Y-54691615D01*
X178033656Y-54719706D01*
X178019816Y-54745598D01*
X178001192Y-54768292D01*
X177978498Y-54786916D01*
X177952606Y-54800756D01*
X177924515Y-54809277D01*
X177892809Y-54812400D01*
X174794191Y-54812400D01*
X174762485Y-54809277D01*
X174734394Y-54800756D01*
X174708502Y-54786916D01*
X174685808Y-54768292D01*
X174667184Y-54745598D01*
X174653344Y-54719706D01*
X174644823Y-54691615D01*
X174641700Y-54659909D01*
X174641700Y-54263291D01*
X174644823Y-54231585D01*
X174653344Y-54203494D01*
X174667184Y-54177602D01*
X174685808Y-54154908D01*
X174708502Y-54136284D01*
X174734394Y-54122444D01*
X174762485Y-54113923D01*
X174794191Y-54110800D01*
X177892809Y-54110800D01*
X177924515Y-54113923D01*
G37*
G36*
X216788015Y-53042423D02*
G01*
X216816106Y-53050944D01*
X216841998Y-53064784D01*
X216864692Y-53083408D01*
X216883316Y-53106102D01*
X216897156Y-53131994D01*
X216905677Y-53160085D01*
X216908800Y-53191791D01*
X216908800Y-53588409D01*
X216905677Y-53620115D01*
X216897156Y-53648206D01*
X216883316Y-53674098D01*
X216864692Y-53696792D01*
X216841998Y-53715416D01*
X216816106Y-53729256D01*
X216788015Y-53737777D01*
X216756309Y-53740900D01*
X213657691Y-53740900D01*
X213625985Y-53737777D01*
X213597894Y-53729256D01*
X213572002Y-53715416D01*
X213549308Y-53696792D01*
X213530684Y-53674098D01*
X213516844Y-53648206D01*
X213508323Y-53620115D01*
X213505200Y-53588409D01*
X213505200Y-53191791D01*
X213508323Y-53160085D01*
X213516844Y-53131994D01*
X213530684Y-53106102D01*
X213549308Y-53083408D01*
X213572002Y-53064784D01*
X213597894Y-53050944D01*
X213625985Y-53042423D01*
X213657691Y-53039300D01*
X216756309Y-53039300D01*
X216788015Y-53042423D01*
G37*
G36*
X223135015Y-53042423D02*
G01*
X223163106Y-53050944D01*
X223188998Y-53064784D01*
X223211692Y-53083408D01*
X223230316Y-53106102D01*
X223244156Y-53131994D01*
X223252677Y-53160085D01*
X223255800Y-53191791D01*
X223255800Y-53588409D01*
X223252677Y-53620115D01*
X223244156Y-53648206D01*
X223230316Y-53674098D01*
X223211692Y-53696792D01*
X223188998Y-53715416D01*
X223163106Y-53729256D01*
X223135015Y-53737777D01*
X223103309Y-53740900D01*
X220004691Y-53740900D01*
X219972985Y-53737777D01*
X219944894Y-53729256D01*
X219919002Y-53715416D01*
X219896308Y-53696792D01*
X219877684Y-53674098D01*
X219863844Y-53648206D01*
X219855323Y-53620115D01*
X219852200Y-53588409D01*
X219852200Y-53191791D01*
X219855323Y-53160085D01*
X219863844Y-53131994D01*
X219877684Y-53106102D01*
X219896308Y-53083408D01*
X219919002Y-53064784D01*
X219944894Y-53050944D01*
X219972985Y-53042423D01*
X220004691Y-53039300D01*
X223103309Y-53039300D01*
X223135015Y-53042423D01*
G37*
G36*
X177926015Y-52907423D02*
G01*
X177954106Y-52915944D01*
X177979998Y-52929784D01*
X178002692Y-52948408D01*
X178021316Y-52971102D01*
X178035156Y-52996994D01*
X178043677Y-53025085D01*
X178046800Y-53056791D01*
X178046800Y-53453409D01*
X178043677Y-53485115D01*
X178035156Y-53513206D01*
X178021316Y-53539098D01*
X178002692Y-53561792D01*
X177979998Y-53580416D01*
X177954106Y-53594256D01*
X177926015Y-53602777D01*
X177894309Y-53605900D01*
X174795691Y-53605900D01*
X174763985Y-53602777D01*
X174735894Y-53594256D01*
X174710002Y-53580416D01*
X174687308Y-53561792D01*
X174668684Y-53539098D01*
X174654844Y-53513206D01*
X174646323Y-53485115D01*
X174643200Y-53453409D01*
X174643200Y-53056791D01*
X174646323Y-53025085D01*
X174654844Y-52996994D01*
X174668684Y-52971102D01*
X174687308Y-52948408D01*
X174710002Y-52929784D01*
X174735894Y-52915944D01*
X174763985Y-52907423D01*
X174795691Y-52904300D01*
X177894309Y-52904300D01*
X177926015Y-52907423D01*
G37*
G36*
X184273015Y-52907423D02*
G01*
X184301106Y-52915944D01*
X184326998Y-52929784D01*
X184349692Y-52948408D01*
X184368316Y-52971102D01*
X184382156Y-52996994D01*
X184390677Y-53025085D01*
X184393800Y-53056791D01*
X184393800Y-53453409D01*
X184390677Y-53485115D01*
X184382156Y-53513206D01*
X184368316Y-53539098D01*
X184349692Y-53561792D01*
X184326998Y-53580416D01*
X184301106Y-53594256D01*
X184273015Y-53602777D01*
X184241309Y-53605900D01*
X181142691Y-53605900D01*
X181110985Y-53602777D01*
X181082894Y-53594256D01*
X181057002Y-53580416D01*
X181034308Y-53561792D01*
X181015684Y-53539098D01*
X181001844Y-53513206D01*
X180993323Y-53485115D01*
X180990200Y-53453409D01*
X180990200Y-53056791D01*
X180993323Y-53025085D01*
X181001844Y-52996994D01*
X181015684Y-52971102D01*
X181034308Y-52948408D01*
X181057002Y-52929784D01*
X181082894Y-52915944D01*
X181110985Y-52907423D01*
X181142691Y-52904300D01*
X184241309Y-52904300D01*
X184273015Y-52907423D01*
G37*
G36*
X223135015Y-51772423D02*
G01*
X223163106Y-51780944D01*
X223188998Y-51794784D01*
X223211692Y-51813408D01*
X223230316Y-51836102D01*
X223244156Y-51861994D01*
X223252677Y-51890085D01*
X223255800Y-51921791D01*
X223255800Y-52318409D01*
X223252677Y-52350115D01*
X223244156Y-52378206D01*
X223230316Y-52404098D01*
X223211692Y-52426792D01*
X223188998Y-52445416D01*
X223163106Y-52459256D01*
X223135015Y-52467777D01*
X223103309Y-52470900D01*
X220004691Y-52470900D01*
X219972985Y-52467777D01*
X219944894Y-52459256D01*
X219919002Y-52445416D01*
X219896308Y-52426792D01*
X219877684Y-52404098D01*
X219863844Y-52378206D01*
X219855323Y-52350115D01*
X219852200Y-52318409D01*
X219852200Y-51921791D01*
X219855323Y-51890085D01*
X219863844Y-51861994D01*
X219877684Y-51836102D01*
X219896308Y-51813408D01*
X219919002Y-51794784D01*
X219944894Y-51780944D01*
X219972985Y-51772423D01*
X220004691Y-51769300D01*
X223103309Y-51769300D01*
X223135015Y-51772423D01*
G37*
G36*
X216788015Y-51772423D02*
G01*
X216816106Y-51780944D01*
X216841998Y-51794784D01*
X216864692Y-51813408D01*
X216883316Y-51836102D01*
X216897156Y-51861994D01*
X216905677Y-51890085D01*
X216908800Y-51921791D01*
X216908800Y-52318409D01*
X216905677Y-52350115D01*
X216897156Y-52378206D01*
X216883316Y-52404098D01*
X216864692Y-52426792D01*
X216841998Y-52445416D01*
X216816106Y-52459256D01*
X216788015Y-52467777D01*
X216756309Y-52470900D01*
X213657691Y-52470900D01*
X213625985Y-52467777D01*
X213597894Y-52459256D01*
X213572002Y-52445416D01*
X213549308Y-52426792D01*
X213530684Y-52404098D01*
X213516844Y-52378206D01*
X213508323Y-52350115D01*
X213505200Y-52318409D01*
X213505200Y-51921791D01*
X213508323Y-51890085D01*
X213516844Y-51861994D01*
X213530684Y-51836102D01*
X213549308Y-51813408D01*
X213572002Y-51794784D01*
X213597894Y-51780944D01*
X213625985Y-51772423D01*
X213657691Y-51769300D01*
X216756309Y-51769300D01*
X216788015Y-51772423D01*
G37*
G36*
X177926015Y-51637423D02*
G01*
X177954106Y-51645944D01*
X177979998Y-51659784D01*
X178002692Y-51678408D01*
X178021316Y-51701102D01*
X178035156Y-51726994D01*
X178043677Y-51755085D01*
X178046800Y-51786791D01*
X178046800Y-52183409D01*
X178043677Y-52215115D01*
X178035156Y-52243206D01*
X178021316Y-52269098D01*
X178002692Y-52291792D01*
X177979998Y-52310416D01*
X177954106Y-52324256D01*
X177926015Y-52332777D01*
X177894309Y-52335900D01*
X174795691Y-52335900D01*
X174763985Y-52332777D01*
X174735894Y-52324256D01*
X174710002Y-52310416D01*
X174687308Y-52291792D01*
X174668684Y-52269098D01*
X174654844Y-52243206D01*
X174646323Y-52215115D01*
X174643200Y-52183409D01*
X174643200Y-51786791D01*
X174646323Y-51755085D01*
X174654844Y-51726994D01*
X174668684Y-51701102D01*
X174687308Y-51678408D01*
X174710002Y-51659784D01*
X174735894Y-51645944D01*
X174763985Y-51637423D01*
X174795691Y-51634300D01*
X177894309Y-51634300D01*
X177926015Y-51637423D01*
G37*
G36*
X184273015Y-51637423D02*
G01*
X184301106Y-51645944D01*
X184326998Y-51659784D01*
X184349692Y-51678408D01*
X184368316Y-51701102D01*
X184382156Y-51726994D01*
X184390677Y-51755085D01*
X184393800Y-51786791D01*
X184393800Y-52183409D01*
X184390677Y-52215115D01*
X184382156Y-52243206D01*
X184368316Y-52269098D01*
X184349692Y-52291792D01*
X184326998Y-52310416D01*
X184301106Y-52324256D01*
X184273015Y-52332777D01*
X184241309Y-52335900D01*
X181142691Y-52335900D01*
X181110985Y-52332777D01*
X181082894Y-52324256D01*
X181057002Y-52310416D01*
X181034308Y-52291792D01*
X181015684Y-52269098D01*
X181001844Y-52243206D01*
X180993323Y-52215115D01*
X180990200Y-52183409D01*
X180990200Y-51786791D01*
X180993323Y-51755085D01*
X181001844Y-51726994D01*
X181015684Y-51701102D01*
X181034308Y-51678408D01*
X181057002Y-51659784D01*
X181082894Y-51645944D01*
X181110985Y-51637423D01*
X181142691Y-51634300D01*
X184241309Y-51634300D01*
X184273015Y-51637423D01*
G37*
G36*
X223136515Y-50565923D02*
G01*
X223164606Y-50574444D01*
X223190498Y-50588284D01*
X223213192Y-50606908D01*
X223231816Y-50629602D01*
X223245656Y-50655494D01*
X223254177Y-50683585D01*
X223257300Y-50715291D01*
X223257300Y-51111909D01*
X223254177Y-51143615D01*
X223245656Y-51171706D01*
X223231816Y-51197598D01*
X223213192Y-51220292D01*
X223190498Y-51238916D01*
X223164606Y-51252756D01*
X223136515Y-51261277D01*
X223104809Y-51264400D01*
X220006191Y-51264400D01*
X219974485Y-51261277D01*
X219946394Y-51252756D01*
X219920502Y-51238916D01*
X219897808Y-51220292D01*
X219879184Y-51197598D01*
X219865344Y-51171706D01*
X219856823Y-51143615D01*
X219853700Y-51111909D01*
X219853700Y-50715291D01*
X219856823Y-50683585D01*
X219865344Y-50655494D01*
X219879184Y-50629602D01*
X219897808Y-50606908D01*
X219920502Y-50588284D01*
X219946394Y-50574444D01*
X219974485Y-50565923D01*
X220006191Y-50562800D01*
X223104809Y-50562800D01*
X223136515Y-50565923D01*
G37*
G36*
X216786515Y-50502423D02*
G01*
X216814606Y-50510944D01*
X216840498Y-50524784D01*
X216863192Y-50543408D01*
X216881816Y-50566102D01*
X216895656Y-50591994D01*
X216904177Y-50620085D01*
X216907300Y-50651791D01*
X216907300Y-51048409D01*
X216904177Y-51080115D01*
X216895656Y-51108206D01*
X216881816Y-51134098D01*
X216863192Y-51156792D01*
X216840498Y-51175416D01*
X216814606Y-51189256D01*
X216786515Y-51197777D01*
X216754809Y-51200900D01*
X213656191Y-51200900D01*
X213624485Y-51197777D01*
X213596394Y-51189256D01*
X213570502Y-51175416D01*
X213547808Y-51156792D01*
X213529184Y-51134098D01*
X213515344Y-51108206D01*
X213506823Y-51080115D01*
X213503700Y-51048409D01*
X213503700Y-50651791D01*
X213506823Y-50620085D01*
X213515344Y-50591994D01*
X213529184Y-50566102D01*
X213547808Y-50543408D01*
X213570502Y-50524784D01*
X213596394Y-50510944D01*
X213624485Y-50502423D01*
X213656191Y-50499300D01*
X216754809Y-50499300D01*
X216786515Y-50502423D01*
G37*
G36*
X184273015Y-50367423D02*
G01*
X184301106Y-50375944D01*
X184326998Y-50389784D01*
X184349692Y-50408408D01*
X184368316Y-50431102D01*
X184382156Y-50456994D01*
X184390677Y-50485085D01*
X184393800Y-50516791D01*
X184393800Y-50913409D01*
X184390677Y-50945115D01*
X184382156Y-50973206D01*
X184368316Y-50999098D01*
X184349692Y-51021792D01*
X184326998Y-51040416D01*
X184301106Y-51054256D01*
X184273015Y-51062777D01*
X184241309Y-51065900D01*
X181142691Y-51065900D01*
X181110985Y-51062777D01*
X181082894Y-51054256D01*
X181057002Y-51040416D01*
X181034308Y-51021792D01*
X181015684Y-50999098D01*
X181001844Y-50973206D01*
X180993323Y-50945115D01*
X180990200Y-50913409D01*
X180990200Y-50516791D01*
X180993323Y-50485085D01*
X181001844Y-50456994D01*
X181015684Y-50431102D01*
X181034308Y-50408408D01*
X181057002Y-50389784D01*
X181082894Y-50375944D01*
X181110985Y-50367423D01*
X181142691Y-50364300D01*
X184241309Y-50364300D01*
X184273015Y-50367423D01*
G37*
G36*
X177926015Y-50367423D02*
G01*
X177954106Y-50375944D01*
X177979998Y-50389784D01*
X178002692Y-50408408D01*
X178021316Y-50431102D01*
X178035156Y-50456994D01*
X178043677Y-50485085D01*
X178046800Y-50516791D01*
X178046800Y-50913409D01*
X178043677Y-50945115D01*
X178035156Y-50973206D01*
X178021316Y-50999098D01*
X178002692Y-51021792D01*
X177979998Y-51040416D01*
X177954106Y-51054256D01*
X177926015Y-51062777D01*
X177894309Y-51065900D01*
X174795691Y-51065900D01*
X174763985Y-51062777D01*
X174735894Y-51054256D01*
X174710002Y-51040416D01*
X174687308Y-51021792D01*
X174668684Y-50999098D01*
X174654844Y-50973206D01*
X174646323Y-50945115D01*
X174643200Y-50913409D01*
X174643200Y-50516791D01*
X174646323Y-50485085D01*
X174654844Y-50456994D01*
X174668684Y-50431102D01*
X174687308Y-50408408D01*
X174710002Y-50389784D01*
X174735894Y-50375944D01*
X174763985Y-50367423D01*
X174795691Y-50364300D01*
X177894309Y-50364300D01*
X177926015Y-50367423D01*
G37*
G36*
X203310086Y-41406435D02*
G01*
X203458003Y-41467704D01*
X203591134Y-41556660D01*
X203704340Y-41669866D01*
X203793296Y-41802997D01*
X203854565Y-41950914D01*
X203885800Y-42107946D01*
X203885800Y-42268054D01*
X203854565Y-42425086D01*
X203793296Y-42573003D01*
X203704340Y-42706134D01*
X203591134Y-42819340D01*
X203458003Y-42908296D01*
X203310086Y-42969565D01*
X203153054Y-43000800D01*
X202992946Y-43000800D01*
X202835914Y-42969565D01*
X202687997Y-42908296D01*
X202554866Y-42819340D01*
X202441660Y-42706134D01*
X202352704Y-42573003D01*
X202291435Y-42425086D01*
X202260200Y-42268054D01*
X202260200Y-42107946D01*
X202291435Y-41950914D01*
X202352704Y-41802997D01*
X202441660Y-41669866D01*
X202554866Y-41556660D01*
X202687997Y-41467704D01*
X202835914Y-41406435D01*
X202992946Y-41375200D01*
X203153054Y-41375200D01*
X203310086Y-41406435D01*
G37*
G36*
X205850086Y-41406435D02*
G01*
X205998003Y-41467704D01*
X206131134Y-41556660D01*
X206244340Y-41669866D01*
X206333296Y-41802997D01*
X206394565Y-41950914D01*
X206425800Y-42107946D01*
X206425800Y-42268054D01*
X206394565Y-42425086D01*
X206333296Y-42573003D01*
X206244340Y-42706134D01*
X206131134Y-42819340D01*
X205998003Y-42908296D01*
X205850086Y-42969565D01*
X205693054Y-43000800D01*
X205532946Y-43000800D01*
X205375914Y-42969565D01*
X205227997Y-42908296D01*
X205094866Y-42819340D01*
X204981660Y-42706134D01*
X204892704Y-42573003D01*
X204831435Y-42425086D01*
X204800200Y-42268054D01*
X204800200Y-42107946D01*
X204831435Y-41950914D01*
X204892704Y-41802997D01*
X204981660Y-41669866D01*
X205094866Y-41556660D01*
X205227997Y-41467704D01*
X205375914Y-41406435D01*
X205532946Y-41375200D01*
X205693054Y-41375200D01*
X205850086Y-41406435D01*
G37*
G36*
X208390086Y-41406435D02*
G01*
X208538003Y-41467704D01*
X208671134Y-41556660D01*
X208784340Y-41669866D01*
X208873296Y-41802997D01*
X208934565Y-41950914D01*
X208965800Y-42107946D01*
X208965800Y-42268054D01*
X208934565Y-42425086D01*
X208873296Y-42573003D01*
X208784340Y-42706134D01*
X208671134Y-42819340D01*
X208538003Y-42908296D01*
X208390086Y-42969565D01*
X208233054Y-43000800D01*
X208072946Y-43000800D01*
X207915914Y-42969565D01*
X207767997Y-42908296D01*
X207634866Y-42819340D01*
X207521660Y-42706134D01*
X207432704Y-42573003D01*
X207371435Y-42425086D01*
X207340200Y-42268054D01*
X207340200Y-42107946D01*
X207371435Y-41950914D01*
X207432704Y-41802997D01*
X207521660Y-41669866D01*
X207634866Y-41556660D01*
X207767997Y-41467704D01*
X207915914Y-41406435D01*
X208072946Y-41375200D01*
X208233054Y-41375200D01*
X208390086Y-41406435D01*
G37*
G36*
X165210086Y-41406435D02*
G01*
X165358003Y-41467704D01*
X165491134Y-41556660D01*
X165604340Y-41669866D01*
X165693296Y-41802997D01*
X165754565Y-41950914D01*
X165785800Y-42107946D01*
X165785800Y-42268054D01*
X165754565Y-42425086D01*
X165693296Y-42573003D01*
X165604340Y-42706134D01*
X165491134Y-42819340D01*
X165358003Y-42908296D01*
X165210086Y-42969565D01*
X165053054Y-43000800D01*
X164892946Y-43000800D01*
X164735914Y-42969565D01*
X164587997Y-42908296D01*
X164454866Y-42819340D01*
X164341660Y-42706134D01*
X164252704Y-42573003D01*
X164191435Y-42425086D01*
X164160200Y-42268054D01*
X164160200Y-42107946D01*
X164191435Y-41950914D01*
X164252704Y-41802997D01*
X164341660Y-41669866D01*
X164454866Y-41556660D01*
X164587997Y-41467704D01*
X164735914Y-41406435D01*
X164892946Y-41375200D01*
X165053054Y-41375200D01*
X165210086Y-41406435D01*
G37*
G36*
X162670086Y-41406435D02*
G01*
X162818003Y-41467704D01*
X162951134Y-41556660D01*
X163064340Y-41669866D01*
X163153296Y-41802997D01*
X163214565Y-41950914D01*
X163245800Y-42107946D01*
X163245800Y-42268054D01*
X163214565Y-42425086D01*
X163153296Y-42573003D01*
X163064340Y-42706134D01*
X162951134Y-42819340D01*
X162818003Y-42908296D01*
X162670086Y-42969565D01*
X162513054Y-43000800D01*
X162352946Y-43000800D01*
X162195914Y-42969565D01*
X162047997Y-42908296D01*
X161914866Y-42819340D01*
X161801660Y-42706134D01*
X161712704Y-42573003D01*
X161651435Y-42425086D01*
X161620200Y-42268054D01*
X161620200Y-42107946D01*
X161651435Y-41950914D01*
X161712704Y-41802997D01*
X161801660Y-41669866D01*
X161914866Y-41556660D01*
X162047997Y-41467704D01*
X162195914Y-41406435D01*
X162352946Y-41375200D01*
X162513054Y-41375200D01*
X162670086Y-41406435D01*
G37*
G36*
X210930086Y-41406435D02*
G01*
X211078003Y-41467704D01*
X211211134Y-41556660D01*
X211324340Y-41669866D01*
X211413296Y-41802997D01*
X211474565Y-41950914D01*
X211505800Y-42107946D01*
X211505800Y-42268054D01*
X211474565Y-42425086D01*
X211413296Y-42573003D01*
X211324340Y-42706134D01*
X211211134Y-42819340D01*
X211078003Y-42908296D01*
X210930086Y-42969565D01*
X210773054Y-43000800D01*
X210612946Y-43000800D01*
X210455914Y-42969565D01*
X210307997Y-42908296D01*
X210174866Y-42819340D01*
X210061660Y-42706134D01*
X209972704Y-42573003D01*
X209911435Y-42425086D01*
X209880200Y-42268054D01*
X209880200Y-42107946D01*
X209911435Y-41950914D01*
X209972704Y-41802997D01*
X210061660Y-41669866D01*
X210174866Y-41556660D01*
X210307997Y-41467704D01*
X210455914Y-41406435D01*
X210612946Y-41375200D01*
X210773054Y-41375200D01*
X210930086Y-41406435D01*
G37*
G36*
X213470086Y-41406435D02*
G01*
X213618003Y-41467704D01*
X213751134Y-41556660D01*
X213864340Y-41669866D01*
X213953296Y-41802997D01*
X214014565Y-41950914D01*
X214045800Y-42107946D01*
X214045800Y-42268054D01*
X214014565Y-42425086D01*
X213953296Y-42573003D01*
X213864340Y-42706134D01*
X213751134Y-42819340D01*
X213618003Y-42908296D01*
X213470086Y-42969565D01*
X213313054Y-43000800D01*
X213152946Y-43000800D01*
X212995914Y-42969565D01*
X212847997Y-42908296D01*
X212714866Y-42819340D01*
X212601660Y-42706134D01*
X212512704Y-42573003D01*
X212451435Y-42425086D01*
X212420200Y-42268054D01*
X212420200Y-42107946D01*
X212451435Y-41950914D01*
X212512704Y-41802997D01*
X212601660Y-41669866D01*
X212714866Y-41556660D01*
X212847997Y-41467704D01*
X212995914Y-41406435D01*
X213152946Y-41375200D01*
X213313054Y-41375200D01*
X213470086Y-41406435D01*
G37*
G36*
X200770086Y-41406435D02*
G01*
X200918003Y-41467704D01*
X201051134Y-41556660D01*
X201164340Y-41669866D01*
X201253296Y-41802997D01*
X201314565Y-41950914D01*
X201345800Y-42107946D01*
X201345800Y-42268054D01*
X201314565Y-42425086D01*
X201253296Y-42573003D01*
X201164340Y-42706134D01*
X201051134Y-42819340D01*
X200918003Y-42908296D01*
X200770086Y-42969565D01*
X200613054Y-43000800D01*
X200452946Y-43000800D01*
X200295914Y-42969565D01*
X200147997Y-42908296D01*
X200014866Y-42819340D01*
X199901660Y-42706134D01*
X199812704Y-42573003D01*
X199751435Y-42425086D01*
X199720200Y-42268054D01*
X199720200Y-42107946D01*
X199751435Y-41950914D01*
X199812704Y-41802997D01*
X199901660Y-41669866D01*
X200014866Y-41556660D01*
X200147997Y-41467704D01*
X200295914Y-41406435D01*
X200452946Y-41375200D01*
X200613054Y-41375200D01*
X200770086Y-41406435D01*
G37*
G36*
X167750086Y-41406435D02*
G01*
X167898003Y-41467704D01*
X168031134Y-41556660D01*
X168144340Y-41669866D01*
X168233296Y-41802997D01*
X168294565Y-41950914D01*
X168325800Y-42107946D01*
X168325800Y-42268054D01*
X168294565Y-42425086D01*
X168233296Y-42573003D01*
X168144340Y-42706134D01*
X168031134Y-42819340D01*
X167898003Y-42908296D01*
X167750086Y-42969565D01*
X167593054Y-43000800D01*
X167432946Y-43000800D01*
X167275914Y-42969565D01*
X167127997Y-42908296D01*
X166994866Y-42819340D01*
X166881660Y-42706134D01*
X166792704Y-42573003D01*
X166731435Y-42425086D01*
X166700200Y-42268054D01*
X166700200Y-42107946D01*
X166731435Y-41950914D01*
X166792704Y-41802997D01*
X166881660Y-41669866D01*
X166994866Y-41556660D01*
X167127997Y-41467704D01*
X167275914Y-41406435D01*
X167432946Y-41375200D01*
X167593054Y-41375200D01*
X167750086Y-41406435D01*
G37*
G36*
X170290086Y-41406435D02*
G01*
X170438003Y-41467704D01*
X170571134Y-41556660D01*
X170684340Y-41669866D01*
X170773296Y-41802997D01*
X170834565Y-41950914D01*
X170865800Y-42107946D01*
X170865800Y-42268054D01*
X170834565Y-42425086D01*
X170773296Y-42573003D01*
X170684340Y-42706134D01*
X170571134Y-42819340D01*
X170438003Y-42908296D01*
X170290086Y-42969565D01*
X170133054Y-43000800D01*
X169972946Y-43000800D01*
X169815914Y-42969565D01*
X169667997Y-42908296D01*
X169534866Y-42819340D01*
X169421660Y-42706134D01*
X169332704Y-42573003D01*
X169271435Y-42425086D01*
X169240200Y-42268054D01*
X169240200Y-42107946D01*
X169271435Y-41950914D01*
X169332704Y-41802997D01*
X169421660Y-41669866D01*
X169534866Y-41556660D01*
X169667997Y-41467704D01*
X169815914Y-41406435D01*
X169972946Y-41375200D01*
X170133054Y-41375200D01*
X170290086Y-41406435D01*
G37*
G36*
X218550086Y-41406435D02*
G01*
X218698003Y-41467704D01*
X218831134Y-41556660D01*
X218944340Y-41669866D01*
X219033296Y-41802997D01*
X219094565Y-41950914D01*
X219125800Y-42107946D01*
X219125800Y-42268054D01*
X219094565Y-42425086D01*
X219033296Y-42573003D01*
X218944340Y-42706134D01*
X218831134Y-42819340D01*
X218698003Y-42908296D01*
X218550086Y-42969565D01*
X218393054Y-43000800D01*
X218232946Y-43000800D01*
X218075914Y-42969565D01*
X217927997Y-42908296D01*
X217794866Y-42819340D01*
X217681660Y-42706134D01*
X217592704Y-42573003D01*
X217531435Y-42425086D01*
X217500200Y-42268054D01*
X217500200Y-42107946D01*
X217531435Y-41950914D01*
X217592704Y-41802997D01*
X217681660Y-41669866D01*
X217794866Y-41556660D01*
X217927997Y-41467704D01*
X218075914Y-41406435D01*
X218232946Y-41375200D01*
X218393054Y-41375200D01*
X218550086Y-41406435D01*
G37*
G36*
X216010086Y-41406435D02*
G01*
X216158003Y-41467704D01*
X216291134Y-41556660D01*
X216404340Y-41669866D01*
X216493296Y-41802997D01*
X216554565Y-41950914D01*
X216585800Y-42107946D01*
X216585800Y-42268054D01*
X216554565Y-42425086D01*
X216493296Y-42573003D01*
X216404340Y-42706134D01*
X216291134Y-42819340D01*
X216158003Y-42908296D01*
X216010086Y-42969565D01*
X215853054Y-43000800D01*
X215692946Y-43000800D01*
X215535914Y-42969565D01*
X215387997Y-42908296D01*
X215254866Y-42819340D01*
X215141660Y-42706134D01*
X215052704Y-42573003D01*
X214991435Y-42425086D01*
X214960200Y-42268054D01*
X214960200Y-42107946D01*
X214991435Y-41950914D01*
X215052704Y-41802997D01*
X215141660Y-41669866D01*
X215254866Y-41556660D01*
X215387997Y-41467704D01*
X215535914Y-41406435D01*
X215692946Y-41375200D01*
X215853054Y-41375200D01*
X216010086Y-41406435D01*
G37*
G36*
X172830086Y-41406435D02*
G01*
X172978003Y-41467704D01*
X173111134Y-41556660D01*
X173224340Y-41669866D01*
X173313296Y-41802997D01*
X173374565Y-41950914D01*
X173405800Y-42107946D01*
X173405800Y-42268054D01*
X173374565Y-42425086D01*
X173313296Y-42573003D01*
X173224340Y-42706134D01*
X173111134Y-42819340D01*
X172978003Y-42908296D01*
X172830086Y-42969565D01*
X172673054Y-43000800D01*
X172512946Y-43000800D01*
X172355914Y-42969565D01*
X172207997Y-42908296D01*
X172074866Y-42819340D01*
X171961660Y-42706134D01*
X171872704Y-42573003D01*
X171811435Y-42425086D01*
X171780200Y-42268054D01*
X171780200Y-42107946D01*
X171811435Y-41950914D01*
X171872704Y-41802997D01*
X171961660Y-41669866D01*
X172074866Y-41556660D01*
X172207997Y-41467704D01*
X172355914Y-41406435D01*
X172512946Y-41375200D01*
X172673054Y-41375200D01*
X172830086Y-41406435D01*
G37*
G36*
X175370086Y-41406435D02*
G01*
X175518003Y-41467704D01*
X175651134Y-41556660D01*
X175764340Y-41669866D01*
X175853296Y-41802997D01*
X175914565Y-41950914D01*
X175945800Y-42107946D01*
X175945800Y-42268054D01*
X175914565Y-42425086D01*
X175853296Y-42573003D01*
X175764340Y-42706134D01*
X175651134Y-42819340D01*
X175518003Y-42908296D01*
X175370086Y-42969565D01*
X175213054Y-43000800D01*
X175052946Y-43000800D01*
X174895914Y-42969565D01*
X174747997Y-42908296D01*
X174614866Y-42819340D01*
X174501660Y-42706134D01*
X174412704Y-42573003D01*
X174351435Y-42425086D01*
X174320200Y-42268054D01*
X174320200Y-42107946D01*
X174351435Y-41950914D01*
X174412704Y-41802997D01*
X174501660Y-41669866D01*
X174614866Y-41556660D01*
X174747997Y-41467704D01*
X174895914Y-41406435D01*
X175052946Y-41375200D01*
X175213054Y-41375200D01*
X175370086Y-41406435D01*
G37*
G36*
X177910086Y-41406435D02*
G01*
X178058003Y-41467704D01*
X178191134Y-41556660D01*
X178304340Y-41669866D01*
X178393296Y-41802997D01*
X178454565Y-41950914D01*
X178485800Y-42107946D01*
X178485800Y-42268054D01*
X178454565Y-42425086D01*
X178393296Y-42573003D01*
X178304340Y-42706134D01*
X178191134Y-42819340D01*
X178058003Y-42908296D01*
X177910086Y-42969565D01*
X177753054Y-43000800D01*
X177592946Y-43000800D01*
X177435914Y-42969565D01*
X177287997Y-42908296D01*
X177154866Y-42819340D01*
X177041660Y-42706134D01*
X176952704Y-42573003D01*
X176891435Y-42425086D01*
X176860200Y-42268054D01*
X176860200Y-42107946D01*
X176891435Y-41950914D01*
X176952704Y-41802997D01*
X177041660Y-41669866D01*
X177154866Y-41556660D01*
X177287997Y-41467704D01*
X177435914Y-41406435D01*
X177592946Y-41375200D01*
X177753054Y-41375200D01*
X177910086Y-41406435D01*
G37*
G36*
X180450086Y-41406435D02*
G01*
X180598003Y-41467704D01*
X180731134Y-41556660D01*
X180844340Y-41669866D01*
X180933296Y-41802997D01*
X180994565Y-41950914D01*
X181025800Y-42107946D01*
X181025800Y-42268054D01*
X180994565Y-42425086D01*
X180933296Y-42573003D01*
X180844340Y-42706134D01*
X180731134Y-42819340D01*
X180598003Y-42908296D01*
X180450086Y-42969565D01*
X180293054Y-43000800D01*
X180132946Y-43000800D01*
X179975914Y-42969565D01*
X179827997Y-42908296D01*
X179694866Y-42819340D01*
X179581660Y-42706134D01*
X179492704Y-42573003D01*
X179431435Y-42425086D01*
X179400200Y-42268054D01*
X179400200Y-42107946D01*
X179431435Y-41950914D01*
X179492704Y-41802997D01*
X179581660Y-41669866D01*
X179694866Y-41556660D01*
X179827997Y-41467704D01*
X179975914Y-41406435D01*
X180132946Y-41375200D01*
X180293054Y-41375200D01*
X180450086Y-41406435D01*
G37*
M02*
